<?xml version="1.0" encoding="utf-8"?>
<svg xmlns="http://www.w3.org/2000/svg" xmlns:xlink="http://www.w3.org/1999/xlink" width="600" height="400" viewBox="0 0 2400 1600">
<defs>
  <clipPath id="clip900">
    <rect x="0" y="0" width="2400" height="1600"/>
  </clipPath>
</defs>


<polyline clip-path="url(#clip902)" style="stroke:#068de9; stroke-linecap:round; stroke-linejoin:round; stroke-width:2; stroke-opacity:0.3; fill:none" points="
  357.311,1486.45 357.311,106.192 
  "/>
<polyline clip-path="url(#clip902)" style="stroke:#068de9; stroke-linecap:round; stroke-linejoin:round; stroke-width:2; stroke-opacity:0.3; fill:none" points="
  744.776,1486.45 744.776,106.192 
  "/>
<polyline clip-path="url(#clip902)" style="stroke:#068de9; stroke-linecap:round; stroke-linejoin:round; stroke-width:2; stroke-opacity:0.3; fill:none" points="
  1132.24,1486.45 1132.24,106.192 
  "/>
<polyline clip-path="url(#clip902)" style="stroke:#068de9; stroke-linecap:round; stroke-linejoin:round; stroke-width:2; stroke-opacity:0.3; fill:none" points="
  1519.71,1486.45 1519.71,106.192 
  "/>
<polyline clip-path="url(#clip902)" style="stroke:#068de9; stroke-linecap:round; stroke-linejoin:round; stroke-width:2; stroke-opacity:0.3; fill:none" points="
  1907.17,1486.45 1907.17,106.192 
  "/>
<polyline clip-path="url(#clip902)" style="stroke:#068de9; stroke-linecap:round; stroke-linejoin:round; stroke-width:2; stroke-opacity:0.3; fill:none" points="
  2294.64,1486.45 2294.64,106.192 
  "/>




<path clip-path="url(#clip900)" d="M301.837 1544.91 L309.476 1544.91 L309.476 1518.55 L301.166 1520.21 L301.166 1515.95 L309.43 1514.29 L314.105 1514.29 L314.105 1544.91 L321.744 1544.91 L321.744 1548.85 L301.837 1548.85 L301.837 1544.91 Z" fill="#068de9" fill-rule="evenodd" fill-opacity="1" /><path clip-path="url(#clip900)" d="M331.328 1548.13 L331.328 1543.87 Q333.087 1544.7 334.892 1545.14 Q336.698 1545.58 338.434 1545.58 Q343.064 1545.58 345.494 1542.48 Q347.948 1539.36 348.295 1533.01 Q346.953 1535.01 344.892 1536.07 Q342.832 1537.13 340.332 1537.13 Q335.147 1537.13 332.115 1534.01 Q329.105 1530.86 329.105 1525.42 Q329.105 1520.1 332.254 1516.88 Q335.402 1513.66 340.633 1513.66 Q346.628 1513.66 349.777 1518.27 Q352.948 1522.85 352.948 1531.6 Q352.948 1539.77 349.059 1544.66 Q345.193 1549.52 338.642 1549.52 Q336.883 1549.52 335.078 1549.17 Q333.272 1548.82 331.328 1548.13 M340.633 1533.48 Q343.781 1533.48 345.61 1531.32 Q347.462 1529.17 347.462 1525.42 Q347.462 1521.7 345.61 1519.54 Q343.781 1517.37 340.633 1517.37 Q337.485 1517.37 335.633 1519.54 Q333.804 1521.7 333.804 1525.42 Q333.804 1529.17 335.633 1531.32 Q337.485 1533.48 340.633 1533.48 Z" fill="#068de9" fill-rule="evenodd" fill-opacity="1" /><path clip-path="url(#clip900)" d="M360.17 1514.29 L382.392 1514.29 L382.392 1516.28 L369.846 1548.85 L364.962 1548.85 L376.767 1518.22 L360.17 1518.22 L360.17 1514.29 Z" fill="#068de9" fill-rule="evenodd" fill-opacity="1" /><path clip-path="url(#clip900)" d="M401.512 1517.37 Q397.901 1517.37 396.073 1520.93 Q394.267 1524.47 394.267 1531.6 Q394.267 1538.71 396.073 1542.27 Q397.901 1545.82 401.512 1545.82 Q405.147 1545.82 406.952 1542.27 Q408.781 1538.71 408.781 1531.6 Q408.781 1524.47 406.952 1520.93 Q405.147 1517.37 401.512 1517.37 M401.512 1513.66 Q407.323 1513.66 410.378 1518.27 Q413.457 1522.85 413.457 1531.6 Q413.457 1540.33 410.378 1544.94 Q407.323 1549.52 401.512 1549.52 Q395.702 1549.52 392.624 1544.94 Q389.568 1540.33 389.568 1531.6 Q389.568 1522.85 392.624 1518.27 Q395.702 1513.66 401.512 1513.66 Z" fill="#068de9" fill-rule="evenodd" fill-opacity="1" /><path clip-path="url(#clip900)" d="M689.302 1544.91 L696.941 1544.91 L696.941 1518.55 L688.631 1520.21 L688.631 1515.95 L696.895 1514.29 L701.57 1514.29 L701.57 1544.91 L709.209 1544.91 L709.209 1548.85 L689.302 1548.85 L689.302 1544.91 Z" fill="#068de9" fill-rule="evenodd" fill-opacity="1" /><path clip-path="url(#clip900)" d="M718.793 1548.13 L718.793 1543.87 Q720.552 1544.7 722.357 1545.14 Q724.163 1545.58 725.899 1545.58 Q730.529 1545.58 732.959 1542.48 Q735.413 1539.36 735.76 1533.01 Q734.417 1535.01 732.357 1536.07 Q730.297 1537.13 727.797 1537.13 Q722.612 1537.13 719.58 1534.01 Q716.57 1530.86 716.57 1525.42 Q716.57 1520.1 719.719 1516.88 Q722.867 1513.66 728.098 1513.66 Q734.093 1513.66 737.242 1518.27 Q740.413 1522.85 740.413 1531.6 Q740.413 1539.77 736.524 1544.66 Q732.658 1549.52 726.107 1549.52 Q724.348 1549.52 722.543 1549.17 Q720.737 1548.82 718.793 1548.13 M728.098 1533.48 Q731.246 1533.48 733.075 1531.32 Q734.927 1529.17 734.927 1525.42 Q734.927 1521.7 733.075 1519.54 Q731.246 1517.37 728.098 1517.37 Q724.95 1517.37 723.098 1519.54 Q721.269 1521.7 721.269 1525.42 Q721.269 1529.17 723.098 1531.32 Q724.95 1533.48 728.098 1533.48 Z" fill="#068de9" fill-rule="evenodd" fill-opacity="1" /><path clip-path="url(#clip900)" d="M758.816 1532.44 Q755.482 1532.44 753.561 1534.22 Q751.663 1536 751.663 1539.13 Q751.663 1542.25 753.561 1544.03 Q755.482 1545.82 758.816 1545.82 Q762.149 1545.82 764.07 1544.03 Q765.991 1542.23 765.991 1539.13 Q765.991 1536 764.07 1534.22 Q762.172 1532.44 758.816 1532.44 M754.14 1530.45 Q751.13 1529.7 749.441 1527.64 Q747.774 1525.58 747.774 1522.62 Q747.774 1518.48 750.714 1516.07 Q753.677 1513.66 758.816 1513.66 Q763.978 1513.66 766.917 1516.07 Q769.857 1518.48 769.857 1522.62 Q769.857 1525.58 768.167 1527.64 Q766.501 1529.7 763.515 1530.45 Q766.894 1531.23 768.769 1533.52 Q770.667 1535.82 770.667 1539.13 Q770.667 1544.15 767.589 1546.83 Q764.533 1549.52 758.816 1549.52 Q753.098 1549.52 750.019 1546.83 Q746.964 1544.15 746.964 1539.13 Q746.964 1535.82 748.862 1533.52 Q750.76 1531.23 754.14 1530.45 M752.427 1523.06 Q752.427 1525.75 754.093 1527.25 Q755.783 1528.76 758.816 1528.76 Q761.825 1528.76 763.515 1527.25 Q765.228 1525.75 765.228 1523.06 Q765.228 1520.38 763.515 1518.87 Q761.825 1517.37 758.816 1517.37 Q755.783 1517.37 754.093 1518.87 Q752.427 1520.38 752.427 1523.06 Z" fill="#068de9" fill-rule="evenodd" fill-opacity="1" /><path clip-path="url(#clip900)" d="M788.977 1517.37 Q785.366 1517.37 783.538 1520.93 Q781.732 1524.47 781.732 1531.6 Q781.732 1538.71 783.538 1542.27 Q785.366 1545.82 788.977 1545.82 Q792.612 1545.82 794.417 1542.27 Q796.246 1538.71 796.246 1531.6 Q796.246 1524.47 794.417 1520.93 Q792.612 1517.37 788.977 1517.37 M788.977 1513.66 Q794.788 1513.66 797.843 1518.27 Q800.922 1522.85 800.922 1531.6 Q800.922 1540.33 797.843 1544.94 Q794.788 1549.52 788.977 1549.52 Q783.167 1549.52 780.089 1544.94 Q777.033 1540.33 777.033 1531.6 Q777.033 1522.85 780.089 1518.27 Q783.167 1513.66 788.977 1513.66 Z" fill="#068de9" fill-rule="evenodd" fill-opacity="1" /><path clip-path="url(#clip900)" d="M1076.77 1544.91 L1084.41 1544.91 L1084.41 1518.55 L1076.1 1520.21 L1076.1 1515.95 L1084.36 1514.29 L1089.04 1514.29 L1089.04 1544.91 L1096.67 1544.91 L1096.67 1548.85 L1076.77 1548.85 L1076.77 1544.91 Z" fill="#068de9" fill-rule="evenodd" fill-opacity="1" /><path clip-path="url(#clip900)" d="M1106.26 1548.13 L1106.26 1543.87 Q1108.02 1544.7 1109.82 1545.14 Q1111.63 1545.58 1113.36 1545.58 Q1117.99 1545.58 1120.42 1542.48 Q1122.88 1539.36 1123.23 1533.01 Q1121.88 1535.01 1119.82 1536.07 Q1117.76 1537.13 1115.26 1537.13 Q1110.08 1537.13 1107.04 1534.01 Q1104.04 1530.86 1104.04 1525.42 Q1104.04 1520.1 1107.18 1516.88 Q1110.33 1513.66 1115.56 1513.66 Q1121.56 1513.66 1124.71 1518.27 Q1127.88 1522.85 1127.88 1531.6 Q1127.88 1539.77 1123.99 1544.66 Q1120.12 1549.52 1113.57 1549.52 Q1111.81 1549.52 1110.01 1549.17 Q1108.2 1548.82 1106.26 1548.13 M1115.56 1533.48 Q1118.71 1533.48 1120.54 1531.32 Q1122.39 1529.17 1122.39 1525.42 Q1122.39 1521.7 1120.54 1519.54 Q1118.71 1517.37 1115.56 1517.37 Q1112.41 1517.37 1110.56 1519.54 Q1108.73 1521.7 1108.73 1525.42 Q1108.73 1529.17 1110.56 1531.32 Q1112.41 1533.48 1115.56 1533.48 Z" fill="#068de9" fill-rule="evenodd" fill-opacity="1" /><path clip-path="url(#clip900)" d="M1136.42 1548.13 L1136.42 1543.87 Q1138.18 1544.7 1139.98 1545.14 Q1141.79 1545.58 1143.53 1545.58 Q1148.16 1545.58 1150.59 1542.48 Q1153.04 1539.36 1153.39 1533.01 Q1152.04 1535.01 1149.98 1536.07 Q1147.92 1537.13 1145.42 1537.13 Q1140.24 1537.13 1137.21 1534.01 Q1134.2 1530.86 1134.2 1525.42 Q1134.2 1520.1 1137.35 1516.88 Q1140.49 1513.66 1145.72 1513.66 Q1151.72 1513.66 1154.87 1518.27 Q1158.04 1522.85 1158.04 1531.6 Q1158.04 1539.77 1154.15 1544.66 Q1150.29 1549.52 1143.73 1549.52 Q1141.97 1549.52 1140.17 1549.17 Q1138.36 1548.82 1136.42 1548.13 M1145.72 1533.48 Q1148.87 1533.48 1150.7 1531.32 Q1152.55 1529.17 1152.55 1525.42 Q1152.55 1521.7 1150.7 1519.54 Q1148.87 1517.37 1145.72 1517.37 Q1142.58 1517.37 1140.72 1519.54 Q1138.9 1521.7 1138.9 1525.42 Q1138.9 1529.17 1140.72 1531.32 Q1142.58 1533.48 1145.72 1533.48 Z" fill="#068de9" fill-rule="evenodd" fill-opacity="1" /><path clip-path="url(#clip900)" d="M1176.44 1517.37 Q1172.83 1517.37 1171 1520.93 Q1169.2 1524.47 1169.2 1531.6 Q1169.2 1538.71 1171 1542.27 Q1172.83 1545.82 1176.44 1545.82 Q1180.08 1545.82 1181.88 1542.27 Q1183.71 1538.71 1183.71 1531.6 Q1183.71 1524.47 1181.88 1520.93 Q1180.08 1517.37 1176.44 1517.37 M1176.44 1513.66 Q1182.25 1513.66 1185.31 1518.27 Q1188.39 1522.85 1188.39 1531.6 Q1188.39 1540.33 1185.31 1544.94 Q1182.25 1549.52 1176.44 1549.52 Q1170.63 1549.52 1167.55 1544.94 Q1164.5 1540.33 1164.5 1531.6 Q1164.5 1522.85 1167.55 1518.27 Q1170.63 1513.66 1176.44 1513.66 Z" fill="#068de9" fill-rule="evenodd" fill-opacity="1" /><path clip-path="url(#clip900)" d="M1468.32 1544.91 L1484.64 1544.91 L1484.64 1548.85 L1462.69 1548.85 L1462.69 1544.91 Q1465.35 1542.16 1469.94 1537.53 Q1474.54 1532.88 1475.72 1531.53 Q1477.97 1529.01 1478.85 1527.27 Q1479.75 1525.51 1479.75 1523.82 Q1479.75 1521.07 1477.81 1519.33 Q1475.89 1517.6 1472.79 1517.6 Q1470.59 1517.6 1468.13 1518.36 Q1465.7 1519.13 1462.92 1520.68 L1462.92 1515.95 Q1465.75 1514.82 1468.2 1514.24 Q1470.66 1513.66 1472.69 1513.66 Q1478.06 1513.66 1481.26 1516.35 Q1484.45 1519.03 1484.45 1523.52 Q1484.45 1525.65 1483.64 1527.57 Q1482.85 1529.47 1480.75 1532.07 Q1480.17 1532.74 1477.07 1535.95 Q1473.97 1539.15 1468.32 1544.91 Z" fill="#068de9" fill-rule="evenodd" fill-opacity="1" /><path clip-path="url(#clip900)" d="M1504.45 1517.37 Q1500.84 1517.37 1499.01 1520.93 Q1497.21 1524.47 1497.21 1531.6 Q1497.21 1538.71 1499.01 1542.27 Q1500.84 1545.82 1504.45 1545.82 Q1508.09 1545.82 1509.89 1542.27 Q1511.72 1538.71 1511.72 1531.6 Q1511.72 1524.47 1509.89 1520.93 Q1508.09 1517.37 1504.45 1517.37 M1504.45 1513.66 Q1510.26 1513.66 1513.32 1518.27 Q1516.4 1522.85 1516.4 1531.6 Q1516.4 1540.33 1513.32 1544.94 Q1510.26 1549.52 1504.45 1549.52 Q1498.64 1549.52 1495.56 1544.94 Q1492.51 1540.33 1492.51 1531.6 Q1492.51 1522.85 1495.56 1518.27 Q1498.64 1513.66 1504.45 1513.66 Z" fill="#068de9" fill-rule="evenodd" fill-opacity="1" /><path clip-path="url(#clip900)" d="M1534.61 1517.37 Q1531 1517.37 1529.17 1520.93 Q1527.37 1524.47 1527.37 1531.6 Q1527.37 1538.71 1529.17 1542.27 Q1531 1545.82 1534.61 1545.82 Q1538.25 1545.82 1540.05 1542.27 Q1541.88 1538.71 1541.88 1531.6 Q1541.88 1524.47 1540.05 1520.93 Q1538.25 1517.37 1534.61 1517.37 M1534.61 1513.66 Q1540.42 1513.66 1543.48 1518.27 Q1546.56 1522.85 1546.56 1531.6 Q1546.56 1540.33 1543.48 1544.94 Q1540.42 1549.52 1534.61 1549.52 Q1528.8 1549.52 1525.72 1544.94 Q1522.67 1540.33 1522.67 1531.6 Q1522.67 1522.85 1525.72 1518.27 Q1528.8 1513.66 1534.61 1513.66 Z" fill="#068de9" fill-rule="evenodd" fill-opacity="1" /><path clip-path="url(#clip900)" d="M1564.78 1517.37 Q1561.16 1517.37 1559.34 1520.93 Q1557.53 1524.47 1557.53 1531.6 Q1557.53 1538.71 1559.34 1542.27 Q1561.16 1545.82 1564.78 1545.82 Q1568.41 1545.82 1570.22 1542.27 Q1572.04 1538.71 1572.04 1531.6 Q1572.04 1524.47 1570.22 1520.93 Q1568.41 1517.37 1564.78 1517.37 M1564.78 1513.66 Q1570.59 1513.66 1573.64 1518.27 Q1576.72 1522.85 1576.72 1531.6 Q1576.72 1540.33 1573.64 1544.94 Q1570.59 1549.52 1564.78 1549.52 Q1558.97 1549.52 1555.89 1544.94 Q1552.83 1540.33 1552.83 1531.6 Q1552.83 1522.85 1555.89 1518.27 Q1558.97 1513.66 1564.78 1513.66 Z" fill="#068de9" fill-rule="evenodd" fill-opacity="1" /><path clip-path="url(#clip900)" d="M1855.78 1544.91 L1872.1 1544.91 L1872.1 1548.85 L1850.16 1548.85 L1850.16 1544.91 Q1852.82 1542.16 1857.4 1537.53 Q1862.01 1532.88 1863.19 1531.53 Q1865.44 1529.01 1866.31 1527.27 Q1867.22 1525.51 1867.22 1523.82 Q1867.22 1521.07 1865.27 1519.33 Q1863.35 1517.6 1860.25 1517.6 Q1858.05 1517.6 1855.6 1518.36 Q1853.17 1519.13 1850.39 1520.68 L1850.39 1515.95 Q1853.21 1514.82 1855.67 1514.24 Q1858.12 1513.66 1860.16 1513.66 Q1865.53 1513.66 1868.72 1516.35 Q1871.92 1519.03 1871.92 1523.52 Q1871.92 1525.65 1871.11 1527.57 Q1870.32 1529.47 1868.21 1532.07 Q1867.63 1532.74 1864.53 1535.95 Q1861.43 1539.15 1855.78 1544.91 Z" fill="#068de9" fill-rule="evenodd" fill-opacity="1" /><path clip-path="url(#clip900)" d="M1891.92 1517.37 Q1888.31 1517.37 1886.48 1520.93 Q1884.67 1524.47 1884.67 1531.6 Q1884.67 1538.71 1886.48 1542.27 Q1888.31 1545.82 1891.92 1545.82 Q1895.55 1545.82 1897.36 1542.27 Q1899.19 1538.71 1899.19 1531.6 Q1899.19 1524.47 1897.36 1520.93 Q1895.55 1517.37 1891.92 1517.37 M1891.92 1513.66 Q1897.73 1513.66 1900.78 1518.27 Q1903.86 1522.85 1903.86 1531.6 Q1903.86 1540.33 1900.78 1544.94 Q1897.73 1549.52 1891.92 1549.52 Q1886.11 1549.52 1883.03 1544.94 Q1879.97 1540.33 1879.97 1531.6 Q1879.97 1522.85 1883.03 1518.27 Q1886.11 1513.66 1891.92 1513.66 Z" fill="#068de9" fill-rule="evenodd" fill-opacity="1" /><path clip-path="url(#clip900)" d="M1912.89 1544.91 L1920.53 1544.91 L1920.53 1518.55 L1912.22 1520.21 L1912.22 1515.95 L1920.48 1514.29 L1925.16 1514.29 L1925.16 1544.91 L1932.8 1544.91 L1932.8 1548.85 L1912.89 1548.85 L1912.89 1544.91 Z" fill="#068de9" fill-rule="evenodd" fill-opacity="1" /><path clip-path="url(#clip900)" d="M1952.24 1517.37 Q1948.63 1517.37 1946.8 1520.93 Q1945 1524.47 1945 1531.6 Q1945 1538.71 1946.8 1542.27 Q1948.63 1545.82 1952.24 1545.82 Q1955.87 1545.82 1957.68 1542.27 Q1959.51 1538.71 1959.51 1531.6 Q1959.51 1524.47 1957.68 1520.93 Q1955.87 1517.37 1952.24 1517.37 M1952.24 1513.66 Q1958.05 1513.66 1961.11 1518.27 Q1964.18 1522.85 1964.18 1531.6 Q1964.18 1540.33 1961.11 1544.94 Q1958.05 1549.52 1952.24 1549.52 Q1946.43 1549.52 1943.35 1544.94 Q1940.3 1540.33 1940.3 1531.6 Q1940.3 1522.85 1943.35 1518.27 Q1946.43 1513.66 1952.24 1513.66 Z" fill="#068de9" fill-rule="evenodd" fill-opacity="1" /><path clip-path="url(#clip900)" d="M2243.25 1544.91 L2259.57 1544.91 L2259.57 1548.85 L2237.62 1548.85 L2237.62 1544.91 Q2240.28 1542.16 2244.87 1537.53 Q2249.47 1532.88 2250.65 1531.53 Q2252.9 1529.01 2253.78 1527.27 Q2254.68 1525.51 2254.68 1523.82 Q2254.68 1521.07 2252.74 1519.33 Q2250.82 1517.6 2247.72 1517.6 Q2245.52 1517.6 2243.06 1518.36 Q2240.63 1519.13 2237.85 1520.68 L2237.85 1515.95 Q2240.68 1514.82 2243.13 1514.24 Q2245.59 1513.66 2247.62 1513.66 Q2252.99 1513.66 2256.19 1516.35 Q2259.38 1519.03 2259.38 1523.52 Q2259.38 1525.65 2258.57 1527.57 Q2257.78 1529.47 2255.68 1532.07 Q2255.1 1532.74 2252 1535.95 Q2248.9 1539.15 2243.25 1544.91 Z" fill="#068de9" fill-rule="evenodd" fill-opacity="1" /><path clip-path="url(#clip900)" d="M2279.38 1517.37 Q2275.77 1517.37 2273.94 1520.93 Q2272.14 1524.47 2272.14 1531.6 Q2272.14 1538.71 2273.94 1542.27 Q2275.77 1545.82 2279.38 1545.82 Q2283.02 1545.82 2284.82 1542.27 Q2286.65 1538.71 2286.65 1531.6 Q2286.65 1524.47 2284.82 1520.93 Q2283.02 1517.37 2279.38 1517.37 M2279.38 1513.66 Q2285.19 1513.66 2288.25 1518.27 Q2291.33 1522.85 2291.33 1531.6 Q2291.33 1540.33 2288.25 1544.94 Q2285.19 1549.52 2279.38 1549.52 Q2273.57 1549.52 2270.49 1544.94 Q2267.44 1540.33 2267.44 1531.6 Q2267.44 1522.85 2270.49 1518.27 Q2273.57 1513.66 2279.38 1513.66 Z" fill="#068de9" fill-rule="evenodd" fill-opacity="1" /><path clip-path="url(#clip900)" d="M2303.57 1544.91 L2319.89 1544.91 L2319.89 1548.85 L2297.95 1548.85 L2297.95 1544.91 Q2300.61 1542.16 2305.19 1537.53 Q2309.8 1532.88 2310.98 1531.53 Q2313.22 1529.01 2314.1 1527.27 Q2315.01 1525.51 2315.01 1523.82 Q2315.01 1521.07 2313.06 1519.33 Q2311.14 1517.6 2308.04 1517.6 Q2305.84 1517.6 2303.39 1518.36 Q2300.96 1519.13 2298.18 1520.68 L2298.18 1515.95 Q2301 1514.82 2303.46 1514.24 Q2305.91 1513.66 2307.95 1513.66 Q2313.32 1513.66 2316.51 1516.35 Q2319.71 1519.03 2319.71 1523.52 Q2319.71 1525.65 2318.9 1527.57 Q2318.11 1529.47 2316 1532.07 Q2315.42 1532.74 2312.32 1535.95 Q2309.22 1539.15 2303.57 1544.91 Z" fill="#068de9" fill-rule="evenodd" fill-opacity="1" /><path clip-path="url(#clip900)" d="M2339.71 1517.37 Q2336.09 1517.37 2334.27 1520.93 Q2332.46 1524.47 2332.46 1531.6 Q2332.46 1538.71 2334.27 1542.27 Q2336.09 1545.82 2339.71 1545.82 Q2343.34 1545.82 2345.15 1542.27 Q2346.97 1538.71 2346.97 1531.6 Q2346.97 1524.47 2345.15 1520.93 Q2343.34 1517.37 2339.71 1517.37 M2339.71 1513.66 Q2345.52 1513.66 2348.57 1518.27 Q2351.65 1522.85 2351.65 1531.6 Q2351.65 1540.33 2348.57 1544.94 Q2345.52 1549.52 2339.71 1549.52 Q2333.9 1549.52 2330.82 1544.94 Q2327.76 1540.33 2327.76 1531.6 Q2327.76 1522.85 2330.82 1518.27 Q2333.9 1513.66 2339.71 1513.66 Z" fill="#068de9" fill-rule="evenodd" fill-opacity="1" /><polyline clip-path="url(#clip902)" style="stroke:#000000; stroke-linecap:round; stroke-linejoin:round; stroke-width:2; stroke-opacity:0.3; fill:none" points="
  299.192,1485.08 2352.76,1485.08 
  "/>
<polyline clip-path="url(#clip902)" style="stroke:#068de9; stroke-linecap:round; stroke-linejoin:round; stroke-width:2; stroke-opacity:0.3; fill:none" points="
  299.192,1279.06 2352.76,1279.06 
  "/>
<polyline clip-path="url(#clip902)" style="stroke:#068de9; stroke-linecap:round; stroke-linejoin:round; stroke-width:2; stroke-opacity:0.3; fill:none" points="
  299.192,1073.03 2352.76,1073.03 
  "/>
<polyline clip-path="url(#clip902)" style="stroke:#068de9; stroke-linecap:round; stroke-linejoin:round; stroke-width:2; stroke-opacity:0.3; fill:none" points="
  299.192,867.004 2352.76,867.004 
  "/>
<polyline clip-path="url(#clip902)" style="stroke:#068de9; stroke-linecap:round; stroke-linejoin:round; stroke-width:2; stroke-opacity:0.3; fill:none" points="
  299.192,660.978 2352.76,660.978 
  "/>
<polyline clip-path="url(#clip902)" style="stroke:#068de9; stroke-linecap:round; stroke-linejoin:round; stroke-width:2; stroke-opacity:0.3; fill:none" points="
  299.192,454.951 2352.76,454.951 
  "/>
<polyline clip-path="url(#clip902)" style="stroke:#068de9; stroke-linecap:round; stroke-linejoin:round; stroke-width:2; stroke-opacity:0.3; fill:none" points="
  299.192,248.925 2352.76,248.925 
  "/>





<path clip-path="url(#clip900)" d="M382.909 12.6041 Q376.543 12.6041 372.781 17.3494 Q369.049 22.0948 369.049 30.2834 Q369.049 38.4431 372.781 43.1884 Q376.543 47.9338 382.909 47.9338 Q389.274 47.9338 392.978 43.1884 Q396.711 38.4431 396.711 30.2834 Q396.711 22.0948 392.978 17.3494 Q389.274 12.6041 382.909 12.6041 M382.909 7.85875 Q391.994 7.85875 397.434 13.964 Q402.874 20.0404 402.874 30.2834 Q402.874 40.4975 397.434 46.6028 Q391.994 52.6791 382.909 52.6791 Q373.794 52.6791 368.325 46.6028 Q362.886 40.5264 362.886 30.2834 Q362.886 20.0404 368.325 13.964 Q373.794 7.85875 382.909 7.85875 Z" fill="#066de9" fill-rule="evenodd" fill-opacity="1" /><path clip-path="url(#clip900)" d="M438.724 32.2799 L438.724 51.84 L433.4 51.84 L433.4 32.4535 Q433.4 27.8529 431.606 25.567 Q429.812 23.2811 426.224 23.2811 Q421.913 23.2811 419.425 26.03 Q416.936 28.7788 416.936 33.5241 L416.936 51.84 L411.583 51.84 L411.583 19.4328 L416.936 19.4328 L416.936 24.4675 Q418.846 21.545 421.421 20.0983 Q424.025 18.6515 427.411 18.6515 Q432.995 18.6515 435.86 22.1237 Q438.724 25.567 438.724 32.2799 Z" fill="#066de9" fill-rule="evenodd" fill-opacity="1" /><path clip-path="url(#clip900)" d="M477.063 34.3054 L477.063 36.9095 L452.584 36.9095 Q452.932 42.4072 455.883 45.3007 Q458.863 48.1653 464.158 48.1653 Q467.225 48.1653 470.09 47.4129 Q472.983 46.6606 475.819 45.156 L475.819 50.1907 Q472.955 51.406 469.945 52.0425 Q466.936 52.6791 463.84 52.6791 Q456.085 52.6791 451.543 48.1653 Q447.029 43.6514 447.029 35.9547 Q447.029 27.9975 451.311 23.339 Q455.622 18.6515 462.914 18.6515 Q469.453 18.6515 473.244 22.876 Q477.063 27.0716 477.063 34.3054 M471.739 32.7429 Q471.681 28.3737 469.28 25.7695 Q466.907 23.1654 462.972 23.1654 Q458.516 23.1654 455.825 25.6827 Q453.163 28.2001 452.758 32.7718 L471.739 32.7429 Z" fill="#066de9" fill-rule="evenodd" fill-opacity="1" /><path clip-path="url(#clip900)" d="M483.111 33.2348 L498.707 33.2348 L498.707 37.9801 L483.111 37.9801 L483.111 33.2348 Z" fill="#066de9" fill-rule="evenodd" fill-opacity="1" /><path clip-path="url(#clip900)" d="M519.627 54.8492 Q517.37 60.6362 515.229 62.4013 Q513.087 64.1663 509.499 64.1663 L505.246 64.1663 L505.246 59.7103 L508.371 59.7103 Q510.57 59.7103 511.785 58.6687 Q513.001 57.627 514.476 53.7497 L515.431 51.3192 L502.324 19.4328 L507.966 19.4328 L518.093 44.7799 L528.22 19.4328 L533.863 19.4328 L519.627 54.8492 Z" fill="#066de9" fill-rule="evenodd" fill-opacity="1" /><path clip-path="url(#clip900)" d="M568.932 34.3054 L568.932 36.9095 L544.453 36.9095 Q544.8 42.4072 547.752 45.3007 Q550.732 48.1653 556.027 48.1653 Q559.094 48.1653 561.959 47.4129 Q564.852 46.6606 567.688 45.156 L567.688 50.1907 Q564.823 51.406 561.814 52.0425 Q558.805 52.6791 555.709 52.6791 Q547.954 52.6791 543.411 48.1653 Q538.897 43.6514 538.897 35.9547 Q538.897 27.9975 543.18 23.339 Q547.491 18.6515 554.783 18.6515 Q561.322 18.6515 565.113 22.876 Q568.932 27.0716 568.932 34.3054 M563.608 32.7429 Q563.55 28.3737 561.149 25.7695 Q558.776 23.1654 554.841 23.1654 Q550.385 23.1654 547.694 25.6827 Q545.032 28.2001 544.627 32.7718 L563.608 32.7429 Z" fill="#066de9" fill-rule="evenodd" fill-opacity="1" /><path clip-path="url(#clip900)" d="M592.398 35.5496 Q585.946 35.5496 583.457 37.0253 Q580.969 38.501 580.969 42.06 Q580.969 44.8956 582.821 46.5738 Q584.702 48.2231 587.913 48.2231 Q592.34 48.2231 595.003 45.0981 Q597.693 41.9442 597.693 36.7359 L597.693 35.5496 L592.398 35.5496 M603.018 33.3505 L603.018 51.84 L597.693 51.84 L597.693 46.921 Q595.871 49.8724 593.151 51.2902 Q590.431 52.6791 586.496 52.6791 Q581.519 52.6791 578.567 49.9014 Q575.645 47.0947 575.645 42.4072 Q575.645 36.9385 579.291 34.1607 Q582.966 31.3829 590.228 31.3829 L597.693 31.3829 L597.693 30.8621 Q597.693 27.1874 595.263 25.1908 Q592.861 23.1654 588.492 23.1654 Q585.714 23.1654 583.081 23.8309 Q580.448 24.4964 578.018 25.8274 L578.018 20.9085 Q580.94 19.78 583.689 19.2302 Q586.438 18.6515 589.042 18.6515 Q596.073 18.6515 599.545 22.2973 Q603.018 25.9431 603.018 33.3505 Z" fill="#066de9" fill-rule="evenodd" fill-opacity="1" /><path clip-path="url(#clip900)" d="M632.763 24.4096 Q631.866 23.8888 630.795 23.6573 Q629.753 23.3969 628.48 23.3969 Q623.966 23.3969 621.536 26.3482 Q619.134 29.2707 619.134 34.7683 L619.134 51.84 L613.781 51.84 L613.781 19.4328 L619.134 19.4328 L619.134 24.4675 Q620.813 21.5161 623.504 20.0983 Q626.194 18.6515 630.043 18.6515 Q630.593 18.6515 631.258 18.7383 Q631.924 18.7962 632.734 18.9409 L632.763 24.4096 Z" fill="#066de9" fill-rule="evenodd" fill-opacity="1" /><path clip-path="url(#clip900)" d="M671.912 35.5496 Q665.459 35.5496 662.971 37.0253 Q660.482 38.501 660.482 42.06 Q660.482 44.8956 662.334 46.5738 Q664.215 48.2231 667.427 48.2231 Q671.854 48.2231 674.516 45.0981 Q677.207 41.9442 677.207 36.7359 L677.207 35.5496 L671.912 35.5496 M682.531 33.3505 L682.531 51.84 L677.207 51.84 L677.207 46.921 Q675.384 49.8724 672.664 51.2902 Q669.944 52.6791 666.009 52.6791 Q661.032 52.6791 658.081 49.9014 Q655.158 47.0947 655.158 42.4072 Q655.158 36.9385 658.804 34.1607 Q662.479 31.3829 669.742 31.3829 L677.207 31.3829 L677.207 30.8621 Q677.207 27.1874 674.776 25.1908 Q672.375 23.1654 668.006 23.1654 Q665.228 23.1654 662.595 23.8309 Q659.962 24.4964 657.531 25.8274 L657.531 20.9085 Q660.454 19.78 663.202 19.2302 Q665.951 18.6515 668.555 18.6515 Q675.587 18.6515 679.059 22.2973 Q682.531 25.9431 682.531 33.3505 Z" fill="#066de9" fill-rule="evenodd" fill-opacity="1" /><path clip-path="url(#clip900)" d="M720.436 32.2799 L720.436 51.84 L715.112 51.84 L715.112 32.4535 Q715.112 27.8529 713.318 25.567 Q711.524 23.2811 707.936 23.2811 Q703.625 23.2811 701.136 26.03 Q698.648 28.7788 698.648 33.5241 L698.648 51.84 L693.295 51.84 L693.295 6.81709 L698.648 6.81709 L698.648 24.4675 Q700.557 21.545 703.133 20.0983 Q705.737 18.6515 709.122 18.6515 Q714.707 18.6515 717.571 22.1237 Q720.436 25.567 720.436 32.2799 Z" fill="#066de9" fill-rule="evenodd" fill-opacity="1" /><path clip-path="url(#clip900)" d="M758.775 34.3054 L758.775 36.9095 L734.296 36.9095 Q734.643 42.4072 737.594 45.3007 Q740.575 48.1653 745.87 48.1653 Q748.937 48.1653 751.801 47.4129 Q754.695 46.6606 757.531 45.156 L757.531 50.1907 Q754.666 51.406 751.657 52.0425 Q748.648 52.6791 745.551 52.6791 Q737.797 52.6791 733.254 48.1653 Q728.74 43.6514 728.74 35.9547 Q728.74 27.9975 733.023 23.339 Q737.334 18.6515 744.626 18.6515 Q751.165 18.6515 754.955 22.876 Q758.775 27.0716 758.775 34.3054 M753.451 32.7429 Q753.393 28.3737 750.991 25.7695 Q748.619 23.1654 744.683 23.1654 Q740.227 23.1654 737.536 25.6827 Q734.874 28.2001 734.469 32.7718 L753.451 32.7429 Z" fill="#066de9" fill-rule="evenodd" fill-opacity="1" /><path clip-path="url(#clip900)" d="M782.241 35.5496 Q775.789 35.5496 773.3 37.0253 Q770.812 38.501 770.812 42.06 Q770.812 44.8956 772.664 46.5738 Q774.544 48.2231 777.756 48.2231 Q782.183 48.2231 784.845 45.0981 Q787.536 41.9442 787.536 36.7359 L787.536 35.5496 L782.241 35.5496 M792.86 33.3505 L792.86 51.84 L787.536 51.84 L787.536 46.921 Q785.713 49.8724 782.993 51.2902 Q780.274 52.6791 776.338 52.6791 Q771.362 52.6791 768.41 49.9014 Q765.488 47.0947 765.488 42.4072 Q765.488 36.9385 769.134 34.1607 Q772.808 31.3829 780.071 31.3829 L787.536 31.3829 L787.536 30.8621 Q787.536 27.1874 785.106 25.1908 Q782.704 23.1654 778.335 23.1654 Q775.557 23.1654 772.924 23.8309 Q770.291 24.4964 767.86 25.8274 L767.86 20.9085 Q770.783 19.78 773.532 19.2302 Q776.28 18.6515 778.885 18.6515 Q785.916 18.6515 789.388 22.2973 Q792.86 25.9431 792.86 33.3505 Z" fill="#066de9" fill-rule="evenodd" fill-opacity="1" /><path clip-path="url(#clip900)" d="M825.152 24.3517 L825.152 6.81709 L830.476 6.81709 L830.476 51.84 L825.152 51.84 L825.152 46.9789 Q823.474 49.8724 820.898 51.2902 Q818.352 52.6791 814.764 52.6791 Q808.89 52.6791 805.187 47.9916 Q801.512 43.3042 801.512 35.6653 Q801.512 28.0265 805.187 23.339 Q808.89 18.6515 814.764 18.6515 Q818.352 18.6515 820.898 20.0693 Q823.474 21.4582 825.152 24.3517 M807.009 35.6653 Q807.009 41.5391 809.411 44.8956 Q811.842 48.2231 816.066 48.2231 Q820.291 48.2231 822.721 44.8956 Q825.152 41.5391 825.152 35.6653 Q825.152 29.7915 822.721 26.464 Q820.291 23.1075 816.066 23.1075 Q811.842 23.1075 809.411 26.464 Q807.009 29.7915 807.009 35.6653 Z" fill="#066de9" fill-rule="evenodd" fill-opacity="1" /><path clip-path="url(#clip900)" d="M876.685 6.81709 L876.685 11.2442 L871.592 11.2442 Q868.728 11.2442 867.599 12.4016 Q866.5 13.559 866.5 16.5682 L866.5 19.4328 L875.267 19.4328 L875.267 23.5705 L866.5 23.5705 L866.5 51.84 L861.147 51.84 L861.147 23.5705 L856.054 23.5705 L856.054 19.4328 L861.147 19.4328 L861.147 17.1758 Q861.147 11.765 863.664 9.30551 Q866.182 6.81709 871.65 6.81709 L876.685 6.81709 Z" fill="#066de9" fill-rule="evenodd" fill-opacity="1" /><path clip-path="url(#clip900)" d="M893.699 23.1654 Q889.416 23.1654 886.928 26.5218 Q884.44 29.8494 884.44 35.6653 Q884.44 41.4813 886.899 44.8377 Q889.388 48.1653 893.699 48.1653 Q897.952 48.1653 900.441 44.8088 Q902.929 41.4523 902.929 35.6653 Q902.929 29.9072 900.441 26.5508 Q897.952 23.1654 893.699 23.1654 M893.699 18.6515 Q900.643 18.6515 904.607 23.1654 Q908.571 27.6792 908.571 35.6653 Q908.571 43.6225 904.607 48.1653 Q900.643 52.6791 893.699 52.6791 Q886.725 52.6791 882.761 48.1653 Q878.826 43.6225 878.826 35.6653 Q878.826 27.6792 882.761 23.1654 Q886.725 18.6515 893.699 18.6515 Z" fill="#066de9" fill-rule="evenodd" fill-opacity="1" /><path clip-path="url(#clip900)" d="M936.175 24.4096 Q935.278 23.8888 934.208 23.6573 Q933.166 23.3969 931.893 23.3969 Q927.379 23.3969 924.949 26.3482 Q922.547 29.2707 922.547 34.7683 L922.547 51.84 L917.194 51.84 L917.194 19.4328 L922.547 19.4328 L922.547 24.4675 Q924.225 21.5161 926.916 20.0983 Q929.607 18.6515 933.456 18.6515 Q934.005 18.6515 934.671 18.7383 Q935.336 18.7962 936.147 18.9409 L936.175 24.4096 Z" fill="#066de9" fill-rule="evenodd" fill-opacity="1" /><path clip-path="url(#clip900)" d="M968.178 34.3054 L968.178 36.9095 L943.699 36.9095 Q944.046 42.4072 946.997 45.3007 Q949.977 48.1653 955.273 48.1653 Q958.34 48.1653 961.204 47.4129 Q964.098 46.6606 966.933 45.156 L966.933 50.1907 Q964.069 51.406 961.06 52.0425 Q958.05 52.6791 954.954 52.6791 Q947.2 52.6791 942.657 48.1653 Q938.143 43.6514 938.143 35.9547 Q938.143 27.9975 942.425 23.339 Q946.737 18.6515 954.028 18.6515 Q960.568 18.6515 964.358 22.876 Q968.178 27.0716 968.178 34.3054 M962.854 32.7429 Q962.796 28.3737 960.394 25.7695 Q958.021 23.1654 954.086 23.1654 Q949.63 23.1654 946.939 25.6827 Q944.277 28.2001 943.872 32.7718 L962.854 32.7429 Z" fill="#066de9" fill-rule="evenodd" fill-opacity="1" /><path clip-path="url(#clip900)" d="M1000.24 20.677 L1000.24 25.6538 Q997.981 24.4096 995.695 23.802 Q993.438 23.1654 991.123 23.1654 Q985.944 23.1654 983.079 26.464 Q980.215 29.7336 980.215 35.6653 Q980.215 41.597 983.079 44.8956 Q985.944 48.1653 991.123 48.1653 Q993.438 48.1653 995.695 47.5576 Q997.981 46.921 1000.24 45.6768 L1000.24 50.5958 Q998.01 51.6375 995.608 52.1583 Q993.235 52.6791 990.544 52.6791 Q983.224 52.6791 978.912 48.0784 Q974.601 43.4778 974.601 35.6653 Q974.601 27.7371 978.941 23.1943 Q983.311 18.6515 990.892 18.6515 Q993.351 18.6515 995.695 19.1724 Q998.039 19.6642 1000.24 20.677 Z" fill="#066de9" fill-rule="evenodd" fill-opacity="1" /><path clip-path="url(#clip900)" d="M1024.22 35.5496 Q1017.77 35.5496 1015.28 37.0253 Q1012.8 38.501 1012.8 42.06 Q1012.8 44.8956 1014.65 46.5738 Q1016.53 48.2231 1019.74 48.2231 Q1024.17 48.2231 1026.83 45.0981 Q1029.52 41.9442 1029.52 36.7359 L1029.52 35.5496 L1024.22 35.5496 M1034.84 33.3505 L1034.84 51.84 L1029.52 51.84 L1029.52 46.921 Q1027.7 49.8724 1024.98 51.2902 Q1022.26 52.6791 1018.32 52.6791 Q1013.35 52.6791 1010.39 49.9014 Q1007.47 47.0947 1007.47 42.4072 Q1007.47 36.9385 1011.12 34.1607 Q1014.79 31.3829 1022.05 31.3829 L1029.52 31.3829 L1029.52 30.8621 Q1029.52 27.1874 1027.09 25.1908 Q1024.69 23.1654 1020.32 23.1654 Q1017.54 23.1654 1014.91 23.8309 Q1012.27 24.4964 1009.84 25.8274 L1009.84 20.9085 Q1012.77 19.78 1015.52 19.2302 Q1018.26 18.6515 1020.87 18.6515 Q1027.9 18.6515 1031.37 22.2973 Q1034.84 25.9431 1034.84 33.3505 Z" fill="#066de9" fill-rule="evenodd" fill-opacity="1" /><path clip-path="url(#clip900)" d="M1066.47 20.3876 L1066.47 25.4223 Q1064.21 24.2649 1061.78 23.6862 Q1059.35 23.1075 1056.75 23.1075 Q1052.78 23.1075 1050.79 24.3228 Q1048.82 25.5381 1048.82 27.9686 Q1048.82 29.8204 1050.24 30.891 Q1051.66 31.9327 1055.94 32.8876 L1057.76 33.2926 Q1063.43 34.5079 1065.8 36.7359 Q1068.21 38.935 1068.21 42.8991 Q1068.21 47.4129 1064.62 50.046 Q1061.06 52.6791 1054.81 52.6791 Q1052.2 52.6791 1049.37 52.1583 Q1046.56 51.6664 1043.44 50.6537 L1043.44 45.156 Q1046.39 46.6896 1049.25 47.4708 Q1052.12 48.2231 1054.92 48.2231 Q1058.69 48.2231 1060.71 46.95 Q1062.74 45.6479 1062.74 43.3042 Q1062.74 41.134 1061.26 39.9766 Q1059.81 38.8192 1054.87 37.7486 L1053.02 37.3146 Q1048.07 36.273 1045.87 34.1318 Q1043.67 31.9616 1043.67 28.2001 Q1043.67 23.6283 1046.91 21.1399 Q1050.15 18.6515 1056.11 18.6515 Q1059.06 18.6515 1061.67 19.0855 Q1064.27 19.5196 1066.47 20.3876 Z" fill="#066de9" fill-rule="evenodd" fill-opacity="1" /><path clip-path="url(#clip900)" d="M1081.95 10.2314 L1081.95 19.4328 L1092.92 19.4328 L1092.92 23.5705 L1081.95 23.5705 L1081.95 41.163 Q1081.95 45.1271 1083.02 46.2555 Q1084.12 47.384 1087.45 47.384 L1092.92 47.384 L1092.92 51.84 L1087.45 51.84 Q1081.28 51.84 1078.94 49.5541 Q1076.6 47.2393 1076.6 41.163 L1076.6 23.5705 L1072.69 23.5705 L1072.69 19.4328 L1076.6 19.4328 L1076.6 10.2314 L1081.95 10.2314 Z" fill="#066de9" fill-rule="evenodd" fill-opacity="1" /><path clip-path="url(#clip900)" d="M1127.58 28.6052 Q1124.95 30.9489 1123.7 33.2926 Q1122.49 35.6074 1122.49 38.1537 Q1122.49 42.3782 1125.56 45.1849 Q1128.62 47.9916 1133.25 47.9916 Q1136 47.9916 1138.4 47.0947 Q1140.8 46.1687 1142.92 44.3169 L1127.58 28.6052 M1131.66 25.3644 L1146.36 40.4107 Q1148.07 37.8354 1149.02 34.913 Q1149.98 31.9616 1150.15 28.663 L1155.53 28.663 Q1155.18 32.4825 1153.68 36.2151 Q1152.18 39.9477 1149.48 43.5935 L1157.56 51.84 L1150.27 51.84 L1146.13 47.5866 Q1143.12 50.1618 1139.82 51.4349 Q1136.52 52.6791 1132.73 52.6791 Q1125.76 52.6791 1121.33 48.715 Q1116.9 44.722 1116.9 38.501 Q1116.9 34.7973 1118.84 31.5565 Q1120.78 28.2869 1124.66 25.4223 Q1123.27 23.5994 1122.55 21.8054 Q1121.82 19.9825 1121.82 18.2464 Q1121.82 13.559 1125.03 10.7233 Q1128.25 7.85875 1133.57 7.85875 Q1135.97 7.85875 1138.34 8.37958 Q1140.75 8.90042 1143.21 9.94208 L1143.21 15.2083 Q1140.69 13.8483 1138.4 13.1539 Q1136.12 12.4305 1134.15 12.4305 Q1131.11 12.4305 1129.2 14.0509 Q1127.32 15.6423 1127.32 18.1886 Q1127.32 19.6642 1128.16 21.1689 Q1129.03 22.6446 1131.66 25.3644 Z" fill="#066de9" fill-rule="evenodd" fill-opacity="1" /><path clip-path="url(#clip900)" d="M1184.73 50.943 L1184.73 45.619 Q1186.93 46.6606 1189.18 47.2104 Q1191.44 47.7602 1193.61 47.7602 Q1199.4 47.7602 1202.44 43.8829 Q1205.5 39.9766 1205.94 32.0484 Q1204.26 34.5369 1201.68 35.8679 Q1199.11 37.1989 1195.98 37.1989 Q1189.5 37.1989 1185.71 33.2926 Q1181.95 29.3575 1181.95 22.5577 Q1181.95 15.9027 1185.88 11.8807 Q1189.82 7.85875 1196.36 7.85875 Q1203.85 7.85875 1207.79 13.6168 Q1211.75 19.346 1211.75 30.2834 Q1211.75 40.4975 1206.89 46.6028 Q1202.06 52.6791 1193.87 52.6791 Q1191.67 52.6791 1189.41 52.2451 Q1187.16 51.8111 1184.73 50.943 M1196.36 32.6271 Q1200.29 32.6271 1202.58 29.9362 Q1204.9 27.2452 1204.9 22.5577 Q1204.9 17.8992 1202.58 15.2083 Q1200.29 12.4884 1196.36 12.4884 Q1192.42 12.4884 1190.11 15.2083 Q1187.82 17.8992 1187.82 22.5577 Q1187.82 27.2452 1190.11 29.9362 Q1192.42 32.6271 1196.36 32.6271 Z" fill="#066de9" fill-rule="evenodd" fill-opacity="1" /><path clip-path="url(#clip900)" d="M1222.43 50.943 L1222.43 45.619 Q1224.63 46.6606 1226.89 47.2104 Q1229.14 47.7602 1231.31 47.7602 Q1237.1 47.7602 1240.14 43.8829 Q1243.21 39.9766 1243.64 32.0484 Q1241.96 34.5369 1239.39 35.8679 Q1236.81 37.1989 1233.69 37.1989 Q1227.2 37.1989 1223.41 33.2926 Q1219.65 29.3575 1219.65 22.5577 Q1219.65 15.9027 1223.59 11.8807 Q1227.52 7.85875 1234.06 7.85875 Q1241.56 7.85875 1245.49 13.6168 Q1249.46 19.346 1249.46 30.2834 Q1249.46 40.4975 1244.59 46.6028 Q1239.76 52.6791 1231.57 52.6791 Q1229.37 52.6791 1227.12 52.2451 Q1224.86 51.8111 1222.43 50.943 M1234.06 32.6271 Q1238 32.6271 1240.28 29.9362 Q1242.6 27.2452 1242.6 22.5577 Q1242.6 17.8992 1240.28 15.2083 Q1238 12.4884 1234.06 12.4884 Q1230.13 12.4884 1227.81 15.2083 Q1225.53 17.8992 1225.53 22.5577 Q1225.53 27.2452 1227.81 29.9362 Q1230.13 32.6271 1234.06 32.6271 Z" fill="#066de9" fill-rule="evenodd" fill-opacity="1" /><path clip-path="url(#clip900)" d="M1259.96 44.4905 L1266.06 44.4905 L1266.06 51.84 L1259.96 51.84 L1259.96 44.4905 Z" fill="#066de9" fill-rule="evenodd" fill-opacity="1" /><path clip-path="url(#clip900)" d="M1278.97 50.943 L1278.97 45.619 Q1281.17 46.6606 1283.42 47.2104 Q1285.68 47.7602 1287.85 47.7602 Q1293.64 47.7602 1296.68 43.8829 Q1299.74 39.9766 1300.18 32.0484 Q1298.5 34.5369 1295.92 35.8679 Q1293.35 37.1989 1290.22 37.1989 Q1283.74 37.1989 1279.95 33.2926 Q1276.19 29.3575 1276.19 22.5577 Q1276.19 15.9027 1280.13 11.8807 Q1284.06 7.85875 1290.6 7.85875 Q1298.09 7.85875 1302.03 13.6168 Q1305.99 19.346 1305.99 30.2834 Q1305.99 40.4975 1301.13 46.6028 Q1296.3 52.6791 1288.11 52.6791 Q1285.91 52.6791 1283.66 52.2451 Q1281.4 51.8111 1278.97 50.943 M1290.6 32.6271 Q1294.54 32.6271 1296.82 29.9362 Q1299.14 27.2452 1299.14 22.5577 Q1299.14 17.8992 1296.82 15.2083 Q1294.54 12.4884 1290.6 12.4884 Q1286.67 12.4884 1284.35 15.2083 Q1282.06 17.8992 1282.06 22.5577 Q1282.06 27.2452 1284.35 29.9362 Q1286.67 32.6271 1290.6 32.6271 Z" fill="#066de9" fill-rule="evenodd" fill-opacity="1" /><path clip-path="url(#clip900)" d="M1316.67 50.943 L1316.67 45.619 Q1318.87 46.6606 1321.13 47.2104 Q1323.38 47.7602 1325.55 47.7602 Q1331.34 47.7602 1334.38 43.8829 Q1337.45 39.9766 1337.88 32.0484 Q1336.2 34.5369 1333.63 35.8679 Q1331.05 37.1989 1327.93 37.1989 Q1321.45 37.1989 1317.65 33.2926 Q1313.89 29.3575 1313.89 22.5577 Q1313.89 15.9027 1317.83 11.8807 Q1321.76 7.85875 1328.3 7.85875 Q1335.8 7.85875 1339.73 13.6168 Q1343.7 19.346 1343.7 30.2834 Q1343.7 40.4975 1338.84 46.6028 Q1334 52.6791 1325.81 52.6791 Q1323.62 52.6791 1321.36 52.2451 Q1319.1 51.8111 1316.67 50.943 M1328.3 32.6271 Q1332.24 32.6271 1334.52 29.9362 Q1336.84 27.2452 1336.84 22.5577 Q1336.84 17.8992 1334.52 15.2083 Q1332.24 12.4884 1328.3 12.4884 Q1324.37 12.4884 1322.05 15.2083 Q1319.77 17.8992 1319.77 22.5577 Q1319.77 27.2452 1322.05 29.9362 Q1324.37 32.6271 1328.3 32.6271 Z" fill="#066de9" fill-rule="evenodd" fill-opacity="1" /><path clip-path="url(#clip900)" d="M1354.37 50.943 L1354.37 45.619 Q1356.57 46.6606 1358.83 47.2104 Q1361.09 47.7602 1363.26 47.7602 Q1369.04 47.7602 1372.08 43.8829 Q1375.15 39.9766 1375.58 32.0484 Q1373.9 34.5369 1371.33 35.8679 Q1368.75 37.1989 1365.63 37.1989 Q1359.15 37.1989 1355.36 33.2926 Q1351.6 29.3575 1351.6 22.5577 Q1351.6 15.9027 1355.53 11.8807 Q1359.47 7.85875 1366.01 7.85875 Q1373.5 7.85875 1377.43 13.6168 Q1381.4 19.346 1381.4 30.2834 Q1381.4 40.4975 1376.54 46.6028 Q1371.71 52.6791 1363.52 52.6791 Q1361.32 52.6791 1359.06 52.2451 Q1356.8 51.8111 1354.37 50.943 M1366.01 32.6271 Q1369.94 32.6271 1372.23 29.9362 Q1374.54 27.2452 1374.54 22.5577 Q1374.54 17.8992 1372.23 15.2083 Q1369.94 12.4884 1366.01 12.4884 Q1362.07 12.4884 1359.76 15.2083 Q1357.47 17.8992 1357.47 22.5577 Q1357.47 27.2452 1359.76 29.9362 Q1362.07 32.6271 1366.01 32.6271 Z" fill="#066de9" fill-rule="evenodd" fill-opacity="1" /><path clip-path="url(#clip900)" d="M1392.08 50.943 L1392.08 45.619 Q1394.27 46.6606 1396.53 47.2104 Q1398.79 47.7602 1400.96 47.7602 Q1406.75 47.7602 1409.78 43.8829 Q1412.85 39.9766 1413.29 32.0484 Q1411.61 34.5369 1409.03 35.8679 Q1406.46 37.1989 1403.33 37.1989 Q1396.85 37.1989 1393.06 33.2926 Q1389.3 29.3575 1389.3 22.5577 Q1389.3 15.9027 1393.23 11.8807 Q1397.17 7.85875 1403.71 7.85875 Q1411.2 7.85875 1415.14 13.6168 Q1419.1 19.346 1419.1 30.2834 Q1419.1 40.4975 1414.24 46.6028 Q1409.41 52.6791 1401.22 52.6791 Q1399.02 52.6791 1396.76 52.2451 Q1394.51 51.8111 1392.08 50.943 M1403.71 32.6271 Q1407.64 32.6271 1409.93 29.9362 Q1412.24 27.2452 1412.24 22.5577 Q1412.24 17.8992 1409.93 15.2083 Q1407.64 12.4884 1403.71 12.4884 Q1399.77 12.4884 1397.46 15.2083 Q1395.17 17.8992 1395.17 22.5577 Q1395.17 27.2452 1397.46 29.9362 Q1399.77 32.6271 1403.71 32.6271 Z" fill="#066de9" fill-rule="evenodd" fill-opacity="1" /><path clip-path="url(#clip900)" d="M1429.78 50.943 L1429.78 45.619 Q1431.98 46.6606 1434.23 47.2104 Q1436.49 47.7602 1438.66 47.7602 Q1444.45 47.7602 1447.49 43.8829 Q1450.55 39.9766 1450.99 32.0484 Q1449.31 34.5369 1446.73 35.8679 Q1444.16 37.1989 1441.03 37.1989 Q1434.55 37.1989 1430.76 33.2926 Q1427 29.3575 1427 22.5577 Q1427 15.9027 1430.94 11.8807 Q1434.87 7.85875 1441.41 7.85875 Q1448.9 7.85875 1452.84 13.6168 Q1456.8 19.346 1456.8 30.2834 Q1456.8 40.4975 1451.94 46.6028 Q1447.11 52.6791 1438.92 52.6791 Q1436.72 52.6791 1434.47 52.2451 Q1432.21 51.8111 1429.78 50.943 M1441.41 32.6271 Q1445.35 32.6271 1447.63 29.9362 Q1449.95 27.2452 1449.95 22.5577 Q1449.95 17.8992 1447.63 15.2083 Q1445.35 12.4884 1441.41 12.4884 Q1437.47 12.4884 1435.16 15.2083 Q1432.87 17.8992 1432.87 22.5577 Q1432.87 27.2452 1435.16 29.9362 Q1437.47 32.6271 1441.41 32.6271 Z" fill="#066de9" fill-rule="evenodd" fill-opacity="1" /><path clip-path="url(#clip900)" d="M1504.05 32.8297 Q1501.54 32.8297 1500.09 34.9709 Q1498.67 37.1121 1498.67 40.9315 Q1498.67 44.693 1500.09 46.8632 Q1501.54 49.0044 1504.05 49.0044 Q1506.51 49.0044 1507.93 46.8632 Q1509.38 44.693 1509.38 40.9315 Q1509.38 37.141 1507.93 34.9998 Q1506.51 32.8297 1504.05 32.8297 M1504.05 29.1549 Q1508.63 29.1549 1511.32 32.3378 Q1514.01 35.5206 1514.01 40.9315 Q1514.01 46.3423 1511.29 49.5252 Q1508.6 52.6791 1504.05 52.6791 Q1499.42 52.6791 1496.73 49.5252 Q1494.04 46.3423 1494.04 40.9315 Q1494.04 35.4917 1496.73 32.3378 Q1499.45 29.1549 1504.05 29.1549 M1474.19 11.5335 Q1471.7 11.5335 1470.26 13.7036 Q1468.84 15.8448 1468.84 19.6064 Q1468.84 23.4258 1470.26 25.567 Q1471.68 27.7082 1474.19 27.7082 Q1476.71 27.7082 1478.13 25.567 Q1479.58 23.4258 1479.58 19.6064 Q1479.58 15.8738 1478.13 13.7036 Q1476.68 11.5335 1474.19 11.5335 M1500.32 7.85875 L1504.95 7.85875 L1477.93 52.6791 L1473.3 52.6791 L1500.32 7.85875 M1474.19 7.85875 Q1478.77 7.85875 1481.49 11.0416 Q1484.2 14.1955 1484.2 19.6064 Q1484.2 25.0751 1481.49 28.229 Q1478.79 31.3829 1474.19 31.3829 Q1469.59 31.3829 1466.9 28.229 Q1464.24 25.0462 1464.24 19.6064 Q1464.24 14.2245 1466.93 11.0416 Q1469.62 7.85875 1474.19 7.85875 Z" fill="#066de9" fill-rule="evenodd" fill-opacity="1" /><path clip-path="url(#clip900)" d="M1558.1 6.81709 L1558.1 11.2442 L1553.01 11.2442 Q1550.15 11.2442 1549.02 12.4016 Q1547.92 13.559 1547.92 16.5682 L1547.92 19.4328 L1556.69 19.4328 L1556.69 23.5705 L1547.92 23.5705 L1547.92 51.84 L1542.57 51.84 L1542.57 23.5705 L1537.47 23.5705 L1537.47 19.4328 L1542.57 19.4328 L1542.57 17.1758 Q1542.57 11.765 1545.08 9.30551 Q1547.6 6.81709 1553.07 6.81709 L1558.1 6.81709 Z" fill="#066de9" fill-rule="evenodd" fill-opacity="1" /><path clip-path="url(#clip900)" d="M1575.12 23.1654 Q1570.84 23.1654 1568.35 26.5218 Q1565.86 29.8494 1565.86 35.6653 Q1565.86 41.4813 1568.32 44.8377 Q1570.81 48.1653 1575.12 48.1653 Q1579.37 48.1653 1581.86 44.8088 Q1584.35 41.4523 1584.35 35.6653 Q1584.35 29.9072 1581.86 26.5508 Q1579.37 23.1654 1575.12 23.1654 M1575.12 18.6515 Q1582.06 18.6515 1586.03 23.1654 Q1589.99 27.6792 1589.99 35.6653 Q1589.99 43.6225 1586.03 48.1653 Q1582.06 52.6791 1575.12 52.6791 Q1568.15 52.6791 1564.18 48.1653 Q1560.25 43.6225 1560.25 35.6653 Q1560.25 27.6792 1564.18 23.1654 Q1568.15 18.6515 1575.12 18.6515 Z" fill="#066de9" fill-rule="evenodd" fill-opacity="1" /><path clip-path="url(#clip900)" d="M1617.6 24.4096 Q1616.7 23.8888 1615.63 23.6573 Q1614.59 23.3969 1613.31 23.3969 Q1608.8 23.3969 1606.37 26.3482 Q1603.97 29.2707 1603.97 34.7683 L1603.97 51.84 L1598.61 51.84 L1598.61 19.4328 L1603.97 19.4328 L1603.97 24.4675 Q1605.65 21.5161 1608.34 20.0983 Q1611.03 18.6515 1614.88 18.6515 Q1615.43 18.6515 1616.09 18.7383 Q1616.76 18.7962 1617.57 18.9409 L1617.6 24.4096 Z" fill="#066de9" fill-rule="evenodd" fill-opacity="1" /><path clip-path="url(#clip900)" d="M1649.6 34.3054 L1649.6 36.9095 L1625.12 36.9095 Q1625.47 42.4072 1628.42 45.3007 Q1631.4 48.1653 1636.69 48.1653 Q1639.76 48.1653 1642.62 47.4129 Q1645.52 46.6606 1648.35 45.156 L1648.35 50.1907 Q1645.49 51.406 1642.48 52.0425 Q1639.47 52.6791 1636.37 52.6791 Q1628.62 52.6791 1624.08 48.1653 Q1619.56 43.6514 1619.56 35.9547 Q1619.56 27.9975 1623.85 23.339 Q1628.16 18.6515 1635.45 18.6515 Q1641.99 18.6515 1645.78 22.876 Q1649.6 27.0716 1649.6 34.3054 M1644.27 32.7429 Q1644.22 28.3737 1641.81 25.7695 Q1639.44 23.1654 1635.51 23.1654 Q1631.05 23.1654 1628.36 25.6827 Q1625.7 28.2001 1625.29 32.7718 L1644.27 32.7429 Z" fill="#066de9" fill-rule="evenodd" fill-opacity="1" /><path clip-path="url(#clip900)" d="M1681.66 20.677 L1681.66 25.6538 Q1679.4 24.4096 1677.11 23.802 Q1674.86 23.1654 1672.54 23.1654 Q1667.36 23.1654 1664.5 26.464 Q1661.63 29.7336 1661.63 35.6653 Q1661.63 41.597 1664.5 44.8956 Q1667.36 48.1653 1672.54 48.1653 Q1674.86 48.1653 1677.11 47.5576 Q1679.4 46.921 1681.66 45.6768 L1681.66 50.5958 Q1679.43 51.6375 1677.03 52.1583 Q1674.66 52.6791 1671.96 52.6791 Q1664.64 52.6791 1660.33 48.0784 Q1656.02 43.4778 1656.02 35.6653 Q1656.02 27.7371 1660.36 23.1943 Q1664.73 18.6515 1672.31 18.6515 Q1674.77 18.6515 1677.11 19.1724 Q1679.46 19.6642 1681.66 20.677 Z" fill="#066de9" fill-rule="evenodd" fill-opacity="1" /><path clip-path="url(#clip900)" d="M1705.64 35.5496 Q1699.19 35.5496 1696.7 37.0253 Q1694.22 38.501 1694.22 42.06 Q1694.22 44.8956 1696.07 46.5738 Q1697.95 48.2231 1701.16 48.2231 Q1705.59 48.2231 1708.25 45.0981 Q1710.94 41.9442 1710.94 36.7359 L1710.94 35.5496 L1705.64 35.5496 M1716.26 33.3505 L1716.26 51.84 L1710.94 51.84 L1710.94 46.921 Q1709.12 49.8724 1706.4 51.2902 Q1703.68 52.6791 1699.74 52.6791 Q1694.77 52.6791 1691.81 49.9014 Q1688.89 47.0947 1688.89 42.4072 Q1688.89 36.9385 1692.54 34.1607 Q1696.21 31.3829 1703.47 31.3829 L1710.94 31.3829 L1710.94 30.8621 Q1710.94 27.1874 1708.51 25.1908 Q1706.11 23.1654 1701.74 23.1654 Q1698.96 23.1654 1696.33 23.8309 Q1693.69 24.4964 1691.26 25.8274 L1691.26 20.9085 Q1694.19 19.78 1696.94 19.2302 Q1699.68 18.6515 1702.29 18.6515 Q1709.32 18.6515 1712.79 22.2973 Q1716.26 25.9431 1716.26 33.3505 Z" fill="#066de9" fill-rule="evenodd" fill-opacity="1" /><path clip-path="url(#clip900)" d="M1747.89 20.3876 L1747.89 25.4223 Q1745.63 24.2649 1743.2 23.6862 Q1740.77 23.1075 1738.17 23.1075 Q1734.2 23.1075 1732.21 24.3228 Q1730.24 25.5381 1730.24 27.9686 Q1730.24 29.8204 1731.66 30.891 Q1733.08 31.9327 1737.36 32.8876 L1739.18 33.2926 Q1744.85 34.5079 1747.22 36.7359 Q1749.63 38.935 1749.63 42.8991 Q1749.63 47.4129 1746.04 50.046 Q1742.48 52.6791 1736.23 52.6791 Q1733.62 52.6791 1730.79 52.1583 Q1727.98 51.6664 1724.86 50.6537 L1724.86 45.156 Q1727.81 46.6896 1730.67 47.4708 Q1733.54 48.2231 1736.34 48.2231 Q1740.11 48.2231 1742.13 46.95 Q1744.16 45.6479 1744.16 43.3042 Q1744.16 41.134 1742.68 39.9766 Q1741.23 38.8192 1736.29 37.7486 L1734.44 37.3146 Q1729.49 36.273 1727.29 34.1318 Q1725.09 31.9616 1725.09 28.2001 Q1725.09 23.6283 1728.33 21.1399 Q1731.57 18.6515 1737.53 18.6515 Q1740.48 18.6515 1743.09 19.0855 Q1745.69 19.5196 1747.89 20.3876 Z" fill="#066de9" fill-rule="evenodd" fill-opacity="1" /><path clip-path="url(#clip900)" d="M1763.37 10.2314 L1763.37 19.4328 L1774.34 19.4328 L1774.34 23.5705 L1763.37 23.5705 L1763.37 41.163 Q1763.37 45.1271 1764.44 46.2555 Q1765.54 47.384 1768.87 47.384 L1774.34 47.384 L1774.34 51.84 L1768.87 51.84 Q1762.7 51.84 1760.36 49.5541 Q1758.02 47.2393 1758.02 41.163 L1758.02 23.5705 L1754.11 23.5705 L1754.11 19.4328 L1758.02 19.4328 L1758.02 10.2314 L1763.37 10.2314 Z" fill="#066de9" fill-rule="evenodd" fill-opacity="1" /><path clip-path="url(#clip900)" d="M1800.18 19.4328 L1805.5 19.4328 L1805.5 51.84 L1800.18 51.84 L1800.18 19.4328 M1800.18 6.81709 L1805.5 6.81709 L1805.5 13.559 L1800.18 13.559 L1800.18 6.81709 Z" fill="#066de9" fill-rule="evenodd" fill-opacity="1" /><path clip-path="url(#clip900)" d="M1843.58 32.2799 L1843.58 51.84 L1838.25 51.84 L1838.25 32.4535 Q1838.25 27.8529 1836.46 25.567 Q1834.67 23.2811 1831.08 23.2811 Q1826.77 23.2811 1824.28 26.03 Q1821.79 28.7788 1821.79 33.5241 L1821.79 51.84 L1816.44 51.84 L1816.44 19.4328 L1821.79 19.4328 L1821.79 24.4675 Q1823.7 21.545 1826.27 20.0983 Q1828.88 18.6515 1832.26 18.6515 Q1837.85 18.6515 1840.71 22.1237 Q1843.58 25.567 1843.58 32.2799 Z" fill="#066de9" fill-rule="evenodd" fill-opacity="1" /><path clip-path="url(#clip900)" d="M1859.46 10.2314 L1859.46 19.4328 L1870.43 19.4328 L1870.43 23.5705 L1859.46 23.5705 L1859.46 41.163 Q1859.46 45.1271 1860.53 46.2555 Q1861.63 47.384 1864.96 47.384 L1870.43 47.384 L1870.43 51.84 L1864.96 51.84 Q1858.8 51.84 1856.45 49.5541 Q1854.11 47.2393 1854.11 41.163 L1854.11 23.5705 L1850.2 23.5705 L1850.2 19.4328 L1854.11 19.4328 L1854.11 10.2314 L1859.46 10.2314 Z" fill="#066de9" fill-rule="evenodd" fill-opacity="1" /><path clip-path="url(#clip900)" d="M1905.15 34.3054 L1905.15 36.9095 L1880.67 36.9095 Q1881.02 42.4072 1883.97 45.3007 Q1886.95 48.1653 1892.25 48.1653 Q1895.31 48.1653 1898.18 47.4129 Q1901.07 46.6606 1903.91 45.156 L1903.91 50.1907 Q1901.04 51.406 1898.03 52.0425 Q1895.02 52.6791 1891.93 52.6791 Q1884.17 52.6791 1879.63 48.1653 Q1875.12 43.6514 1875.12 35.9547 Q1875.12 27.9975 1879.4 23.339 Q1883.71 18.6515 1891 18.6515 Q1897.54 18.6515 1901.33 22.876 Q1905.15 27.0716 1905.15 34.3054 M1899.83 32.7429 Q1899.77 28.3737 1897.37 25.7695 Q1895 23.1654 1891.06 23.1654 Q1886.6 23.1654 1883.91 25.6827 Q1881.25 28.2001 1880.85 32.7718 L1899.83 32.7429 Z" fill="#066de9" fill-rule="evenodd" fill-opacity="1" /><path clip-path="url(#clip900)" d="M1932.67 24.4096 Q1931.77 23.8888 1930.7 23.6573 Q1929.66 23.3969 1928.39 23.3969 Q1923.87 23.3969 1921.44 26.3482 Q1919.04 29.2707 1919.04 34.7683 L1919.04 51.84 L1913.69 51.84 L1913.69 19.4328 L1919.04 19.4328 L1919.04 24.4675 Q1920.72 21.5161 1923.41 20.0983 Q1926.1 18.6515 1929.95 18.6515 Q1930.5 18.6515 1931.16 18.7383 Q1931.83 18.7962 1932.64 18.9409 L1932.67 24.4096 Z" fill="#066de9" fill-rule="evenodd" fill-opacity="1" /><path clip-path="url(#clip900)" d="M1934.43 19.4328 L1940.08 19.4328 L1950.2 46.6317 L1960.33 19.4328 L1965.97 19.4328 L1953.82 51.84 L1946.59 51.84 L1934.43 19.4328 Z" fill="#066de9" fill-rule="evenodd" fill-opacity="1" /><path clip-path="url(#clip900)" d="M1988.05 35.5496 Q1981.6 35.5496 1979.11 37.0253 Q1976.62 38.501 1976.62 42.06 Q1976.62 44.8956 1978.47 46.5738 Q1980.35 48.2231 1983.57 48.2231 Q1987.99 48.2231 1990.65 45.0981 Q1993.35 41.9442 1993.35 36.7359 L1993.35 35.5496 L1988.05 35.5496 M1998.67 33.3505 L1998.67 51.84 L1993.35 51.84 L1993.35 46.921 Q1991.52 49.8724 1988.8 51.2902 Q1986.08 52.6791 1982.15 52.6791 Q1977.17 52.6791 1974.22 49.9014 Q1971.3 47.0947 1971.3 42.4072 Q1971.3 36.9385 1974.94 34.1607 Q1978.62 31.3829 1985.88 31.3829 L1993.35 31.3829 L1993.35 30.8621 Q1993.35 27.1874 1990.92 25.1908 Q1988.51 23.1654 1984.14 23.1654 Q1981.37 23.1654 1978.73 23.8309 Q1976.1 24.4964 1973.67 25.8274 L1973.67 20.9085 Q1976.59 19.78 1979.34 19.2302 Q1982.09 18.6515 1984.69 18.6515 Q1991.73 18.6515 1995.2 22.2973 Q1998.67 25.9431 1998.67 33.3505 Z" fill="#066de9" fill-rule="evenodd" fill-opacity="1" /><path clip-path="url(#clip900)" d="M2009.64 6.81709 L2014.96 6.81709 L2014.96 51.84 L2009.64 51.84 L2009.64 6.81709 Z" fill="#066de9" fill-rule="evenodd" fill-opacity="1" /><path clip-path="url(#clip900)" d="M2057.73 6.87496 Q2053.85 13.53 2051.97 20.0404 Q2050.09 26.5508 2050.09 33.2348 Q2050.09 39.9188 2051.97 46.487 Q2053.88 53.0263 2057.73 59.6525 L2053.1 59.6525 Q2048.76 52.8527 2046.59 46.2845 Q2044.44 39.7162 2044.44 33.2348 Q2044.44 26.7823 2046.59 20.2429 Q2048.73 13.7036 2053.1 6.87496 L2057.73 6.87496 Z" fill="#066de9" fill-rule="evenodd" fill-opacity="1" /><path clip-path="url(#clip900)" d="M2080.61 23.1654 Q2076.33 23.1654 2073.84 26.5218 Q2071.35 29.8494 2071.35 35.6653 Q2071.35 41.4813 2073.81 44.8377 Q2076.3 48.1653 2080.61 48.1653 Q2084.87 48.1653 2087.36 44.8088 Q2089.84 41.4523 2089.84 35.6653 Q2089.84 29.9072 2087.36 26.5508 Q2084.87 23.1654 2080.61 23.1654 M2080.61 18.6515 Q2087.56 18.6515 2091.52 23.1654 Q2095.49 27.6792 2095.49 35.6653 Q2095.49 43.6225 2091.52 48.1653 Q2087.56 52.6791 2080.61 52.6791 Q2073.64 52.6791 2069.68 48.1653 Q2065.74 43.6225 2065.74 35.6653 Q2065.74 27.6792 2069.68 23.1654 Q2073.64 18.6515 2080.61 18.6515 Z" fill="#066de9" fill-rule="evenodd" fill-opacity="1" /><path clip-path="url(#clip900)" d="M2123.09 24.4096 Q2122.19 23.8888 2121.12 23.6573 Q2120.08 23.3969 2118.81 23.3969 Q2114.29 23.3969 2111.86 26.3482 Q2109.46 29.2707 2109.46 34.7683 L2109.46 51.84 L2104.11 51.84 L2104.11 19.4328 L2109.46 19.4328 L2109.46 24.4675 Q2111.14 21.5161 2113.83 20.0983 Q2116.52 18.6515 2120.37 18.6515 Q2120.92 18.6515 2121.59 18.7383 Q2122.25 18.7962 2123.06 18.9409 L2123.09 24.4096 Z" fill="#066de9" fill-rule="evenodd" fill-opacity="1" /><path clip-path="url(#clip900)" d="M2143.4 35.5496 Q2136.95 35.5496 2134.46 37.0253 Q2131.97 38.501 2131.97 42.06 Q2131.97 44.8956 2133.83 46.5738 Q2135.71 48.2231 2138.92 48.2231 Q2143.34 48.2231 2146.01 45.0981 Q2148.7 41.9442 2148.7 36.7359 L2148.7 35.5496 L2143.4 35.5496 M2154.02 33.3505 L2154.02 51.84 L2148.7 51.84 L2148.7 46.921 Q2146.87 49.8724 2144.16 51.2902 Q2141.44 52.6791 2137.5 52.6791 Q2132.52 52.6791 2129.57 49.9014 Q2126.65 47.0947 2126.65 42.4072 Q2126.65 36.9385 2130.3 34.1607 Q2133.97 31.3829 2141.23 31.3829 L2148.7 31.3829 L2148.7 30.8621 Q2148.7 27.1874 2146.27 25.1908 Q2143.87 23.1654 2139.5 23.1654 Q2136.72 23.1654 2134.09 23.8309 Q2131.45 24.4964 2129.02 25.8274 L2129.02 20.9085 Q2131.94 19.78 2134.69 19.2302 Q2137.44 18.6515 2140.05 18.6515 Q2147.08 18.6515 2150.55 22.2973 Q2154.02 25.9431 2154.02 33.3505 Z" fill="#066de9" fill-rule="evenodd" fill-opacity="1" /><path clip-path="url(#clip900)" d="M2191.93 32.2799 L2191.93 51.84 L2186.6 51.84 L2186.6 32.4535 Q2186.6 27.8529 2184.81 25.567 Q2183.01 23.2811 2179.43 23.2811 Q2175.12 23.2811 2172.63 26.03 Q2170.14 28.7788 2170.14 33.5241 L2170.14 51.84 L2164.79 51.84 L2164.79 19.4328 L2170.14 19.4328 L2170.14 24.4675 Q2172.05 21.545 2174.62 20.0983 Q2177.23 18.6515 2180.61 18.6515 Q2186.2 18.6515 2189.06 22.1237 Q2191.93 25.567 2191.93 32.2799 Z" fill="#066de9" fill-rule="evenodd" fill-opacity="1" /><path clip-path="url(#clip900)" d="M2223.87 35.2602 Q2223.87 29.4732 2221.47 26.2904 Q2219.1 23.1075 2214.79 23.1075 Q2210.5 23.1075 2208.1 26.2904 Q2205.73 29.4732 2205.73 35.2602 Q2205.73 41.0183 2208.1 44.2012 Q2210.5 47.384 2214.79 47.384 Q2219.1 47.384 2221.47 44.2012 Q2223.87 41.0183 2223.87 35.2602 M2229.2 47.818 Q2229.2 56.0934 2225.52 60.1154 Q2221.85 64.1663 2214.26 64.1663 Q2211.46 64.1663 2208.97 63.7323 Q2206.48 63.3272 2204.14 62.4592 L2204.14 57.2798 Q2206.48 58.5529 2208.77 59.1606 Q2211.05 59.7682 2213.43 59.7682 Q2218.66 59.7682 2221.27 57.0194 Q2223.87 54.2995 2223.87 48.7729 L2223.87 46.1398 Q2222.22 49.0044 2219.65 50.4222 Q2217.07 51.84 2213.48 51.84 Q2207.52 51.84 2203.88 47.2972 Q2200.23 42.7544 2200.23 35.2602 Q2200.23 27.7371 2203.88 23.1943 Q2207.52 18.6515 2213.48 18.6515 Q2217.07 18.6515 2219.65 20.0693 Q2222.22 21.4872 2223.87 24.3517 L2223.87 19.4328 L2229.2 19.4328 L2229.2 47.818 Z" fill="#066de9" fill-rule="evenodd" fill-opacity="1" /><path clip-path="url(#clip900)" d="M2267.88 34.3054 L2267.88 36.9095 L2243.4 36.9095 Q2243.75 42.4072 2246.7 45.3007 Q2249.68 48.1653 2254.98 48.1653 Q2258.04 48.1653 2260.91 47.4129 Q2263.8 46.6606 2266.64 45.156 L2266.64 50.1907 Q2263.77 51.406 2260.76 52.0425 Q2257.75 52.6791 2254.66 52.6791 Q2246.9 52.6791 2242.36 48.1653 Q2237.85 43.6514 2237.85 35.9547 Q2237.85 27.9975 2242.13 23.339 Q2246.44 18.6515 2253.73 18.6515 Q2260.27 18.6515 2264.06 22.876 Q2267.88 27.0716 2267.88 34.3054 M2262.56 32.7429 Q2262.5 28.3737 2260.1 25.7695 Q2257.73 23.1654 2253.79 23.1654 Q2249.33 23.1654 2246.64 25.6827 Q2243.98 28.2001 2243.58 32.7718 L2262.56 32.7429 Z" fill="#066de9" fill-rule="evenodd" fill-opacity="1" /><path clip-path="url(#clip900)" d="M2275.78 6.87496 L2280.41 6.87496 Q2284.75 13.7036 2286.89 20.2429 Q2289.06 26.7823 2289.06 33.2348 Q2289.06 39.7162 2286.89 46.2845 Q2284.75 52.8527 2280.41 59.6525 L2275.78 59.6525 Q2279.63 53.0263 2281.51 46.487 Q2283.42 39.9188 2283.42 33.2348 Q2283.42 26.5508 2281.51 20.0404 Q2279.63 13.53 2275.78 6.87496 Z" fill="#066de9" fill-rule="evenodd" fill-opacity="1" /><polyline clip-path="url(#clip902)" style="stroke:#068de9; stroke-linecap:round; stroke-linejoin:round; stroke-width:4; stroke-opacity:1; fill:none" points="
  357.311,1446.74 396.058,1444.05 434.804,1447.38 473.551,1435.58 512.297,1425.93 551.044,1423.56 589.79,1417.59 628.537,1411.65 667.283,1402.82 706.03,1392.49 
  744.776,1392.37 783.523,1391.71 822.269,1389.47 861.016,1385.21 899.762,1378.62 938.509,1371.67 977.255,1363.61 1016,1354.94 1054.75,1347.7 1093.49,1343.97 
  1132.24,1337.73 1170.99,1312.08 1209.73,1307.85 1248.48,1310.42 1287.23,1296.98 1325.97,1286.21 1364.72,1273.57 1403.47,1263.81 1442.21,1262.25 1480.96,1249.04 
  1519.71,1232.55 1558.45,1232.32 1597.2,1236.17 1635.95,1228.76 1674.69,1191.98 1713.44,1177.32 1752.19,1158.29 1790.93,1133.43 1829.68,1130.19 1868.42,1120.34 
  1907.17,1048.99 1945.92,1017.37 1984.66,994.167 2023.41,965.036 2062.16,932.127 2100.9,887.503 2139.65,843.967 2178.4,793.154 2217.14,740.564 2255.89,690.466 
  2294.64,1155.61 
  "/>
<path clip-path="url(#clip902)" d="
M2255.89 690.466 L2294.64 1135.16 L2294.64 145.256 L2255.89 690.466  Z
  " fill="#ffa500" fill-rule="evenodd" fill-opacity="0.5"/>
<polyline clip-path="url(#clip902)" style="stroke:#ffa500; stroke-linecap:round; stroke-linejoin:round; stroke-width:4; stroke-opacity:1; fill:none" points="
  2255.89,690.466 2294.64,640.21 
  "/>
</svg>
