<?xml version="1.0" encoding="utf-8"?>
<svg xmlns="http://www.w3.org/2000/svg" xmlns:xlink="http://www.w3.org/1999/xlink" width="600" height="400" viewBox="0 0 2400 1600">
<defs>
  <clipPath id="clip420">
    <rect x="0" y="0" width="2400" height="1600"/>
  </clipPath>
</defs>


<polyline clip-path="url(#clip422)" style="stroke:#068de9; stroke-linecap:round; stroke-linejoin:round; stroke-width:2; stroke-opacity:0.3; fill:none" points="
  385.495,1486.45 385.495,106.192 
  "/>
<polyline clip-path="url(#clip422)" style="stroke:#068de9; stroke-linecap:round; stroke-linejoin:round; stroke-width:2; stroke-opacity:0.3; fill:none" points="
  767.487,1486.45 767.487,106.192 
  "/>
<polyline clip-path="url(#clip422)" style="stroke:#068de9; stroke-linecap:round; stroke-linejoin:round; stroke-width:2; stroke-opacity:0.3; fill:none" points="
  1149.48,1486.45 1149.48,106.192 
  "/>
<polyline clip-path="url(#clip422)" style="stroke:#068de9; stroke-linecap:round; stroke-linejoin:round; stroke-width:2; stroke-opacity:0.3; fill:none" points="
  1531.47,1486.45 1531.47,106.192 
  "/>
<polyline clip-path="url(#clip422)" style="stroke:#068de9; stroke-linecap:round; stroke-linejoin:round; stroke-width:2; stroke-opacity:0.3; fill:none" points="
  1913.46,1486.45 1913.46,106.192 
  "/>
<polyline clip-path="url(#clip422)" style="stroke:#068de9; stroke-linecap:round; stroke-linejoin:round; stroke-width:2; stroke-opacity:0.3; fill:none" points="
  2295.46,1486.45 2295.46,106.192 
  "/>





<path clip-path="url(#clip420)" d="M330.021 1544.91 L337.659 1544.91 L337.659 1518.55 L329.349 1520.21 L329.349 1515.95 L337.613 1514.29 L342.289 1514.29 L342.289 1544.91 L349.928 1544.91 L349.928 1548.85 L330.021 1548.85 L330.021 1544.91 Z" fill="#068de9" fill-rule="evenodd" fill-opacity="1" /><path clip-path="url(#clip420)" d="M359.511 1548.13 L359.511 1543.87 Q361.27 1544.7 363.076 1545.14 Q364.882 1545.58 366.618 1545.58 Q371.247 1545.58 373.678 1542.48 Q376.131 1539.36 376.479 1533.01 Q375.136 1535.01 373.076 1536.07 Q371.016 1537.13 368.516 1537.13 Q363.331 1537.13 360.298 1534.01 Q357.289 1530.86 357.289 1525.42 Q357.289 1520.1 360.437 1516.88 Q363.585 1513.66 368.817 1513.66 Q374.812 1513.66 377.96 1518.27 Q381.131 1522.85 381.131 1531.6 Q381.131 1539.77 377.243 1544.66 Q373.377 1549.52 366.826 1549.52 Q365.067 1549.52 363.261 1549.17 Q361.456 1548.82 359.511 1548.13 M368.817 1533.48 Q371.965 1533.48 373.794 1531.32 Q375.645 1529.17 375.645 1525.42 Q375.645 1521.7 373.794 1519.54 Q371.965 1517.37 368.817 1517.37 Q365.669 1517.37 363.817 1519.54 Q361.988 1521.7 361.988 1525.42 Q361.988 1529.17 363.817 1531.32 Q365.669 1533.48 368.817 1533.48 Z" fill="#068de9" fill-rule="evenodd" fill-opacity="1" /><path clip-path="url(#clip420)" d="M388.354 1514.29 L410.576 1514.29 L410.576 1516.28 L398.03 1548.85 L393.145 1548.85 L404.951 1518.22 L388.354 1518.22 L388.354 1514.29 Z" fill="#068de9" fill-rule="evenodd" fill-opacity="1" /><path clip-path="url(#clip420)" d="M429.696 1517.37 Q426.085 1517.37 424.256 1520.93 Q422.451 1524.47 422.451 1531.6 Q422.451 1538.71 424.256 1542.27 Q426.085 1545.82 429.696 1545.82 Q433.33 1545.82 435.136 1542.27 Q436.964 1538.71 436.964 1531.6 Q436.964 1524.47 435.136 1520.93 Q433.33 1517.37 429.696 1517.37 M429.696 1513.66 Q435.506 1513.66 438.562 1518.27 Q441.64 1522.85 441.64 1531.6 Q441.64 1540.33 438.562 1544.94 Q435.506 1549.52 429.696 1549.52 Q423.886 1549.52 420.807 1544.94 Q417.752 1540.33 417.752 1531.6 Q417.752 1522.85 420.807 1518.27 Q423.886 1513.66 429.696 1513.66 Z" fill="#068de9" fill-rule="evenodd" fill-opacity="1" /><path clip-path="url(#clip420)" d="M712.013 1544.91 L719.652 1544.91 L719.652 1518.55 L711.342 1520.21 L711.342 1515.95 L719.606 1514.29 L724.282 1514.29 L724.282 1544.91 L731.92 1544.91 L731.92 1548.85 L712.013 1548.85 L712.013 1544.91 Z" fill="#068de9" fill-rule="evenodd" fill-opacity="1" /><path clip-path="url(#clip420)" d="M741.504 1548.13 L741.504 1543.87 Q743.263 1544.7 745.068 1545.14 Q746.874 1545.58 748.61 1545.58 Q753.24 1545.58 755.67 1542.48 Q758.124 1539.36 758.471 1533.01 Q757.129 1535.01 755.068 1536.07 Q753.008 1537.13 750.508 1537.13 Q745.323 1537.13 742.291 1534.01 Q739.281 1530.86 739.281 1525.42 Q739.281 1520.1 742.43 1516.88 Q745.578 1513.66 750.809 1513.66 Q756.804 1513.66 759.953 1518.27 Q763.124 1522.85 763.124 1531.6 Q763.124 1539.77 759.235 1544.66 Q755.369 1549.52 748.818 1549.52 Q747.059 1549.52 745.254 1549.17 Q743.448 1548.82 741.504 1548.13 M750.809 1533.48 Q753.957 1533.48 755.786 1531.32 Q757.638 1529.17 757.638 1525.42 Q757.638 1521.7 755.786 1519.54 Q753.957 1517.37 750.809 1517.37 Q747.661 1517.37 745.809 1519.54 Q743.98 1521.7 743.98 1525.42 Q743.98 1529.17 745.809 1531.32 Q747.661 1533.48 750.809 1533.48 Z" fill="#068de9" fill-rule="evenodd" fill-opacity="1" /><path clip-path="url(#clip420)" d="M781.527 1532.44 Q778.193 1532.44 776.272 1534.22 Q774.374 1536 774.374 1539.13 Q774.374 1542.25 776.272 1544.03 Q778.193 1545.82 781.527 1545.82 Q784.86 1545.82 786.781 1544.03 Q788.702 1542.23 788.702 1539.13 Q788.702 1536 786.781 1534.22 Q784.883 1532.44 781.527 1532.44 M776.851 1530.45 Q773.841 1529.7 772.152 1527.64 Q770.485 1525.58 770.485 1522.62 Q770.485 1518.48 773.425 1516.07 Q776.388 1513.66 781.527 1513.66 Q786.689 1513.66 789.628 1516.07 Q792.568 1518.48 792.568 1522.62 Q792.568 1525.58 790.878 1527.64 Q789.212 1529.7 786.226 1530.45 Q789.605 1531.23 791.48 1533.52 Q793.378 1535.82 793.378 1539.13 Q793.378 1544.15 790.3 1546.83 Q787.244 1549.52 781.527 1549.52 Q775.809 1549.52 772.73 1546.83 Q769.675 1544.15 769.675 1539.13 Q769.675 1535.82 771.573 1533.52 Q773.471 1531.23 776.851 1530.45 M775.138 1523.06 Q775.138 1525.75 776.804 1527.25 Q778.494 1528.76 781.527 1528.76 Q784.536 1528.76 786.226 1527.25 Q787.939 1525.75 787.939 1523.06 Q787.939 1520.38 786.226 1518.87 Q784.536 1517.37 781.527 1517.37 Q778.494 1517.37 776.804 1518.87 Q775.138 1520.38 775.138 1523.06 Z" fill="#068de9" fill-rule="evenodd" fill-opacity="1" /><path clip-path="url(#clip420)" d="M811.688 1517.37 Q808.077 1517.37 806.249 1520.93 Q804.443 1524.47 804.443 1531.6 Q804.443 1538.71 806.249 1542.27 Q808.077 1545.82 811.688 1545.82 Q815.323 1545.82 817.128 1542.27 Q818.957 1538.71 818.957 1531.6 Q818.957 1524.47 817.128 1520.93 Q815.323 1517.37 811.688 1517.37 M811.688 1513.66 Q817.499 1513.66 820.554 1518.27 Q823.633 1522.85 823.633 1531.6 Q823.633 1540.33 820.554 1544.94 Q817.499 1549.52 811.688 1549.52 Q805.878 1549.52 802.8 1544.94 Q799.744 1540.33 799.744 1531.6 Q799.744 1522.85 802.8 1518.27 Q805.878 1513.66 811.688 1513.66 Z" fill="#068de9" fill-rule="evenodd" fill-opacity="1" /><path clip-path="url(#clip420)" d="M1094.01 1544.91 L1101.64 1544.91 L1101.64 1518.55 L1093.33 1520.21 L1093.33 1515.95 L1101.6 1514.29 L1106.27 1514.29 L1106.27 1544.91 L1113.91 1544.91 L1113.91 1548.85 L1094.01 1548.85 L1094.01 1544.91 Z" fill="#068de9" fill-rule="evenodd" fill-opacity="1" /><path clip-path="url(#clip420)" d="M1123.5 1548.13 L1123.5 1543.87 Q1125.26 1544.7 1127.06 1545.14 Q1128.87 1545.58 1130.6 1545.58 Q1135.23 1545.58 1137.66 1542.48 Q1140.12 1539.36 1140.46 1533.01 Q1139.12 1535.01 1137.06 1536.07 Q1135 1537.13 1132.5 1537.13 Q1127.32 1537.13 1124.28 1534.01 Q1121.27 1530.86 1121.27 1525.42 Q1121.27 1520.1 1124.42 1516.88 Q1127.57 1513.66 1132.8 1513.66 Q1138.8 1513.66 1141.95 1518.27 Q1145.12 1522.85 1145.12 1531.6 Q1145.12 1539.77 1141.23 1544.66 Q1137.36 1549.52 1130.81 1549.52 Q1129.05 1549.52 1127.25 1549.17 Q1125.44 1548.82 1123.5 1548.13 M1132.8 1533.48 Q1135.95 1533.48 1137.78 1531.32 Q1139.63 1529.17 1139.63 1525.42 Q1139.63 1521.7 1137.78 1519.54 Q1135.95 1517.37 1132.8 1517.37 Q1129.65 1517.37 1127.8 1519.54 Q1125.97 1521.7 1125.97 1525.42 Q1125.97 1529.17 1127.8 1531.32 Q1129.65 1533.48 1132.8 1533.48 Z" fill="#068de9" fill-rule="evenodd" fill-opacity="1" /><path clip-path="url(#clip420)" d="M1153.66 1548.13 L1153.66 1543.87 Q1155.42 1544.7 1157.22 1545.14 Q1159.03 1545.58 1160.76 1545.58 Q1165.39 1545.58 1167.82 1542.48 Q1170.28 1539.36 1170.63 1533.01 Q1169.28 1535.01 1167.22 1536.07 Q1165.16 1537.13 1162.66 1537.13 Q1157.48 1537.13 1154.44 1534.01 Q1151.44 1530.86 1151.44 1525.42 Q1151.44 1520.1 1154.58 1516.88 Q1157.73 1513.66 1162.96 1513.66 Q1168.96 1513.66 1172.11 1518.27 Q1175.28 1522.85 1175.28 1531.6 Q1175.28 1539.77 1171.39 1544.66 Q1167.52 1549.52 1160.97 1549.52 Q1159.21 1549.52 1157.41 1549.17 Q1155.6 1548.82 1153.66 1548.13 M1162.96 1533.48 Q1166.11 1533.48 1167.94 1531.32 Q1169.79 1529.17 1169.79 1525.42 Q1169.79 1521.7 1167.94 1519.54 Q1166.11 1517.37 1162.96 1517.37 Q1159.82 1517.37 1157.96 1519.54 Q1156.13 1521.7 1156.13 1525.42 Q1156.13 1529.17 1157.96 1531.32 Q1159.82 1533.48 1162.96 1533.48 Z" fill="#068de9" fill-rule="evenodd" fill-opacity="1" /><path clip-path="url(#clip420)" d="M1193.68 1517.37 Q1190.07 1517.37 1188.24 1520.93 Q1186.44 1524.47 1186.44 1531.6 Q1186.44 1538.71 1188.24 1542.27 Q1190.07 1545.82 1193.68 1545.82 Q1197.32 1545.82 1199.12 1542.27 Q1200.95 1538.71 1200.95 1531.6 Q1200.95 1524.47 1199.12 1520.93 Q1197.32 1517.37 1193.68 1517.37 M1193.68 1513.66 Q1199.49 1513.66 1202.55 1518.27 Q1205.63 1522.85 1205.63 1531.6 Q1205.63 1540.33 1202.55 1544.94 Q1199.49 1549.52 1193.68 1549.52 Q1187.87 1549.52 1184.79 1544.94 Q1181.74 1540.33 1181.74 1531.6 Q1181.74 1522.85 1184.79 1518.27 Q1187.87 1513.66 1193.68 1513.66 Z" fill="#068de9" fill-rule="evenodd" fill-opacity="1" /><path clip-path="url(#clip420)" d="M1480.08 1544.91 L1496.4 1544.91 L1496.4 1548.85 L1474.46 1548.85 L1474.46 1544.91 Q1477.12 1542.16 1481.7 1537.53 Q1486.31 1532.88 1487.49 1531.53 Q1489.74 1529.01 1490.62 1527.27 Q1491.52 1525.51 1491.52 1523.82 Q1491.52 1521.07 1489.57 1519.33 Q1487.65 1517.6 1484.55 1517.6 Q1482.35 1517.6 1479.9 1518.36 Q1477.47 1519.13 1474.69 1520.68 L1474.69 1515.95 Q1477.51 1514.82 1479.97 1514.24 Q1482.42 1513.66 1484.46 1513.66 Q1489.83 1513.66 1493.02 1516.35 Q1496.22 1519.03 1496.22 1523.52 Q1496.22 1525.65 1495.41 1527.57 Q1494.62 1529.47 1492.51 1532.07 Q1491.94 1532.74 1488.83 1535.95 Q1485.73 1539.15 1480.08 1544.91 Z" fill="#068de9" fill-rule="evenodd" fill-opacity="1" /><path clip-path="url(#clip420)" d="M1516.22 1517.37 Q1512.61 1517.37 1510.78 1520.93 Q1508.97 1524.47 1508.97 1531.6 Q1508.97 1538.71 1510.78 1542.27 Q1512.61 1545.82 1516.22 1545.82 Q1519.85 1545.82 1521.66 1542.27 Q1523.49 1538.71 1523.49 1531.6 Q1523.49 1524.47 1521.66 1520.93 Q1519.85 1517.37 1516.22 1517.37 M1516.22 1513.66 Q1522.03 1513.66 1525.08 1518.27 Q1528.16 1522.85 1528.16 1531.6 Q1528.16 1540.33 1525.08 1544.94 Q1522.03 1549.52 1516.22 1549.52 Q1510.41 1549.52 1507.33 1544.94 Q1504.27 1540.33 1504.27 1531.6 Q1504.27 1522.85 1507.33 1518.27 Q1510.41 1513.66 1516.22 1513.66 Z" fill="#068de9" fill-rule="evenodd" fill-opacity="1" /><path clip-path="url(#clip420)" d="M1546.38 1517.37 Q1542.77 1517.37 1540.94 1520.93 Q1539.13 1524.47 1539.13 1531.6 Q1539.13 1538.71 1540.94 1542.27 Q1542.77 1545.82 1546.38 1545.82 Q1550.01 1545.82 1551.82 1542.27 Q1553.65 1538.71 1553.65 1531.6 Q1553.65 1524.47 1551.82 1520.93 Q1550.01 1517.37 1546.38 1517.37 M1546.38 1513.66 Q1552.19 1513.66 1555.25 1518.27 Q1558.32 1522.85 1558.32 1531.6 Q1558.32 1540.33 1555.25 1544.94 Q1552.19 1549.52 1546.38 1549.52 Q1540.57 1549.52 1537.49 1544.94 Q1534.44 1540.33 1534.44 1531.6 Q1534.44 1522.85 1537.49 1518.27 Q1540.57 1513.66 1546.38 1513.66 Z" fill="#068de9" fill-rule="evenodd" fill-opacity="1" /><path clip-path="url(#clip420)" d="M1576.54 1517.37 Q1572.93 1517.37 1571.1 1520.93 Q1569.3 1524.47 1569.3 1531.6 Q1569.3 1538.71 1571.1 1542.27 Q1572.93 1545.82 1576.54 1545.82 Q1580.18 1545.82 1581.98 1542.27 Q1583.81 1538.71 1583.81 1531.6 Q1583.81 1524.47 1581.98 1520.93 Q1580.18 1517.37 1576.54 1517.37 M1576.54 1513.66 Q1582.35 1513.66 1585.41 1518.27 Q1588.49 1522.85 1588.49 1531.6 Q1588.49 1540.33 1585.41 1544.94 Q1582.35 1549.52 1576.54 1549.52 Q1570.73 1549.52 1567.65 1544.94 Q1564.6 1540.33 1564.6 1531.6 Q1564.6 1522.85 1567.65 1518.27 Q1570.73 1513.66 1576.54 1513.66 Z" fill="#068de9" fill-rule="evenodd" fill-opacity="1" /><path clip-path="url(#clip420)" d="M1862.08 1544.91 L1878.4 1544.91 L1878.4 1548.85 L1856.45 1548.85 L1856.45 1544.91 Q1859.11 1542.16 1863.7 1537.53 Q1868.3 1532.88 1869.48 1531.53 Q1871.73 1529.01 1872.61 1527.27 Q1873.51 1525.51 1873.51 1523.82 Q1873.51 1521.07 1871.57 1519.33 Q1869.65 1517.6 1866.54 1517.6 Q1864.34 1517.6 1861.89 1518.36 Q1859.46 1519.13 1856.68 1520.68 L1856.68 1515.95 Q1859.51 1514.82 1861.96 1514.24 Q1864.41 1513.66 1866.45 1513.66 Q1871.82 1513.66 1875.02 1516.35 Q1878.21 1519.03 1878.21 1523.52 Q1878.21 1525.65 1877.4 1527.57 Q1876.61 1529.47 1874.51 1532.07 Q1873.93 1532.74 1870.83 1535.95 Q1867.72 1539.15 1862.08 1544.91 Z" fill="#068de9" fill-rule="evenodd" fill-opacity="1" /><path clip-path="url(#clip420)" d="M1898.21 1517.37 Q1894.6 1517.37 1892.77 1520.93 Q1890.96 1524.47 1890.96 1531.6 Q1890.96 1538.71 1892.77 1542.27 Q1894.6 1545.82 1898.21 1545.82 Q1901.84 1545.82 1903.65 1542.27 Q1905.48 1538.71 1905.48 1531.6 Q1905.48 1524.47 1903.65 1520.93 Q1901.84 1517.37 1898.21 1517.37 M1898.21 1513.66 Q1904.02 1513.66 1907.08 1518.27 Q1910.15 1522.85 1910.15 1531.6 Q1910.15 1540.33 1907.08 1544.94 Q1904.02 1549.52 1898.21 1549.52 Q1892.4 1549.52 1889.32 1544.94 Q1886.27 1540.33 1886.27 1531.6 Q1886.27 1522.85 1889.32 1518.27 Q1892.4 1513.66 1898.21 1513.66 Z" fill="#068de9" fill-rule="evenodd" fill-opacity="1" /><path clip-path="url(#clip420)" d="M1919.18 1544.91 L1926.82 1544.91 L1926.82 1518.55 L1918.51 1520.21 L1918.51 1515.95 L1926.77 1514.29 L1931.45 1514.29 L1931.45 1544.91 L1939.09 1544.91 L1939.09 1548.85 L1919.18 1548.85 L1919.18 1544.91 Z" fill="#068de9" fill-rule="evenodd" fill-opacity="1" /><path clip-path="url(#clip420)" d="M1958.53 1517.37 Q1954.92 1517.37 1953.09 1520.93 Q1951.29 1524.47 1951.29 1531.6 Q1951.29 1538.71 1953.09 1542.27 Q1954.92 1545.82 1958.53 1545.82 Q1962.17 1545.82 1963.97 1542.27 Q1965.8 1538.71 1965.8 1531.6 Q1965.8 1524.47 1963.97 1520.93 Q1962.17 1517.37 1958.53 1517.37 M1958.53 1513.66 Q1964.34 1513.66 1967.4 1518.27 Q1970.48 1522.85 1970.48 1531.6 Q1970.48 1540.33 1967.4 1544.94 Q1964.34 1549.52 1958.53 1549.52 Q1952.72 1549.52 1949.64 1544.94 Q1946.59 1540.33 1946.59 1531.6 Q1946.59 1522.85 1949.64 1518.27 Q1952.72 1513.66 1958.53 1513.66 Z" fill="#068de9" fill-rule="evenodd" fill-opacity="1" /><path clip-path="url(#clip420)" d="M2244.07 1544.91 L2260.39 1544.91 L2260.39 1548.85 L2238.44 1548.85 L2238.44 1544.91 Q2241.11 1542.16 2245.69 1537.53 Q2250.3 1532.88 2251.48 1531.53 Q2253.72 1529.01 2254.6 1527.27 Q2255.5 1525.51 2255.5 1523.82 Q2255.5 1521.07 2253.56 1519.33 Q2251.64 1517.6 2248.54 1517.6 Q2246.34 1517.6 2243.88 1518.36 Q2241.45 1519.13 2238.67 1520.68 L2238.67 1515.95 Q2241.5 1514.82 2243.95 1514.24 Q2246.41 1513.66 2248.44 1513.66 Q2253.81 1513.66 2257.01 1516.35 Q2260.2 1519.03 2260.2 1523.52 Q2260.2 1525.65 2259.39 1527.57 Q2258.61 1529.47 2256.5 1532.07 Q2255.92 1532.74 2252.82 1535.95 Q2249.72 1539.15 2244.07 1544.91 Z" fill="#068de9" fill-rule="evenodd" fill-opacity="1" /><path clip-path="url(#clip420)" d="M2280.2 1517.37 Q2276.59 1517.37 2274.76 1520.93 Q2272.96 1524.47 2272.96 1531.6 Q2272.96 1538.71 2274.76 1542.27 Q2276.59 1545.82 2280.2 1545.82 Q2283.84 1545.82 2285.64 1542.27 Q2287.47 1538.71 2287.47 1531.6 Q2287.47 1524.47 2285.64 1520.93 Q2283.84 1517.37 2280.2 1517.37 M2280.2 1513.66 Q2286.01 1513.66 2289.07 1518.27 Q2292.15 1522.85 2292.15 1531.6 Q2292.15 1540.33 2289.07 1544.94 Q2286.01 1549.52 2280.2 1549.52 Q2274.39 1549.52 2271.31 1544.94 Q2268.26 1540.33 2268.26 1531.6 Q2268.26 1522.85 2271.31 1518.27 Q2274.39 1513.66 2280.2 1513.66 Z" fill="#068de9" fill-rule="evenodd" fill-opacity="1" /><path clip-path="url(#clip420)" d="M2304.39 1544.91 L2320.71 1544.91 L2320.71 1548.85 L2298.77 1548.85 L2298.77 1544.91 Q2301.43 1542.16 2306.01 1537.53 Q2310.62 1532.88 2311.8 1531.53 Q2314.04 1529.01 2314.92 1527.27 Q2315.83 1525.51 2315.83 1523.82 Q2315.83 1521.07 2313.88 1519.33 Q2311.96 1517.6 2308.86 1517.6 Q2306.66 1517.6 2304.21 1518.36 Q2301.78 1519.13 2299 1520.68 L2299 1515.95 Q2301.82 1514.82 2304.28 1514.24 Q2306.73 1513.66 2308.77 1513.66 Q2314.14 1513.66 2317.33 1516.35 Q2320.53 1519.03 2320.53 1523.52 Q2320.53 1525.65 2319.72 1527.57 Q2318.93 1529.47 2316.82 1532.07 Q2316.24 1532.74 2313.14 1535.95 Q2310.04 1539.15 2304.39 1544.91 Z" fill="#068de9" fill-rule="evenodd" fill-opacity="1" /><path clip-path="url(#clip420)" d="M2340.53 1517.37 Q2336.92 1517.37 2335.09 1520.93 Q2333.28 1524.47 2333.28 1531.6 Q2333.28 1538.71 2335.09 1542.27 Q2336.92 1545.82 2340.53 1545.82 Q2344.16 1545.82 2345.97 1542.27 Q2347.79 1538.71 2347.79 1531.6 Q2347.79 1524.47 2345.97 1520.93 Q2344.16 1517.37 2340.53 1517.37 M2340.53 1513.66 Q2346.34 1513.66 2349.39 1518.27 Q2352.47 1522.85 2352.47 1531.6 Q2352.47 1540.33 2349.39 1544.94 Q2346.34 1549.52 2340.53 1549.52 Q2334.72 1549.52 2331.64 1544.94 Q2328.58 1540.33 2328.58 1531.6 Q2328.58 1522.85 2331.64 1518.27 Q2334.72 1513.66 2340.53 1513.66 Z" fill="#068de9" fill-rule="evenodd" fill-opacity="1" /><polyline clip-path="url(#clip422)" style="stroke:#068de9; stroke-linecap:round; stroke-linejoin:round; stroke-width:2; stroke-opacity:0.3; fill:none" points="
  328.196,1335.03 2352.76,1335.03 
  "/>
<polyline clip-path="url(#clip422)" style="stroke:#068de9; stroke-linecap:round; stroke-linejoin:round; stroke-width:2; stroke-opacity:0.3; fill:none" points="
  328.196,1157.81 2352.76,1157.81 
  "/>
<polyline clip-path="url(#clip422)" style="stroke:#068de9; stroke-linecap:round; stroke-linejoin:round; stroke-width:2; stroke-opacity:0.3; fill:none" points="
  328.196,980.597 2352.76,980.597 
  "/>
<polyline clip-path="url(#clip422)" style="stroke:#068de9; stroke-linecap:round; stroke-linejoin:round; stroke-width:2; stroke-opacity:0.3; fill:none" points="
  328.196,803.384 2352.76,803.384 
  "/>
<polyline clip-path="url(#clip422)" style="stroke:#068de9; stroke-linecap:round; stroke-linejoin:round; stroke-width:2; stroke-opacity:0.3; fill:none" points="
  328.196,626.17 2352.76,626.17 
  "/>
<polyline clip-path="url(#clip422)" style="stroke:#068de9; stroke-linecap:round; stroke-linejoin:round; stroke-width:2; stroke-opacity:0.3; fill:none" points="
  328.196,448.956 2352.76,448.956 
  "/>
<polyline clip-path="url(#clip422)" style="stroke:#068de9; stroke-linecap:round; stroke-linejoin:round; stroke-width:2; stroke-opacity:0.3; fill:none" points="
  328.196,271.742 2352.76,271.742 
  "/>
<polyline clip-path="url(#clip420)" style="stroke:#0; stroke-linecap:round; stroke-linejoin:round; stroke-width:4; stroke-opacity:1; fill:none" points="
  328.196,1486.45 328.196,106.192 
  "/>



<path clip-path="url(#clip420)" d="M330.991 14.3981 L323.062 35.8968 L338.948 35.8968 L330.991 14.3981 M327.692 8.64 L334.318 8.64 L350.782 51.84 L344.706 51.84 L340.771 40.7579 L321.297 40.7579 L317.362 51.84 L311.199 51.84 L327.692 8.64 Z" fill="#066de9" fill-rule="evenodd" fill-opacity="1" /><path clip-path="url(#clip420)" d="M356.859 19.4328 L362.183 19.4328 L362.183 51.84 L356.859 51.84 L356.859 19.4328 M356.859 6.81709 L362.183 6.81709 L362.183 13.559 L356.859 13.559 L356.859 6.81709 Z" fill="#066de9" fill-rule="evenodd" fill-opacity="1" /><path clip-path="url(#clip420)" d="M392.101 24.4096 Q391.204 23.8888 390.134 23.6573 Q389.092 23.3969 387.819 23.3969 Q383.305 23.3969 380.875 26.3482 Q378.473 29.2707 378.473 34.7683 L378.473 51.84 L373.12 51.84 L373.12 19.4328 L378.473 19.4328 L378.473 24.4675 Q380.151 21.5161 382.842 20.0983 Q385.533 18.6515 389.382 18.6515 Q389.931 18.6515 390.597 18.7383 Q391.262 18.7962 392.072 18.9409 L392.101 24.4096 Z" fill="#066de9" fill-rule="evenodd" fill-opacity="1" /><path clip-path="url(#clip420)" d="M421.789 10.2314 L421.789 19.4328 L432.755 19.4328 L432.755 23.5705 L421.789 23.5705 L421.789 41.163 Q421.789 45.1271 422.859 46.2555 Q423.959 47.384 427.286 47.384 L432.755 47.384 L432.755 51.84 L427.286 51.84 Q421.123 51.84 418.779 49.5541 Q416.436 47.2393 416.436 41.163 L416.436 23.5705 L412.53 23.5705 L412.53 19.4328 L416.436 19.4328 L416.436 10.2314 L421.789 10.2314 Z" fill="#066de9" fill-rule="evenodd" fill-opacity="1" /><path clip-path="url(#clip420)" d="M458.536 24.4096 Q457.639 23.8888 456.569 23.6573 Q455.527 23.3969 454.254 23.3969 Q449.74 23.3969 447.309 26.3482 Q444.908 29.2707 444.908 34.7683 L444.908 51.84 L439.555 51.84 L439.555 19.4328 L444.908 19.4328 L444.908 24.4675 Q446.586 21.5161 449.277 20.0983 Q451.968 18.6515 455.816 18.6515 Q456.366 18.6515 457.032 18.7383 Q457.697 18.7962 458.507 18.9409 L458.536 24.4096 Z" fill="#066de9" fill-rule="evenodd" fill-opacity="1" /><path clip-path="url(#clip420)" d="M478.849 35.5496 Q472.396 35.5496 469.908 37.0253 Q467.419 38.501 467.419 42.06 Q467.419 44.8956 469.271 46.5738 Q471.152 48.2231 474.364 48.2231 Q478.791 48.2231 481.453 45.0981 Q484.144 41.9442 484.144 36.7359 L484.144 35.5496 L478.849 35.5496 M489.468 33.3505 L489.468 51.84 L484.144 51.84 L484.144 46.921 Q482.321 49.8724 479.601 51.2902 Q476.881 52.6791 472.946 52.6791 Q467.969 52.6791 465.018 49.9014 Q462.095 47.0947 462.095 42.4072 Q462.095 36.9385 465.741 34.1607 Q469.416 31.3829 476.678 31.3829 L484.144 31.3829 L484.144 30.8621 Q484.144 27.1874 481.713 25.1908 Q479.312 23.1654 474.942 23.1654 Q472.165 23.1654 469.532 23.8309 Q466.898 24.4964 464.468 25.8274 L464.468 20.9085 Q467.39 19.78 470.139 19.2302 Q472.888 18.6515 475.492 18.6515 Q482.523 18.6515 485.996 22.2973 Q489.468 25.9431 489.468 33.3505 Z" fill="#066de9" fill-rule="evenodd" fill-opacity="1" /><path clip-path="url(#clip420)" d="M527.373 32.2799 L527.373 51.84 L522.049 51.84 L522.049 32.4535 Q522.049 27.8529 520.255 25.567 Q518.461 23.2811 514.873 23.2811 Q510.561 23.2811 508.073 26.03 Q505.585 28.7788 505.585 33.5241 L505.585 51.84 L500.232 51.84 L500.232 19.4328 L505.585 19.4328 L505.585 24.4675 Q507.494 21.545 510.07 20.0983 Q512.674 18.6515 516.059 18.6515 Q521.644 18.6515 524.508 22.1237 Q527.373 25.567 527.373 32.2799 Z" fill="#066de9" fill-rule="evenodd" fill-opacity="1" /><path clip-path="url(#clip420)" d="M558.651 20.3876 L558.651 25.4223 Q556.394 24.2649 553.964 23.6862 Q551.533 23.1075 548.929 23.1075 Q544.965 23.1075 542.969 24.3228 Q541.001 25.5381 541.001 27.9686 Q541.001 29.8204 542.419 30.891 Q543.837 31.9327 548.119 32.8876 L549.942 33.2926 Q555.613 34.5079 557.986 36.7359 Q560.388 38.935 560.388 42.8991 Q560.388 47.4129 556.8 50.046 Q553.241 52.6791 546.991 52.6791 Q544.386 52.6791 541.551 52.1583 Q538.744 51.6664 535.619 50.6537 L535.619 45.156 Q538.571 46.6896 541.435 47.4708 Q544.3 48.2231 547.106 48.2231 Q550.868 48.2231 552.893 46.95 Q554.919 45.6479 554.919 43.3042 Q554.919 41.134 553.443 39.9766 Q551.996 38.8192 547.048 37.7486 L545.197 37.3146 Q540.249 36.273 538.05 34.1318 Q535.851 31.9616 535.851 28.2001 Q535.851 23.6283 539.091 21.1399 Q542.332 18.6515 548.293 18.6515 Q551.244 18.6515 553.848 19.0855 Q556.452 19.5196 558.651 20.3876 Z" fill="#066de9" fill-rule="evenodd" fill-opacity="1" /><path clip-path="url(#clip420)" d="M574.016 46.9789 L574.016 64.1663 L568.663 64.1663 L568.663 19.4328 L574.016 19.4328 L574.016 24.3517 Q575.694 21.4582 578.24 20.0693 Q580.816 18.6515 584.375 18.6515 Q590.277 18.6515 593.952 23.339 Q597.656 28.0265 597.656 35.6653 Q597.656 43.3042 593.952 47.9916 Q590.277 52.6791 584.375 52.6791 Q580.816 52.6791 578.24 51.2902 Q575.694 49.8724 574.016 46.9789 M592.129 35.6653 Q592.129 29.7915 589.699 26.464 Q587.297 23.1075 583.073 23.1075 Q578.848 23.1075 576.418 26.464 Q574.016 29.7915 574.016 35.6653 Q574.016 41.5391 576.418 44.8956 Q578.848 48.2231 583.073 48.2231 Q587.297 48.2231 589.699 44.8956 Q592.129 41.5391 592.129 35.6653 Z" fill="#066de9" fill-rule="evenodd" fill-opacity="1" /><path clip-path="url(#clip420)" d="M619.039 23.1654 Q614.756 23.1654 612.268 26.5218 Q609.78 29.8494 609.78 35.6653 Q609.78 41.4813 612.239 44.8377 Q614.728 48.1653 619.039 48.1653 Q623.292 48.1653 625.781 44.8088 Q628.269 41.4523 628.269 35.6653 Q628.269 29.9072 625.781 26.5508 Q623.292 23.1654 619.039 23.1654 M619.039 18.6515 Q625.983 18.6515 629.947 23.1654 Q633.911 27.6792 633.911 35.6653 Q633.911 43.6225 629.947 48.1653 Q625.983 52.6791 619.039 52.6791 Q612.065 52.6791 608.101 48.1653 Q604.166 43.6225 604.166 35.6653 Q604.166 27.6792 608.101 23.1654 Q612.065 18.6515 619.039 18.6515 Z" fill="#066de9" fill-rule="evenodd" fill-opacity="1" /><path clip-path="url(#clip420)" d="M661.515 24.4096 Q660.618 23.8888 659.548 23.6573 Q658.506 23.3969 657.233 23.3969 Q652.719 23.3969 650.289 26.3482 Q647.887 29.2707 647.887 34.7683 L647.887 51.84 L642.534 51.84 L642.534 19.4328 L647.887 19.4328 L647.887 24.4675 Q649.565 21.5161 652.256 20.0983 Q654.947 18.6515 658.796 18.6515 Q659.345 18.6515 660.011 18.7383 Q660.676 18.7962 661.487 18.9409 L661.515 24.4096 Z" fill="#066de9" fill-rule="evenodd" fill-opacity="1" /><path clip-path="url(#clip420)" d="M672.366 10.2314 L672.366 19.4328 L683.332 19.4328 L683.332 23.5705 L672.366 23.5705 L672.366 41.163 Q672.366 45.1271 673.437 46.2555 Q674.536 47.384 677.864 47.384 L683.332 47.384 L683.332 51.84 L677.864 51.84 Q671.701 51.84 669.357 49.5541 Q667.013 47.2393 667.013 41.163 L667.013 23.5705 L663.107 23.5705 L663.107 19.4328 L667.013 19.4328 L667.013 10.2314 L672.366 10.2314 Z" fill="#066de9" fill-rule="evenodd" fill-opacity="1" /><path clip-path="url(#clip420)" d="M691.695 44.4905 L697.8 44.4905 L697.8 49.4673 L693.055 58.7265 L689.322 58.7265 L691.695 49.4673 L691.695 44.4905 Z" fill="#066de9" fill-rule="evenodd" fill-opacity="1" /><path clip-path="url(#clip420)" d="M733.159 46.9789 L733.159 64.1663 L727.806 64.1663 L727.806 19.4328 L733.159 19.4328 L733.159 24.3517 Q734.837 21.4582 737.383 20.0693 Q739.958 18.6515 743.517 18.6515 Q749.42 18.6515 753.095 23.339 Q756.799 28.0265 756.799 35.6653 Q756.799 43.3042 753.095 47.9916 Q749.42 52.6791 743.517 52.6791 Q739.958 52.6791 737.383 51.2902 Q734.837 49.8724 733.159 46.9789 M751.272 35.6653 Q751.272 29.7915 748.841 26.464 Q746.44 23.1075 742.215 23.1075 Q737.991 23.1075 735.56 26.464 Q733.159 29.7915 733.159 35.6653 Q733.159 41.5391 735.56 44.8956 Q737.991 48.2231 742.215 48.2231 Q746.44 48.2231 748.841 44.8956 Q751.272 41.5391 751.272 35.6653 Z" fill="#066de9" fill-rule="evenodd" fill-opacity="1" /><path clip-path="url(#clip420)" d="M780.352 35.5496 Q773.899 35.5496 771.411 37.0253 Q768.922 38.501 768.922 42.06 Q768.922 44.8956 770.774 46.5738 Q772.655 48.2231 775.867 48.2231 Q780.294 48.2231 782.956 45.0981 Q785.647 41.9442 785.647 36.7359 L785.647 35.5496 L780.352 35.5496 M790.971 33.3505 L790.971 51.84 L785.647 51.84 L785.647 46.921 Q783.824 49.8724 781.104 51.2902 Q778.384 52.6791 774.449 52.6791 Q769.472 52.6791 766.521 49.9014 Q763.598 47.0947 763.598 42.4072 Q763.598 36.9385 767.244 34.1607 Q770.919 31.3829 778.182 31.3829 L785.647 31.3829 L785.647 30.8621 Q785.647 27.1874 783.216 25.1908 Q780.815 23.1654 776.445 23.1654 Q773.668 23.1654 771.035 23.8309 Q768.401 24.4964 765.971 25.8274 L765.971 20.9085 Q768.893 19.78 771.642 19.2302 Q774.391 18.6515 776.995 18.6515 Q784.026 18.6515 787.499 22.2973 Q790.971 25.9431 790.971 33.3505 Z" fill="#066de9" fill-rule="evenodd" fill-opacity="1" /><path clip-path="url(#clip420)" d="M822.597 20.3876 L822.597 25.4223 Q820.34 24.2649 817.909 23.6862 Q815.479 23.1075 812.875 23.1075 Q808.911 23.1075 806.914 24.3228 Q804.946 25.5381 804.946 27.9686 Q804.946 29.8204 806.364 30.891 Q807.782 31.9327 812.064 32.8876 L813.887 33.2926 Q819.559 34.5079 821.931 36.7359 Q824.333 38.935 824.333 42.8991 Q824.333 47.4129 820.745 50.046 Q817.186 52.6791 810.936 52.6791 Q808.332 52.6791 805.496 52.1583 Q802.689 51.6664 799.564 50.6537 L799.564 45.156 Q802.516 46.6896 805.38 47.4708 Q808.245 48.2231 811.052 48.2231 Q814.813 48.2231 816.839 46.95 Q818.864 45.6479 818.864 43.3042 Q818.864 41.134 817.388 39.9766 Q815.942 38.8192 810.994 37.7486 L809.142 37.3146 Q804.194 36.273 801.995 34.1318 Q799.796 31.9616 799.796 28.2001 Q799.796 23.6283 803.037 21.1399 Q806.277 18.6515 812.238 18.6515 Q815.189 18.6515 817.794 19.0855 Q820.398 19.5196 822.597 20.3876 Z" fill="#066de9" fill-rule="evenodd" fill-opacity="1" /><path clip-path="url(#clip420)" d="M853.47 20.3876 L853.47 25.4223 Q851.214 24.2649 848.783 23.6862 Q846.352 23.1075 843.748 23.1075 Q839.784 23.1075 837.788 24.3228 Q835.82 25.5381 835.82 27.9686 Q835.82 29.8204 837.238 30.891 Q838.656 31.9327 842.938 32.8876 L844.761 33.2926 Q850.432 34.5079 852.805 36.7359 Q855.207 38.935 855.207 42.8991 Q855.207 47.4129 851.619 50.046 Q848.06 52.6791 841.81 52.6791 Q839.205 52.6791 836.37 52.1583 Q833.563 51.6664 830.438 50.6537 L830.438 45.156 Q833.39 46.6896 836.254 47.4708 Q839.119 48.2231 841.925 48.2231 Q845.687 48.2231 847.712 46.95 Q849.738 45.6479 849.738 43.3042 Q849.738 41.134 848.262 39.9766 Q846.815 38.8192 841.868 37.7486 L840.016 37.3146 Q835.068 36.273 832.869 34.1318 Q830.67 31.9616 830.67 28.2001 Q830.67 23.6283 833.91 21.1399 Q837.151 18.6515 843.112 18.6515 Q846.063 18.6515 848.667 19.0855 Q851.271 19.5196 853.47 20.3876 Z" fill="#066de9" fill-rule="evenodd" fill-opacity="1" /><path clip-path="url(#clip420)" d="M891.404 34.3054 L891.404 36.9095 L866.925 36.9095 Q867.272 42.4072 870.224 45.3007 Q873.204 48.1653 878.499 48.1653 Q881.566 48.1653 884.431 47.4129 Q887.324 46.6606 890.16 45.156 L890.16 50.1907 Q887.296 51.406 884.286 52.0425 Q881.277 52.6791 878.181 52.6791 Q870.426 52.6791 865.884 48.1653 Q861.37 43.6514 861.37 35.9547 Q861.37 27.9975 865.652 23.339 Q869.963 18.6515 877.255 18.6515 Q883.794 18.6515 887.585 22.876 Q891.404 27.0716 891.404 34.3054 M886.08 32.7429 Q886.022 28.3737 883.621 25.7695 Q881.248 23.1654 877.313 23.1654 Q872.857 23.1654 870.166 25.6827 Q867.504 28.2001 867.099 32.7718 L886.08 32.7429 Z" fill="#066de9" fill-rule="evenodd" fill-opacity="1" /><path clip-path="url(#clip420)" d="M927.081 32.2799 L927.081 51.84 L921.757 51.84 L921.757 32.4535 Q921.757 27.8529 919.963 25.567 Q918.169 23.2811 914.581 23.2811 Q910.27 23.2811 907.782 26.03 Q905.293 28.7788 905.293 33.5241 L905.293 51.84 L899.94 51.84 L899.94 19.4328 L905.293 19.4328 L905.293 24.4675 Q907.203 21.545 909.778 20.0983 Q912.382 18.6515 915.768 18.6515 Q921.352 18.6515 924.217 22.1237 Q927.081 25.567 927.081 32.2799 Z" fill="#066de9" fill-rule="evenodd" fill-opacity="1" /><path clip-path="url(#clip420)" d="M959.025 35.2602 Q959.025 29.4732 956.624 26.2904 Q954.251 23.1075 949.94 23.1075 Q945.657 23.1075 943.256 26.2904 Q940.883 29.4732 940.883 35.2602 Q940.883 41.0183 943.256 44.2012 Q945.657 47.384 949.94 47.384 Q954.251 47.384 956.624 44.2012 Q959.025 41.0183 959.025 35.2602 M964.349 47.818 Q964.349 56.0934 960.675 60.1154 Q957 64.1663 949.419 64.1663 Q946.612 64.1663 944.124 63.7323 Q941.635 63.3272 939.292 62.4592 L939.292 57.2798 Q941.635 58.5529 943.921 59.1606 Q946.207 59.7682 948.58 59.7682 Q953.817 59.7682 956.421 57.0194 Q959.025 54.2995 959.025 48.7729 L959.025 46.1398 Q957.376 49.0044 954.801 50.4222 Q952.226 51.84 948.638 51.84 Q942.677 51.84 939.031 47.2972 Q935.386 42.7544 935.386 35.2602 Q935.386 27.7371 939.031 23.1943 Q942.677 18.6515 948.638 18.6515 Q952.226 18.6515 954.801 20.0693 Q957.376 21.4872 959.025 24.3517 L959.025 19.4328 L964.349 19.4328 L964.349 47.818 Z" fill="#066de9" fill-rule="evenodd" fill-opacity="1" /><path clip-path="url(#clip420)" d="M1003.04 34.3054 L1003.04 36.9095 L978.557 36.9095 Q978.904 42.4072 981.855 45.3007 Q984.835 48.1653 990.131 48.1653 Q993.198 48.1653 996.062 47.4129 Q998.956 46.6606 1001.79 45.156 L1001.79 50.1907 Q998.927 51.406 995.918 52.0425 Q992.908 52.6791 989.812 52.6791 Q982.058 52.6791 977.515 48.1653 Q973.001 43.6514 973.001 35.9547 Q973.001 27.9975 977.283 23.339 Q981.595 18.6515 988.886 18.6515 Q995.426 18.6515 999.216 22.876 Q1003.04 27.0716 1003.04 34.3054 M997.712 32.7429 Q997.654 28.3737 995.252 25.7695 Q992.879 23.1654 988.944 23.1654 Q984.488 23.1654 981.797 25.6827 Q979.135 28.2001 978.73 32.7718 L997.712 32.7429 Z" fill="#066de9" fill-rule="evenodd" fill-opacity="1" /><path clip-path="url(#clip420)" d="M1030.55 24.4096 Q1029.66 23.8888 1028.59 23.6573 Q1027.54 23.3969 1026.27 23.3969 Q1021.76 23.3969 1019.33 26.3482 Q1016.92 29.2707 1016.92 34.7683 L1016.92 51.84 L1011.57 51.84 L1011.57 19.4328 L1016.92 19.4328 L1016.92 24.4675 Q1018.6 21.5161 1021.29 20.0983 Q1023.98 18.6515 1027.83 18.6515 Q1028.38 18.6515 1029.05 18.7383 Q1029.71 18.7962 1030.52 18.9409 L1030.55 24.4096 Z" fill="#066de9" fill-rule="evenodd" fill-opacity="1" /><path clip-path="url(#clip420)" d="M1056.8 20.3876 L1056.8 25.4223 Q1054.54 24.2649 1052.11 23.6862 Q1049.68 23.1075 1047.07 23.1075 Q1043.11 23.1075 1041.11 24.3228 Q1039.15 25.5381 1039.15 27.9686 Q1039.15 29.8204 1040.56 30.891 Q1041.98 31.9327 1046.26 32.8876 L1048.09 33.2926 Q1053.76 34.5079 1056.13 36.7359 Q1058.53 38.935 1058.53 42.8991 Q1058.53 47.4129 1054.95 50.046 Q1051.39 52.6791 1045.14 52.6791 Q1042.53 52.6791 1039.7 52.1583 Q1036.89 51.6664 1033.76 50.6537 L1033.76 45.156 Q1036.72 46.6896 1039.58 47.4708 Q1042.45 48.2231 1045.25 48.2231 Q1049.01 48.2231 1051.04 46.95 Q1053.06 45.6479 1053.06 43.3042 Q1053.06 41.134 1051.59 39.9766 Q1050.14 38.8192 1045.19 37.7486 L1043.34 37.3146 Q1038.39 36.273 1036.2 34.1318 Q1034 31.9616 1034 28.2001 Q1034 23.6283 1037.24 21.1399 Q1040.48 18.6515 1046.44 18.6515 Q1049.39 18.6515 1051.99 19.0855 Q1054.6 19.5196 1056.8 20.3876 Z" fill="#066de9" fill-rule="evenodd" fill-opacity="1" /><path clip-path="url(#clip420)" d="M1109.17 20.677 L1109.17 25.6538 Q1106.91 24.4096 1104.63 23.802 Q1102.37 23.1654 1100.05 23.1654 Q1094.88 23.1654 1092.01 26.464 Q1089.15 29.7336 1089.15 35.6653 Q1089.15 41.597 1092.01 44.8956 Q1094.88 48.1653 1100.05 48.1653 Q1102.37 48.1653 1104.63 47.5576 Q1106.91 46.921 1109.17 45.6768 L1109.17 50.5958 Q1106.94 51.6375 1104.54 52.1583 Q1102.17 52.6791 1099.48 52.6791 Q1092.16 52.6791 1087.84 48.0784 Q1083.53 43.4778 1083.53 35.6653 Q1083.53 27.7371 1087.87 23.1943 Q1092.24 18.6515 1099.82 18.6515 Q1102.28 18.6515 1104.63 19.1724 Q1106.97 19.6642 1109.17 20.677 Z" fill="#066de9" fill-rule="evenodd" fill-opacity="1" /><path clip-path="url(#clip420)" d="M1133.16 35.5496 Q1126.7 35.5496 1124.22 37.0253 Q1121.73 38.501 1121.73 42.06 Q1121.73 44.8956 1123.58 46.5738 Q1125.46 48.2231 1128.67 48.2231 Q1133.1 48.2231 1135.76 45.0981 Q1138.45 41.9442 1138.45 36.7359 L1138.45 35.5496 L1133.16 35.5496 M1143.78 33.3505 L1143.78 51.84 L1138.45 51.84 L1138.45 46.921 Q1136.63 49.8724 1133.91 51.2902 Q1131.19 52.6791 1127.25 52.6791 Q1122.28 52.6791 1119.33 49.9014 Q1116.4 47.0947 1116.4 42.4072 Q1116.4 36.9385 1120.05 34.1607 Q1123.72 31.3829 1130.99 31.3829 L1138.45 31.3829 L1138.45 30.8621 Q1138.45 27.1874 1136.02 25.1908 Q1133.62 23.1654 1129.25 23.1654 Q1126.47 23.1654 1123.84 23.8309 Q1121.21 24.4964 1118.78 25.8274 L1118.78 20.9085 Q1121.7 19.78 1124.45 19.2302 Q1127.2 18.6515 1129.8 18.6515 Q1136.83 18.6515 1140.3 22.2973 Q1143.78 25.9431 1143.78 33.3505 Z" fill="#066de9" fill-rule="evenodd" fill-opacity="1" /><path clip-path="url(#clip420)" d="M1173.52 24.4096 Q1172.62 23.8888 1171.55 23.6573 Q1170.51 23.3969 1169.24 23.3969 Q1164.72 23.3969 1162.29 26.3482 Q1159.89 29.2707 1159.89 34.7683 L1159.89 51.84 L1154.54 51.84 L1154.54 19.4328 L1159.89 19.4328 L1159.89 24.4675 Q1161.57 21.5161 1164.26 20.0983 Q1166.95 18.6515 1170.8 18.6515 Q1171.35 18.6515 1172.02 18.7383 Q1172.68 18.7962 1173.49 18.9409 L1173.52 24.4096 Z" fill="#066de9" fill-rule="evenodd" fill-opacity="1" /><path clip-path="url(#clip420)" d="M1196.84 24.4096 Q1195.95 23.8888 1194.87 23.6573 Q1193.83 23.3969 1192.56 23.3969 Q1188.05 23.3969 1185.62 26.3482 Q1183.21 29.2707 1183.21 34.7683 L1183.21 51.84 L1177.86 51.84 L1177.86 19.4328 L1183.21 19.4328 L1183.21 24.4675 Q1184.89 21.5161 1187.58 20.0983 Q1190.27 18.6515 1194.12 18.6515 Q1194.67 18.6515 1195.34 18.7383 Q1196 18.7962 1196.81 18.9409 L1196.84 24.4096 Z" fill="#066de9" fill-rule="evenodd" fill-opacity="1" /><path clip-path="url(#clip420)" d="M1202.43 19.4328 L1207.75 19.4328 L1207.75 51.84 L1202.43 51.84 L1202.43 19.4328 M1202.43 6.81709 L1207.75 6.81709 L1207.75 13.559 L1202.43 13.559 L1202.43 6.81709 Z" fill="#066de9" fill-rule="evenodd" fill-opacity="1" /><path clip-path="url(#clip420)" d="M1246.61 34.3054 L1246.61 36.9095 L1222.13 36.9095 Q1222.48 42.4072 1225.43 45.3007 Q1228.41 48.1653 1233.71 48.1653 Q1236.77 48.1653 1239.64 47.4129 Q1242.53 46.6606 1245.37 45.156 L1245.37 50.1907 Q1242.5 51.406 1239.49 52.0425 Q1236.48 52.6791 1233.39 52.6791 Q1225.63 52.6791 1221.09 48.1653 Q1216.58 43.6514 1216.58 35.9547 Q1216.58 27.9975 1220.86 23.339 Q1225.17 18.6515 1232.46 18.6515 Q1239 18.6515 1242.79 22.876 Q1246.61 27.0716 1246.61 34.3054 M1241.29 32.7429 Q1241.23 28.3737 1238.83 25.7695 Q1236.45 23.1654 1232.52 23.1654 Q1228.06 23.1654 1225.37 25.6827 Q1222.71 28.2001 1222.31 32.7718 L1241.29 32.7429 Z" fill="#066de9" fill-rule="evenodd" fill-opacity="1" /><path clip-path="url(#clip420)" d="M1276.67 24.3517 L1276.67 6.81709 L1282 6.81709 L1282 51.84 L1276.67 51.84 L1276.67 46.9789 Q1275 49.8724 1272.42 51.2902 Q1269.87 52.6791 1266.29 52.6791 Q1260.41 52.6791 1256.71 47.9916 Q1253.03 43.3042 1253.03 35.6653 Q1253.03 28.0265 1256.71 23.339 Q1260.41 18.6515 1266.29 18.6515 Q1269.87 18.6515 1272.42 20.0693 Q1275 21.4582 1276.67 24.3517 M1258.53 35.6653 Q1258.53 41.5391 1260.93 44.8956 Q1263.36 48.2231 1267.59 48.2231 Q1271.81 48.2231 1274.24 44.8956 Q1276.67 41.5391 1276.67 35.6653 Q1276.67 29.7915 1274.24 26.464 Q1271.81 23.1075 1267.59 23.1075 Q1263.36 23.1075 1260.93 26.464 Q1258.53 29.7915 1258.53 35.6653 Z" fill="#066de9" fill-rule="evenodd" fill-opacity="1" /><path clip-path="url(#clip420)" d="M1324.59 6.87496 Q1320.71 13.53 1318.83 20.0404 Q1316.95 26.5508 1316.95 33.2348 Q1316.95 39.9188 1318.83 46.487 Q1320.74 53.0263 1324.59 59.6525 L1319.96 59.6525 Q1315.62 52.8527 1313.45 46.2845 Q1311.31 39.7162 1311.31 33.2348 Q1311.31 26.7823 1313.45 20.2429 Q1315.59 13.7036 1319.96 6.87496 L1324.59 6.87496 Z" fill="#066de9" fill-rule="evenodd" fill-opacity="1" /><path clip-path="url(#clip420)" d="M1336.69 46.921 L1346.23 46.921 L1346.23 13.964 L1335.85 16.0474 L1335.85 10.7233 L1346.18 8.64 L1352.02 8.64 L1352.02 46.921 L1361.57 46.921 L1361.57 51.84 L1336.69 51.84 L1336.69 46.921 Z" fill="#066de9" fill-rule="evenodd" fill-opacity="1" /><path clip-path="url(#clip420)" d="M1373.55 50.943 L1373.55 45.619 Q1375.75 46.6606 1378 47.2104 Q1380.26 47.7602 1382.43 47.7602 Q1388.22 47.7602 1391.26 43.8829 Q1394.32 39.9766 1394.76 32.0484 Q1393.08 34.5369 1390.5 35.8679 Q1387.93 37.1989 1384.8 37.1989 Q1378.32 37.1989 1374.53 33.2926 Q1370.77 29.3575 1370.77 22.5577 Q1370.77 15.9027 1374.71 11.8807 Q1378.64 7.85875 1385.18 7.85875 Q1392.67 7.85875 1396.61 13.6168 Q1400.57 19.346 1400.57 30.2834 Q1400.57 40.4975 1395.71 46.6028 Q1390.88 52.6791 1382.69 52.6791 Q1380.49 52.6791 1378.24 52.2451 Q1375.98 51.8111 1373.55 50.943 M1385.18 32.6271 Q1389.12 32.6271 1391.4 29.9362 Q1393.72 27.2452 1393.72 22.5577 Q1393.72 17.8992 1391.4 15.2083 Q1389.12 12.4884 1385.18 12.4884 Q1381.25 12.4884 1378.93 15.2083 Q1376.64 17.8992 1376.64 22.5577 Q1376.64 27.2452 1378.93 29.9362 Q1381.25 32.6271 1385.18 32.6271 Z" fill="#066de9" fill-rule="evenodd" fill-opacity="1" /><path clip-path="url(#clip420)" d="M1409.6 8.64 L1437.38 8.64 L1437.38 11.1284 L1421.7 51.84 L1415.59 51.84 L1430.35 13.559 L1409.6 13.559 L1409.6 8.64 Z" fill="#066de9" fill-rule="evenodd" fill-opacity="1" /><path clip-path="url(#clip420)" d="M1461.28 12.4884 Q1456.77 12.4884 1454.48 16.9444 Q1452.22 21.3714 1452.22 30.2834 Q1452.22 39.1665 1454.48 43.6225 Q1456.77 48.0495 1461.28 48.0495 Q1465.82 48.0495 1468.08 43.6225 Q1470.37 39.1665 1470.37 30.2834 Q1470.37 21.3714 1468.08 16.9444 Q1465.82 12.4884 1461.28 12.4884 M1461.28 7.85875 Q1468.54 7.85875 1472.36 13.6168 Q1476.21 19.346 1476.21 30.2834 Q1476.21 41.1919 1472.36 46.95 Q1468.54 52.6791 1461.28 52.6791 Q1454.02 52.6791 1450.17 46.95 Q1446.35 41.1919 1446.35 30.2834 Q1446.35 19.346 1450.17 13.6168 Q1454.02 7.85875 1461.28 7.85875 Z" fill="#066de9" fill-rule="evenodd" fill-opacity="1" /><path clip-path="url(#clip420)" d="M1483.04 33.2348 L1498.63 33.2348 L1498.63 37.9801 L1483.04 37.9801 L1483.04 33.2348 Z" fill="#066de9" fill-rule="evenodd" fill-opacity="1" /><path clip-path="url(#clip420)" d="M1512.9 46.921 L1533.3 46.921 L1533.3 51.84 L1505.87 51.84 L1505.87 46.921 Q1509.2 43.4778 1514.93 37.6908 Q1520.68 31.8748 1522.16 30.1966 Q1524.97 27.0427 1526.07 24.8726 Q1527.19 22.6735 1527.19 20.5612 Q1527.19 17.118 1524.76 14.9478 Q1522.36 12.7777 1518.48 12.7777 Q1515.74 12.7777 1512.67 13.7326 Q1509.63 14.6874 1506.16 16.6261 L1506.16 10.7233 Q1509.69 9.30551 1512.76 8.58213 Q1515.82 7.85875 1518.37 7.85875 Q1525.08 7.85875 1529.07 11.2152 Q1533.07 14.5717 1533.07 20.1851 Q1533.07 22.8471 1532.05 25.2487 Q1531.07 27.6214 1528.44 30.8621 Q1527.71 31.7012 1523.84 35.7232 Q1519.96 39.7162 1512.9 46.921 Z" fill="#066de9" fill-rule="evenodd" fill-opacity="1" /><path clip-path="url(#clip420)" d="M1558.07 12.4884 Q1553.55 12.4884 1551.27 16.9444 Q1549.01 21.3714 1549.01 30.2834 Q1549.01 39.1665 1551.27 43.6225 Q1553.55 48.0495 1558.07 48.0495 Q1562.61 48.0495 1564.87 43.6225 Q1567.15 39.1665 1567.15 30.2834 Q1567.15 21.3714 1564.87 16.9444 Q1562.61 12.4884 1558.07 12.4884 M1558.07 7.85875 Q1565.33 7.85875 1569.15 13.6168 Q1573 19.346 1573 30.2834 Q1573 41.1919 1569.15 46.95 Q1565.33 52.6791 1558.07 52.6791 Q1550.8 52.6791 1546.96 46.95 Q1543.14 41.1919 1543.14 30.2834 Q1543.14 19.346 1546.96 13.6168 Q1550.8 7.85875 1558.07 7.85875 Z" fill="#066de9" fill-rule="evenodd" fill-opacity="1" /><path clip-path="url(#clip420)" d="M1588.3 46.921 L1608.7 46.921 L1608.7 51.84 L1581.27 51.84 L1581.27 46.921 Q1584.6 43.4778 1590.33 37.6908 Q1596.09 31.8748 1597.56 30.1966 Q1600.37 27.0427 1601.47 24.8726 Q1602.6 22.6735 1602.6 20.5612 Q1602.6 17.118 1600.17 14.9478 Q1597.77 12.7777 1593.89 12.7777 Q1591.14 12.7777 1588.07 13.7326 Q1585.03 14.6874 1581.56 16.6261 L1581.56 10.7233 Q1585.09 9.30551 1588.16 8.58213 Q1591.23 7.85875 1593.77 7.85875 Q1600.49 7.85875 1604.48 11.2152 Q1608.47 14.5717 1608.47 20.1851 Q1608.47 22.8471 1607.46 25.2487 Q1606.48 27.6214 1603.84 30.8621 Q1603.12 31.7012 1599.24 35.7232 Q1595.36 39.7162 1588.3 46.921 Z" fill="#066de9" fill-rule="evenodd" fill-opacity="1" /><path clip-path="url(#clip420)" d="M1633.47 12.4884 Q1628.96 12.4884 1626.67 16.9444 Q1624.42 21.3714 1624.42 30.2834 Q1624.42 39.1665 1626.67 43.6225 Q1628.96 48.0495 1633.47 48.0495 Q1638.01 48.0495 1640.27 43.6225 Q1642.56 39.1665 1642.56 30.2834 Q1642.56 21.3714 1640.27 16.9444 Q1638.01 12.4884 1633.47 12.4884 M1633.47 7.85875 Q1640.73 7.85875 1644.55 13.6168 Q1648.4 19.346 1648.4 30.2834 Q1648.4 41.1919 1644.55 46.95 Q1640.73 52.6791 1633.47 52.6791 Q1626.21 52.6791 1622.36 46.95 Q1618.54 41.1919 1618.54 30.2834 Q1618.54 19.346 1622.36 13.6168 Q1626.21 7.85875 1633.47 7.85875 Z" fill="#066de9" fill-rule="evenodd" fill-opacity="1" /><path clip-path="url(#clip420)" d="M1659.28 21.1978 L1665.39 21.1978 L1665.39 28.5473 L1659.28 28.5473 L1659.28 21.1978 M1659.28 44.4905 L1665.39 44.4905 L1665.39 49.4673 L1660.64 58.7265 L1656.91 58.7265 L1659.28 49.4673 L1659.28 44.4905 Z" fill="#066de9" fill-rule="evenodd" fill-opacity="1" /><path clip-path="url(#clip420)" d="M1717.38 20.3876 L1717.38 25.4223 Q1715.13 24.2649 1712.7 23.6862 Q1710.27 23.1075 1707.66 23.1075 Q1703.7 23.1075 1701.7 24.3228 Q1699.73 25.5381 1699.73 27.9686 Q1699.73 29.8204 1701.15 30.891 Q1702.57 31.9327 1706.85 32.8876 L1708.67 33.2926 Q1714.35 34.5079 1716.72 36.7359 Q1719.12 38.935 1719.12 42.8991 Q1719.12 47.4129 1715.53 50.046 Q1711.97 52.6791 1705.72 52.6791 Q1703.12 52.6791 1700.28 52.1583 Q1697.48 51.6664 1694.35 50.6537 L1694.35 45.156 Q1697.3 46.6896 1700.17 47.4708 Q1703.03 48.2231 1705.84 48.2231 Q1709.6 48.2231 1711.63 46.95 Q1713.65 45.6479 1713.65 43.3042 Q1713.65 41.134 1712.18 39.9766 Q1710.73 38.8192 1705.78 37.7486 L1703.93 37.3146 Q1698.98 36.273 1696.78 34.1318 Q1694.58 31.9616 1694.58 28.2001 Q1694.58 23.6283 1697.82 21.1399 Q1701.06 18.6515 1707.02 18.6515 Q1709.98 18.6515 1712.58 19.0855 Q1715.18 19.5196 1717.38 20.3876 Z" fill="#066de9" fill-rule="evenodd" fill-opacity="1" /><path clip-path="url(#clip420)" d="M1740.16 23.1654 Q1735.87 23.1654 1733.38 26.5218 Q1730.9 29.8494 1730.9 35.6653 Q1730.9 41.4813 1733.36 44.8377 Q1735.84 48.1653 1740.16 48.1653 Q1744.41 48.1653 1746.9 44.8088 Q1749.39 41.4523 1749.39 35.6653 Q1749.39 29.9072 1746.9 26.5508 Q1744.41 23.1654 1740.16 23.1654 M1740.16 18.6515 Q1747.1 18.6515 1751.06 23.1654 Q1755.03 27.6792 1755.03 35.6653 Q1755.03 43.6225 1751.06 48.1653 Q1747.1 52.6791 1740.16 52.6791 Q1733.18 52.6791 1729.22 48.1653 Q1725.28 43.6225 1725.28 35.6653 Q1725.28 27.6792 1729.22 23.1654 Q1733.18 18.6515 1740.16 18.6515 Z" fill="#066de9" fill-rule="evenodd" fill-opacity="1" /><path clip-path="url(#clip420)" d="M1763.3 39.0507 L1763.3 19.4328 L1768.63 19.4328 L1768.63 38.8482 Q1768.63 43.4488 1770.42 45.7636 Q1772.22 48.0495 1775.8 48.0495 Q1780.11 48.0495 1782.6 45.3007 Q1785.12 42.5519 1785.12 37.8065 L1785.12 19.4328 L1790.44 19.4328 L1790.44 51.84 L1785.12 51.84 L1785.12 46.8632 Q1783.18 49.8145 1780.61 51.2613 Q1778.06 52.6791 1774.68 52.6791 Q1769.09 52.6791 1766.2 49.2069 Q1763.3 45.7347 1763.3 39.0507 M1776.7 18.6515 L1776.7 18.6515 Z" fill="#066de9" fill-rule="evenodd" fill-opacity="1" /><path clip-path="url(#clip420)" d="M1820.19 24.4096 Q1819.29 23.8888 1818.22 23.6573 Q1817.18 23.3969 1815.91 23.3969 Q1811.39 23.3969 1808.96 26.3482 Q1806.56 29.2707 1806.56 34.7683 L1806.56 51.84 L1801.21 51.84 L1801.21 19.4328 L1806.56 19.4328 L1806.56 24.4675 Q1808.24 21.5161 1810.93 20.0983 Q1813.62 18.6515 1817.47 18.6515 Q1818.02 18.6515 1818.69 18.7383 Q1819.35 18.7962 1820.16 18.9409 L1820.19 24.4096 Z" fill="#066de9" fill-rule="evenodd" fill-opacity="1" /><path clip-path="url(#clip420)" d="M1847.79 20.677 L1847.79 25.6538 Q1845.54 24.4096 1843.25 23.802 Q1840.99 23.1654 1838.68 23.1654 Q1833.5 23.1654 1830.64 26.464 Q1827.77 29.7336 1827.77 35.6653 Q1827.77 41.597 1830.64 44.8956 Q1833.5 48.1653 1838.68 48.1653 Q1840.99 48.1653 1843.25 47.5576 Q1845.54 46.921 1847.79 45.6768 L1847.79 50.5958 Q1845.57 51.6375 1843.16 52.1583 Q1840.79 52.6791 1838.1 52.6791 Q1830.78 52.6791 1826.47 48.0784 Q1822.16 43.4778 1822.16 35.6653 Q1822.16 27.7371 1826.5 23.1943 Q1830.87 18.6515 1838.45 18.6515 Q1840.91 18.6515 1843.25 19.1724 Q1845.59 19.6642 1847.79 20.677 Z" fill="#066de9" fill-rule="evenodd" fill-opacity="1" /><path clip-path="url(#clip420)" d="M1884.77 34.3054 L1884.77 36.9095 L1860.29 36.9095 Q1860.64 42.4072 1863.59 45.3007 Q1866.57 48.1653 1871.87 48.1653 Q1874.93 48.1653 1877.8 47.4129 Q1880.69 46.6606 1883.53 45.156 L1883.53 50.1907 Q1880.66 51.406 1877.65 52.0425 Q1874.65 52.6791 1871.55 52.6791 Q1863.79 52.6791 1859.25 48.1653 Q1854.74 43.6514 1854.74 35.9547 Q1854.74 27.9975 1859.02 23.339 Q1863.33 18.6515 1870.62 18.6515 Q1877.16 18.6515 1880.95 22.876 Q1884.77 27.0716 1884.77 34.3054 M1879.45 32.7429 Q1879.39 28.3737 1876.99 25.7695 Q1874.62 23.1654 1870.68 23.1654 Q1866.23 23.1654 1863.53 25.6827 Q1860.87 28.2001 1860.47 32.7718 L1879.45 32.7429 Z" fill="#066de9" fill-rule="evenodd" fill-opacity="1" /><path clip-path="url(#clip420)" d="M1894.87 44.4905 L1900.98 44.4905 L1900.98 51.84 L1894.87 51.84 L1894.87 44.4905 M1894.87 21.1978 L1900.98 21.1978 L1900.98 28.5473 L1894.87 28.5473 L1894.87 21.1978 Z" fill="#066de9" fill-rule="evenodd" fill-opacity="1" /><path clip-path="url(#clip420)" d="M1929.22 19.4328 L1934.54 19.4328 L1941.2 44.722 L1947.82 19.4328 L1954.1 19.4328 L1960.76 44.722 L1967.38 19.4328 L1972.71 19.4328 L1964.23 51.84 L1957.95 51.84 L1950.98 25.2776 L1943.97 51.84 L1937.69 51.84 L1929.22 19.4328 Z" fill="#066de9" fill-rule="evenodd" fill-opacity="1" /><path clip-path="url(#clip420)" d="M1993.34 23.1654 Q1989.05 23.1654 1986.57 26.5218 Q1984.08 29.8494 1984.08 35.6653 Q1984.08 41.4813 1986.54 44.8377 Q1989.03 48.1653 1993.34 48.1653 Q1997.59 48.1653 2000.08 44.8088 Q2002.57 41.4523 2002.57 35.6653 Q2002.57 29.9072 2000.08 26.5508 Q1997.59 23.1654 1993.34 23.1654 M1993.34 18.6515 Q2000.28 18.6515 2004.25 23.1654 Q2008.21 27.6792 2008.21 35.6653 Q2008.21 43.6225 2004.25 48.1653 Q2000.28 52.6791 1993.34 52.6791 Q1986.36 52.6791 1982.4 48.1653 Q1978.46 43.6225 1978.46 35.6653 Q1978.46 27.6792 1982.4 23.1654 Q1986.36 18.6515 1993.34 18.6515 Z" fill="#066de9" fill-rule="evenodd" fill-opacity="1" /><path clip-path="url(#clip420)" d="M2035.81 24.4096 Q2034.92 23.8888 2033.85 23.6573 Q2032.8 23.3969 2031.53 23.3969 Q2027.02 23.3969 2024.59 26.3482 Q2022.19 29.2707 2022.19 34.7683 L2022.19 51.84 L2016.83 51.84 L2016.83 19.4328 L2022.19 19.4328 L2022.19 24.4675 Q2023.86 21.5161 2026.55 20.0983 Q2029.25 18.6515 2033.09 18.6515 Q2033.64 18.6515 2034.31 18.7383 Q2034.97 18.7962 2035.78 18.9409 L2035.81 24.4096 Z" fill="#066de9" fill-rule="evenodd" fill-opacity="1" /><path clip-path="url(#clip420)" d="M2041.4 6.81709 L2046.72 6.81709 L2046.72 51.84 L2041.4 51.84 L2041.4 6.81709 Z" fill="#066de9" fill-rule="evenodd" fill-opacity="1" /><path clip-path="url(#clip420)" d="M2079.19 24.3517 L2079.19 6.81709 L2084.51 6.81709 L2084.51 51.84 L2079.19 51.84 L2079.19 46.9789 Q2077.51 49.8724 2074.93 51.2902 Q2072.39 52.6791 2068.8 52.6791 Q2062.93 52.6791 2059.22 47.9916 Q2055.55 43.3042 2055.55 35.6653 Q2055.55 28.0265 2059.22 23.339 Q2062.93 18.6515 2068.8 18.6515 Q2072.39 18.6515 2074.93 20.0693 Q2077.51 21.4582 2079.19 24.3517 M2061.05 35.6653 Q2061.05 41.5391 2063.45 44.8956 Q2065.88 48.2231 2070.1 48.2231 Q2074.33 48.2231 2076.76 44.8956 Q2079.19 41.5391 2079.19 35.6653 Q2079.19 29.7915 2076.76 26.464 Q2074.33 23.1075 2070.1 23.1075 Q2065.88 23.1075 2063.45 26.464 Q2061.05 29.7915 2061.05 35.6653 Z" fill="#066de9" fill-rule="evenodd" fill-opacity="1" /><path clip-path="url(#clip420)" d="M2118.74 35.6653 Q2118.74 29.7915 2116.31 26.464 Q2113.91 23.1075 2109.68 23.1075 Q2105.46 23.1075 2103.03 26.464 Q2100.63 29.7915 2100.63 35.6653 Q2100.63 41.5391 2103.03 44.8956 Q2105.46 48.2231 2109.68 48.2231 Q2113.91 48.2231 2116.31 44.8956 Q2118.74 41.5391 2118.74 35.6653 M2100.63 24.3517 Q2102.31 21.4582 2104.85 20.0693 Q2107.43 18.6515 2110.99 18.6515 Q2116.89 18.6515 2120.56 23.339 Q2124.27 28.0265 2124.27 35.6653 Q2124.27 43.3042 2120.56 47.9916 Q2116.89 52.6791 2110.99 52.6791 Q2107.43 52.6791 2104.85 51.2902 Q2102.31 49.8724 2100.63 46.9789 L2100.63 51.84 L2095.28 51.84 L2095.28 6.81709 L2100.63 6.81709 L2100.63 24.3517 Z" fill="#066de9" fill-rule="evenodd" fill-opacity="1" /><path clip-path="url(#clip420)" d="M2147.82 35.5496 Q2141.37 35.5496 2138.88 37.0253 Q2136.39 38.501 2136.39 42.06 Q2136.39 44.8956 2138.24 46.5738 Q2140.12 48.2231 2143.34 48.2231 Q2147.76 48.2231 2150.43 45.0981 Q2153.12 41.9442 2153.12 36.7359 L2153.12 35.5496 L2147.82 35.5496 M2158.44 33.3505 L2158.44 51.84 L2153.12 51.84 L2153.12 46.921 Q2151.29 49.8724 2148.57 51.2902 Q2145.85 52.6791 2141.92 52.6791 Q2136.94 52.6791 2133.99 49.9014 Q2131.07 47.0947 2131.07 42.4072 Q2131.07 36.9385 2134.71 34.1607 Q2138.39 31.3829 2145.65 31.3829 L2153.12 31.3829 L2153.12 30.8621 Q2153.12 27.1874 2150.69 25.1908 Q2148.28 23.1654 2143.91 23.1654 Q2141.14 23.1654 2138.5 23.8309 Q2135.87 24.4964 2133.44 25.8274 L2133.44 20.9085 Q2136.36 19.78 2139.11 19.2302 Q2141.86 18.6515 2144.46 18.6515 Q2151.5 18.6515 2154.97 22.2973 Q2158.44 25.9431 2158.44 33.3505 Z" fill="#066de9" fill-rule="evenodd" fill-opacity="1" /><path clip-path="url(#clip420)" d="M2196.35 32.2799 L2196.35 51.84 L2191.02 51.84 L2191.02 32.4535 Q2191.02 27.8529 2189.23 25.567 Q2187.43 23.2811 2183.85 23.2811 Q2179.53 23.2811 2177.05 26.03 Q2174.56 28.7788 2174.56 33.5241 L2174.56 51.84 L2169.2 51.84 L2169.2 19.4328 L2174.56 19.4328 L2174.56 24.4675 Q2176.47 21.545 2179.04 20.0983 Q2181.65 18.6515 2185.03 18.6515 Q2190.62 18.6515 2193.48 22.1237 Q2196.35 25.567 2196.35 32.2799 Z" fill="#066de9" fill-rule="evenodd" fill-opacity="1" /><path clip-path="url(#clip420)" d="M2206.76 6.81709 L2212.11 6.81709 L2212.11 33.4084 L2228 19.4328 L2234.8 19.4328 L2217.61 34.5947 L2235.52 51.84 L2228.58 51.84 L2212.11 36.0125 L2212.11 51.84 L2206.76 51.84 L2206.76 6.81709 Z" fill="#066de9" fill-rule="evenodd" fill-opacity="1" /><path clip-path="url(#clip420)" d="M2242.03 44.4905 L2248.14 44.4905 L2248.14 51.84 L2242.03 51.84 L2242.03 44.4905 Z" fill="#066de9" fill-rule="evenodd" fill-opacity="1" /><path clip-path="url(#clip420)" d="M2272.68 23.1654 Q2268.39 23.1654 2265.91 26.5218 Q2263.42 29.8494 2263.42 35.6653 Q2263.42 41.4813 2265.88 44.8377 Q2268.36 48.1653 2272.68 48.1653 Q2276.93 48.1653 2279.42 44.8088 Q2281.91 41.4523 2281.91 35.6653 Q2281.91 29.9072 2279.42 26.5508 Q2276.93 23.1654 2272.68 23.1654 M2272.68 18.6515 Q2279.62 18.6515 2283.58 23.1654 Q2287.55 27.6792 2287.55 35.6653 Q2287.55 43.6225 2283.58 48.1653 Q2279.62 52.6791 2272.68 52.6791 Q2265.7 52.6791 2261.74 48.1653 Q2257.8 43.6225 2257.8 35.6653 Q2257.8 27.6792 2261.74 23.1654 Q2265.7 18.6515 2272.68 18.6515 Z" fill="#066de9" fill-rule="evenodd" fill-opacity="1" /><path clip-path="url(#clip420)" d="M2315.15 24.4096 Q2314.26 23.8888 2313.18 23.6573 Q2312.14 23.3969 2310.87 23.3969 Q2306.36 23.3969 2303.93 26.3482 Q2301.52 29.2707 2301.52 34.7683 L2301.52 51.84 L2296.17 51.84 L2296.17 19.4328 L2301.52 19.4328 L2301.52 24.4675 Q2303.2 21.5161 2305.89 20.0983 Q2308.58 18.6515 2312.43 18.6515 Q2312.98 18.6515 2313.65 18.7383 Q2314.31 18.7962 2315.12 18.9409 L2315.15 24.4096 Z" fill="#066de9" fill-rule="evenodd" fill-opacity="1" /><path clip-path="url(#clip420)" d="M2341.02 35.2602 Q2341.02 29.4732 2338.62 26.2904 Q2336.25 23.1075 2331.93 23.1075 Q2327.65 23.1075 2325.25 26.2904 Q2322.88 29.4732 2322.88 35.2602 Q2322.88 41.0183 2325.25 44.2012 Q2327.65 47.384 2331.93 47.384 Q2336.25 47.384 2338.62 44.2012 Q2341.02 41.0183 2341.02 35.2602 M2346.34 47.818 Q2346.34 56.0934 2342.67 60.1154 Q2338.99 64.1663 2331.41 64.1663 Q2328.61 64.1663 2326.12 63.7323 Q2323.63 63.3272 2321.29 62.4592 L2321.29 57.2798 Q2323.63 58.5529 2325.92 59.1606 Q2328.2 59.7682 2330.57 59.7682 Q2335.81 59.7682 2338.42 57.0194 Q2341.02 54.2995 2341.02 48.7729 L2341.02 46.1398 Q2339.37 49.0044 2336.8 50.4222 Q2334.22 51.84 2330.63 51.84 Q2324.67 51.84 2321.03 47.2972 Q2317.38 42.7544 2317.38 35.2602 Q2317.38 27.7371 2321.03 23.1943 Q2324.67 18.6515 2330.63 18.6515 Q2334.22 18.6515 2336.8 20.0693 Q2339.37 21.4872 2341.02 24.3517 L2341.02 19.4328 L2346.34 19.4328 L2346.34 47.818 Z" fill="#066de9" fill-rule="evenodd" fill-opacity="1" /><path clip-path="url(#clip420)" d="M2356.47 6.87496 L2361.1 6.87496 Q2365.44 13.7036 2367.58 20.2429 Q2369.75 26.7823 2369.75 33.2348 Q2369.75 39.7162 2367.58 46.2845 Q2365.44 52.8527 2361.1 59.6525 L2356.47 59.6525 Q2360.32 53.0263 2362.2 46.487 Q2364.11 39.9188 2364.11 33.2348 Q2364.11 26.5508 2362.2 20.0404 Q2360.32 13.53 2356.47 6.87496 Z" fill="#066de9" fill-rule="evenodd" fill-opacity="1" /><polyline clip-path="url(#clip422)" style="stroke:#068de9; stroke-linecap:round; stroke-linejoin:round; stroke-width:4; stroke-opacity:1; fill:none" points="
  385.495,1446.28 423.694,1441.66 461.893,1447.38 500.093,1427.07 538.292,1410.47 576.491,1406.41 614.69,1396.14 652.89,1385.9 691.089,1370.72 729.288,1352.94 
  767.487,1352.74 805.687,1351.61 843.886,1347.75 882.085,1340.42 920.284,1329.08 958.484,1317.14 996.683,1303.27 1034.88,1288.35 1073.08,1275.89 1111.28,1269.48 
  1149.48,1258.75 1187.68,1214.61 1225.88,1207.34 1264.08,1211.77 1302.28,1188.65 1340.48,1170.12 1378.68,1148.37 1416.87,1131.59 1455.07,1128.89 1493.27,1106.17 
  1531.47,1077.81 1569.67,1077.41 1607.87,1084.03 1646.07,1071.29 1684.27,1008.01 1722.47,982.786 1760.67,950.062 1798.87,907.295 1837.07,901.71 1875.27,884.762 
  1913.46,762.02 1951.66,707.633 1989.86,667.714 2028.06,617.6 2066.26,560.987 2104.46,484.219 2142.66,409.325 2180.86,321.911 2219.06,231.44 2257.26,145.256 
  2295.46,945.444 
  "/>
</svg>
