<?xml version="1.0" encoding="utf-8"?>
<svg xmlns="http://www.w3.org/2000/svg" xmlns:xlink="http://www.w3.org/1999/xlink" width="600" height="400" viewBox="0 0 2400 1600">
<defs>
  <clipPath id="clip060">
    <rect x="0" y="0" width="2400" height="1600"/>
  </clipPath>
</defs>

<polyline clip-path="url(#clip062)" style="stroke:#42affa; stroke-linecap:round; stroke-linejoin:round; stroke-width:4; stroke-opacity:1; fill:none" points="
  112.494,1489.01 113.365,1487.2 114.235,1490.97 115.105,1487.83 115.976,1485.76 116.846,1487.65 117.717,1484.45 118.587,1487.75 119.457,1488.29 120.328,1484.32 
  121.198,1485.4 122.068,1484.79 122.939,1487.72 123.809,1490.71 124.679,1492.6 125.55,1486.48 126.42,1484.72 127.29,1484.73 128.161,1487.63 129.031,1489.71 
  129.901,1492 130.772,1490 131.642,1487.37 132.513,1486.35 133.383,1484.16 134.253,1482.78 135.124,1481.06 135.994,1482.09 136.864,1486.16 137.735,1488.92 
  138.605,1486.16 139.475,1485.77 140.346,1487.18 141.216,1488.43 142.086,1491.31 142.957,1486.85 143.827,1487.66 144.697,1491.83 145.568,1490.78 146.438,1492.24 
  147.309,1492.76 148.179,1487.42 149.049,1486.89 149.92,1489.03 150.79,1490.47 151.66,1487.63 152.531,1486.49 153.401,1486.7 154.271,1487.13 155.142,1482.71 
  156.012,1476.76 156.882,1477.85 157.753,1480.52 158.623,1484.93 159.493,1481.33 160.364,1483.95 161.234,1482.01 162.105,1483.14 162.975,1484.78 163.845,1484.07 
  164.716,1478.64 165.586,1481.72 166.456,1479.8 167.327,1480.83 168.197,1483.49 169.067,1481.91 169.938,1480.67 170.808,1478.96 171.678,1477.39 172.549,1479.31 
  173.419,1478.96 174.289,1480.51 175.16,1480.15 176.03,1479.93 176.901,1481.1 177.771,1473.73 178.641,1474.94 179.512,1475.63 180.382,1475.77 181.252,1480.16 
  182.123,1474.1 182.993,1478.09 183.863,1474.66 184.734,1470.13 185.604,1467.57 186.474,1471.06 187.345,1474.61 188.215,1472.61 189.085,1470.8 189.956,1471.01 
  190.826,1470.46 191.697,1476.38 192.567,1473.4 193.437,1476.29 194.308,1478.89 195.178,1480.74 196.048,1483.39 196.919,1483.05 197.789,1483.51 198.659,1480.76 
  199.53,1482.75 200.4,1485.99 201.27,1483.02 202.141,1484.36 203.011,1482.71 203.881,1484.46 204.752,1487 205.622,1488.86 206.493,1488.77 207.363,1485.9 
  208.233,1488.61 209.104,1485.02 209.974,1484.79 210.844,1483.62 211.715,1482.24 212.585,1484.63 213.455,1483.14 214.326,1480.63 215.196,1479.97 216.066,1484.26 
  216.937,1479.34 217.807,1482 218.677,1490.2 219.548,1490.32 220.418,1490.16 221.289,1490.76 222.159,1491.12 223.029,1490.37 223.9,1492.44 224.77,1493.67 
  225.64,1494.92 226.511,1498.63 227.381,1499.45 228.251,1501.33 229.122,1500.17 229.992,1499.52 230.862,1499.09 231.733,1500.97 232.603,1498.81 233.473,1499.3 
  234.344,1497.98 235.214,1497.29 236.084,1498.65 236.955,1498.71 237.825,1499.29 238.696,1498.11 239.566,1498.57 240.436,1500.95 241.307,1505.11 242.177,1505.69 
  243.047,1506.26 243.918,1508.42 244.788,1507.96 245.658,1508.31 246.529,1508.07 247.399,1504.38 248.269,1505.17 249.14,1503.55 250.01,1502.74 250.88,1505.08 
  251.751,1502.53 252.621,1504.04 253.492,1500.26 254.362,1500.08 255.232,1498.93 256.103,1502.33 256.973,1504.5 257.843,1506.02 258.714,1508.59 259.584,1509.12 
  260.454,1509.7 261.325,1510.15 262.195,1509.21 263.065,1508.67 263.936,1508.35 264.806,1505.94 265.676,1506.83 266.547,1505.2 267.417,1505.17 268.288,1502.92 
  269.158,1503.52 270.028,1503.6 270.899,1505.41 271.769,1506.38 272.639,1504.26 273.51,1501.97 274.38,1499.72 275.25,1501.33 276.121,1498.93 276.991,1497.84 
  277.861,1497.29 278.732,1494.13 279.602,1489.54 280.472,1493.13 281.343,1492.58 282.213,1494.83 283.084,1498.68 283.954,1503.51 284.824,1505.39 285.695,1505.55 
  286.565,1504.14 287.435,1502.37 288.306,1501.37 289.176,1499.64 290.046,1498.13 290.917,1499.16 291.787,1496.85 292.657,1496.03 293.528,1498.44 294.398,1494.05 
  295.268,1497.01 296.139,1496.13 297.009,1498.1 297.88,1498.61 298.75,1497.88 299.62,1497.57 300.491,1493.77 301.361,1492.21 302.231,1485.76 303.102,1489.2 
  303.972,1491.46 304.842,1493.23 305.713,1488.31 306.583,1479.14 307.453,1476.77 308.324,1480.59 309.194,1482.6 310.064,1487 310.935,1486.77 311.805,1488.42 
  312.676,1483.88 313.546,1480.88 314.416,1483.03 315.287,1483.64 316.157,1480.72 317.027,1481.68 317.898,1484.57 318.768,1485.4 319.638,1486.37 320.509,1480.45 
  321.379,1477.21 322.249,1476.26 323.12,1475.35 323.99,1476.64 324.86,1473.22 325.731,1467.73 326.601,1467.4 327.472,1469.31 328.342,1476.26 329.212,1481.17 
  330.083,1482 330.953,1482.56 331.823,1479.02 332.694,1479.74 333.564,1482.61 334.434,1484.51 335.305,1486.18 336.175,1485.2 337.045,1489.36 337.916,1491.83 
  338.786,1488.49 339.656,1487.23 340.527,1483.07 341.397,1478.48 342.268,1479.43 343.138,1473.79 344.008,1477.85 344.879,1475.76 345.749,1472.73 346.619,1465.23 
  347.49,1468.55 348.36,1466.64 349.23,1468.22 350.101,1464.92 350.971,1465.35 351.841,1463.55 352.712,1459.55 353.582,1460.91 354.452,1460.14 355.323,1458.67 
  356.193,1459.74 357.064,1462.4 357.934,1467.48 358.804,1472.26 359.675,1474.81 360.545,1478.38 361.415,1478.72 362.286,1483.86 363.156,1485.58 364.026,1485.27 
  364.897,1487.36 365.767,1488.97 366.637,1491.4 367.508,1491.86 368.378,1488.71 369.248,1488.8 370.119,1490.48 370.989,1487.08 371.86,1485.46 372.73,1486.96 
  373.6,1489.23 374.471,1489.77 375.341,1487.78 376.211,1487.76 377.082,1490.45 377.952,1491.85 378.822,1487.13 379.693,1487.6 380.563,1496.85 381.433,1492.58 
  382.304,1488.67 383.174,1488.39 384.044,1486.16 384.915,1482.32 385.785,1486.04 386.655,1485.63 387.526,1481.78 388.396,1483.23 389.267,1478.64 390.137,1473.03 
  391.007,1473.1 391.878,1473.85 392.748,1474.15 393.618,1473.43 394.489,1471.05 395.359,1474.42 396.229,1469.66 397.1,1468.84 397.97,1464.95 398.84,1462.97 
  399.711,1464 400.581,1463.72 401.451,1459.06 402.322,1452.62 403.192,1460.01 404.063,1456.76 404.933,1453.23 405.803,1455.56 406.674,1453.9 407.544,1454.94 
  408.414,1451.65 409.285,1450.2 410.155,1447.5 411.025,1447.74 411.896,1453.33 412.766,1451.65 413.636,1460.14 414.507,1457.65 415.377,1457.52 416.247,1457.1 
  417.118,1448.94 417.988,1443.76 418.859,1448.19 419.729,1456.34 420.599,1453.34 421.47,1454.72 422.34,1454.83 423.21,1443.05 424.081,1442.92 424.951,1437.31 
  425.821,1437.01 426.692,1433.83 427.562,1420.59 428.432,1412.29 429.303,1413.45 430.173,1407.45 431.043,1409.86 431.914,1388.78 432.784,1395.8 433.655,1388.53 
  434.525,1375.54 435.395,1374.9 436.266,1367.19 437.136,1378.2 438.006,1388.26 438.877,1391.45 439.747,1385.61 440.617,1384.72 441.488,1385.64 442.358,1380.28 
  443.228,1363.02 444.099,1370.24 444.969,1377.59 445.839,1372.62 446.71,1368.37 447.58,1360.2 448.451,1357.56 449.321,1368.21 450.191,1371.52 451.062,1367.13 
  451.932,1369.67 452.802,1374.65 453.673,1379.52 454.543,1378.28 455.413,1360.83 456.284,1368.04 457.154,1368.44 458.024,1362.77 458.895,1358.78 459.765,1360.51 
  460.635,1357.93 461.506,1353.38 462.376,1351.09 463.247,1345.54 464.117,1344.91 464.987,1332.73 465.858,1336.52 466.728,1330.79 467.598,1338.88 468.469,1335.71 
  469.339,1349.69 470.209,1332.43 471.08,1321.28 471.95,1330.63 472.82,1325.3 473.691,1324.9 474.561,1310.89 475.431,1309.43 476.302,1315.91 477.172,1305.41 
  478.043,1306.81 478.913,1290.59 479.783,1280.51 480.654,1271.28 481.524,1269.72 482.394,1274.8 483.265,1254.18 484.135,1252.37 485.005,1252.35 485.876,1260.21 
  486.746,1238.99 487.616,1224.05 488.487,1225.22 489.357,1218.16 490.227,1232.28 491.098,1237.26 491.968,1233.52 492.839,1227.41 493.709,1255.53 494.579,1249.54 
  495.45,1253.35 496.32,1262.09 497.19,1280.21 498.061,1277.87 498.931,1278.13 499.801,1269.35 500.672,1279.57 501.542,1291.58 502.412,1302.96 503.283,1312.17 
  504.153,1327.34 505.023,1313.92 505.894,1330.3 506.764,1332.9 507.635,1341.7 508.505,1351.19 509.375,1361.06 510.246,1364.96 511.116,1350.76 511.986,1339.45 
  512.857,1343.07 513.727,1334.23 514.597,1326.94 515.468,1336.86 516.338,1321.55 517.208,1319.41 518.079,1326.59 518.949,1330.72 519.819,1334.44 520.69,1346.47 
  521.56,1357.46 522.431,1347.1 523.301,1341.45 524.171,1341.86 525.042,1341.14 525.912,1352.84 526.782,1333.63 527.653,1330.71 528.523,1326.17 529.393,1323.87 
  530.264,1329.84 531.134,1339.05 532.004,1350.09 532.875,1359.79 533.745,1350.39 534.615,1354.2 535.486,1349.13 536.356,1354.3 537.226,1359.84 538.097,1364.63 
  538.967,1368.17 539.838,1372.91 540.708,1373.27 541.578,1361.24 542.449,1343.65 543.319,1334.35 544.189,1329.71 545.06,1339.48 545.93,1337.68 546.8,1354.45 
  547.671,1360.91 548.541,1364.95 549.411,1346.89 550.282,1348.08 551.152,1366.82 552.022,1353.44 552.893,1356.21 553.763,1359.61 554.634,1349.03 555.504,1336.2 
  556.374,1340.66 557.245,1333.03 558.115,1346.92 558.985,1347.19 559.856,1355.99 560.726,1363.01 561.596,1348.86 562.467,1338.63 563.337,1325.8 564.207,1319.26 
  565.078,1306.43 565.948,1275.24 566.818,1268.87 567.689,1279.75 568.559,1269.18 569.43,1276.42 570.3,1278.64 571.17,1289.8 572.041,1303.26 572.911,1307.61 
  573.781,1326.81 574.652,1335.16 575.522,1346.47 576.392,1334.22 577.263,1339.85 578.133,1351.87 579.003,1359.65 579.874,1352.87 580.744,1356.25 581.614,1355.11 
  582.485,1365.54 583.355,1359.83 584.226,1365.96 585.096,1346.49 585.966,1331.12 586.837,1327.44 587.707,1332.28 588.577,1312.08 589.448,1328.3 590.318,1317.31 
  591.188,1339.91 592.059,1338.26 592.929,1345.14 593.799,1340.43 594.67,1352.32 595.54,1353.62 596.41,1346.48 597.281,1349.47 598.151,1327.03 599.022,1320.25 
  599.892,1321.98 600.762,1317.98 601.633,1313.97 602.503,1332.68 603.373,1326.6 604.244,1334.01 605.114,1337.18 605.984,1336.85 606.855,1319.01 607.725,1322.15 
  608.595,1325.59 609.466,1298.24 610.336,1294.15 611.206,1293.56 612.077,1301.94 612.947,1291.79 613.818,1284.7 614.688,1298.86 615.558,1309.04 616.429,1311.92 
  617.299,1328.46 618.169,1326.66 619.04,1334.72 619.91,1342.64 620.78,1340.67 621.651,1353.62 622.521,1348.13 623.391,1347.71 624.262,1348.4 625.132,1357.03 
  626.002,1348.91 626.873,1338.75 627.743,1326.13 628.614,1306.2 629.484,1291.1 630.354,1279.1 631.225,1275.01 632.095,1273.26 632.965,1275.81 633.836,1262.01 
  634.706,1267.66 635.576,1252.74 636.447,1251.36 637.317,1251.69 638.187,1263.9 639.058,1285.35 639.928,1274.7 640.798,1241.64 641.669,1236.98 642.539,1266.28 
  643.41,1294.23 644.28,1306.58 645.15,1307.75 646.021,1299.76 646.891,1316.02 647.761,1331.77 648.632,1336.96 649.502,1353.17 650.372,1351.25 651.243,1343.4 
  652.113,1343.1 652.983,1340.79 653.854,1336 654.724,1324.64 655.594,1329.63 656.465,1319.99 657.335,1318.28 658.206,1330.6 659.076,1332.63 659.946,1335.45 
  660.817,1333.15 661.687,1330.49 662.557,1344.31 663.428,1331.41 664.298,1345.11 665.168,1344.81 666.039,1354.29 666.909,1339 667.779,1310.78 668.65,1306.17 
  669.52,1306.77 670.39,1302.66 671.261,1324.59 672.131,1317.13 673.002,1308 673.872,1297.45 674.742,1300.91 675.613,1302.98 676.483,1304.43 677.353,1323.08 
  678.224,1342.8 679.094,1359.75 679.964,1347.89 680.835,1350.94 681.705,1347.52 682.575,1328.43 683.446,1342.34 684.316,1346.01 685.186,1344.44 686.057,1332.62 
  686.927,1354.37 687.797,1336.5 688.668,1341.2 689.538,1349.08 690.409,1350.94 691.279,1345.82 692.149,1350 693.02,1346.66 693.89,1350.96 694.76,1335.46 
  695.631,1332.44 696.501,1319.89 697.371,1324.63 698.242,1323.68 699.112,1302.78 699.982,1321.86 700.853,1294.4 701.723,1306.26 702.593,1294.58 703.464,1309.72 
  704.334,1318.93 705.205,1307.56 706.075,1304.62 706.945,1283.89 707.816,1283.55 708.686,1285.12 709.556,1290.28 710.427,1283.62 711.297,1272.74 712.167,1259.75 
  713.038,1270.37 713.908,1271.5 714.778,1268.63 715.649,1269.61 716.519,1275.48 717.389,1265.5 718.26,1288.47 719.13,1290.14 720.001,1283 720.871,1276.36 
  721.741,1266.05 722.612,1237.56 723.482,1249.87 724.352,1229.36 725.223,1217.26 726.093,1212.57 726.963,1226.04 727.834,1240.84 728.704,1242.16 729.574,1228.32 
  730.445,1224.2 731.315,1226.9 732.185,1219.89 733.056,1211.54 733.926,1188.98 734.797,1200.43 735.667,1181.54 736.537,1162.61 737.408,1147.9 738.278,1165.02 
  739.148,1151.53 740.019,1154.07 740.889,1193.27 741.759,1159.63 742.63,1150.45 743.5,1125.36 744.37,1091.2 745.241,1074.9 746.111,1050.24 746.981,1073.33 
  747.852,1037.88 748.722,1026.72 749.593,1036.09 750.463,993.948 751.333,984.182 752.204,994.255 753.074,994.348 753.944,997.531 754.815,1000.13 755.685,971.169 
  756.555,980.686 757.426,1009.68 758.296,975.009 759.166,1001.65 760.037,942.37 760.907,985.218 761.777,980.702 762.648,966.806 763.518,964.169 764.389,969.163 
  765.259,988.368 766.129,1000.83 767,997.109 767.87,955.851 768.74,970.437 769.611,999.209 770.481,991.362 771.351,962.28 772.222,999.473 773.092,991.33 
  773.962,983.047 774.833,979.653 775.703,960.265 776.573,902.836 777.444,929.185 778.314,926.977 779.185,911.664 780.055,929.984 780.925,931.935 781.796,948.887 
  782.666,974.37 783.536,1002.1 784.407,1004.18 785.277,1007.05 786.147,1007.15 787.018,1000.15 787.888,958.798 788.758,925.851 789.629,897.718 790.499,821.714 
  791.369,845.298 792.24,800.876 793.11,833.342 793.981,848.111 794.851,851.905 795.721,827.466 796.592,861.429 797.462,895.476 798.332,883.411 799.203,913.445 
  800.073,861.176 800.943,896.442 801.814,908.319 802.684,903.149 803.554,946.014 804.425,954.135 805.295,920.082 806.165,935.747 807.036,956.946 807.906,953.695 
  808.777,934.642 809.647,941.955 810.517,967.703 811.388,956.111 812.258,976.168 813.128,982.453 813.999,938.207 814.869,957.072 815.739,987.645 816.61,987.299 
  817.48,945.344 818.35,981.262 819.221,982.99 820.091,959.576 820.961,985.256 821.832,955.918 822.702,926.618 823.573,998.853 824.443,1026.95 825.313,1019.88 
  826.184,1008.82 827.054,1038.7 827.924,997.796 828.795,938.269 829.665,938.459 830.535,988.671 831.406,1010.74 832.276,956.632 833.146,928.834 834.017,954.73 
  834.887,981.212 835.757,1006.71 836.628,1009.38 837.498,1012.96 838.368,1017.35 839.239,949.311 840.109,926.222 840.98,916.268 841.85,890.936 842.72,860.678 
  843.591,835.457 844.461,831.733 845.331,770.098 846.202,786.04 847.072,740.859 847.942,748.675 848.813,782.213 849.683,845.008 850.553,881.037 851.424,804.128 
  852.294,859.695 853.164,771.683 854.035,763.307 854.905,760.858 855.776,651.573 856.646,605.86 857.516,673.406 858.387,692.734 859.257,626.389 860.127,569.065 
  860.998,544.209 861.868,497.071 862.738,484.358 863.609,522.231 864.479,566.104 865.349,520.725 866.22,522.909 867.09,570.087 867.96,559.92 868.831,549.359 
  869.701,570.602 870.572,583.46 871.442,531.786 872.312,543.755 873.183,469.669 874.053,562.092 874.923,555.431 875.794,517.073 876.664,499.329 877.534,593.601 
  878.405,608.723 879.275,505.937 880.145,567.676 881.016,694.341 881.886,724.046 882.756,713.532 883.627,713.97 884.497,673.795 885.368,658.768 886.238,685.927 
  887.108,707.68 887.979,692.217 888.849,674.801 889.719,727.791 890.59,744.581 891.46,717.968 892.33,763.506 893.201,730.755 894.071,755.227 894.941,701.87 
  895.812,726.067 896.682,747.564 897.552,765.784 898.423,800.876 899.293,808.384 900.164,849.502 901.034,847.783 901.904,853.906 902.775,873.205 903.645,857.636 
  904.515,848.996 905.386,896.843 906.256,883.786 907.126,940.511 907.997,963.928 908.867,895.98 909.737,906.695 910.608,863.801 911.478,871.148 912.348,893.437 
  913.219,905.952 914.089,984.416 914.96,998.858 915.83,968.351 916.7,970.645 917.571,985.678 918.441,1010.91 919.311,957.809 920.182,985.079 921.052,1002.75 
  921.922,1032.72 922.793,1015.25 923.663,1041.7 924.533,1014.51 925.404,998.284 926.274,1039.77 927.144,1064.32 928.015,1097.42 928.885,1080.34 929.756,1068.41 
  930.626,1072.99 931.496,1057.2 932.367,1068.81 933.237,1051.82 934.107,1066.32 934.978,1082.57 935.848,1060.88 936.718,1064.1 937.589,1055.54 938.459,1066.26 
  939.329,1061.41 940.2,1047.68 941.07,1057.21 941.94,1061.17 942.811,1056.56 943.681,1040.84 944.552,1043.04 945.422,1020.21 946.292,1028.87 947.163,999.517 
  948.033,986.683 948.903,968.457 949.774,962.88 950.644,961.841 951.514,982.418 952.385,988.483 953.255,1008.77 954.125,1002.8 954.996,1027.28 955.866,1074.66 
  956.736,1010.52 957.607,1009.57 958.477,1030.52 959.348,1034.4 960.218,1048.32 961.088,1044 961.959,1037.41 962.829,947.859 963.699,960.287 964.57,980.88 
  965.44,961.71 966.31,1023.62 967.181,1046.33 968.051,1044.74 968.921,999.487 969.792,999.472 970.662,975.908 971.532,1029.24 972.403,1069.99 973.273,1100.26 
  974.144,1090.52 975.014,1112.55 975.884,1123.7 976.755,1120.35 977.625,1142.23 978.495,1106.18 979.366,1076.5 980.236,1116.48 981.106,1090.43 981.977,1112.83 
  982.847,1129.6 983.717,1117.71 984.588,1130.97 985.458,1152.99 986.328,1150 987.199,1159.1 988.069,1141.39 988.939,1130.87 989.81,1136.3 990.68,1153.41 
  991.551,1145.24 992.421,1100.55 993.291,1104.84 994.162,1094.86 995.032,1089.85 995.902,1091.45 996.773,1126.47 997.643,1121.79 998.513,1163.13 999.384,1152.48 
  1000.25,1153.83 1001.12,1139.06 1001.99,1124.95 1002.87,1121.66 1003.74,1081.47 1004.61,1081.81 1005.48,1100.3 1006.35,1146.42 1007.22,1117.75 1008.09,1096.96 
  1008.96,1072.75 1009.83,1077.78 1010.7,1062.77 1011.57,1085.99 1012.44,1077.45 1013.31,1085.33 1014.18,1051.62 1015.05,1040.52 1015.92,1065.7 1016.79,1113.93 
  1017.66,1079.55 1018.53,1062.38 1019.4,1055.26 1020.27,1063.93 1021.14,1060.58 1022.01,1039.06 1022.88,1023.91 1023.75,1048.63 1024.62,1083.37 1025.49,1086.36 
  1026.36,1090.47 1027.24,1125.18 1028.11,1094.63 1028.98,1142.82 1029.85,1116.69 1030.72,1124.45 1031.59,1119.06 1032.46,1127.95 1033.33,1132.59 1034.2,1146.66 
  1035.07,1148.31 1035.94,1137.58 1036.81,1118.55 1037.68,1119.19 1038.55,1094.18 1039.42,1091.77 1040.29,1080.51 1041.16,1077.45 1042.03,1091.5 1042.9,1108.84 
  1043.77,1111.04 1044.64,1136.65 1045.51,1123.75 1046.38,1159.44 1047.25,1151.8 1048.12,1174.85 1048.99,1169.27 1049.86,1144.2 1050.73,1127.72 1051.6,1107.43 
  1052.48,1110.46 1053.35,1121.48 1054.22,1077.67 1055.09,1095.67 1055.96,1123.09 1056.83,1096.35 1057.7,1092.23 1058.57,1097.75 1059.44,1074.42 1060.31,1050.63 
  1061.18,1066.16 1062.05,1083.52 1062.92,1100.5 1063.79,1100.18 1064.66,1025.27 1065.53,1044.95 1066.4,994.533 1067.27,983.941 1068.14,991.203 1069.01,978.963 
  1069.88,1002.57 1070.75,1003.2 1071.62,998.767 1072.49,1001.08 1073.36,1019.17 1074.23,1000.77 1075.1,972.806 1075.97,973.678 1076.85,1036.43 1077.72,1060.65 
  1078.59,1086.68 1079.46,1083.6 1080.33,1094.99 1081.2,1084.64 1082.07,1102.9 1082.94,1117.46 1083.81,1093.55 1084.68,1085.11 1085.55,1049.05 1086.42,1037.31 
  1087.29,1042.13 1088.16,1043.36 1089.03,1005.27 1089.9,1021.99 1090.77,1009.43 1091.64,1038.99 1092.51,1006.07 1093.38,1009.68 1094.25,1014.64 1095.12,1021.55 
  1095.99,977.442 1096.86,1005 1097.73,979.396 1098.6,1004.95 1099.47,971.01 1100.34,1008.53 1101.21,1010.17 1102.09,996.505 1102.96,935.715 1103.83,959.271 
  1104.7,953.739 1105.57,954.88 1106.44,949.742 1107.31,954.275 1108.18,870.473 1109.05,907.667 1109.92,931.16 1110.79,872.344 1111.66,777.45 1112.53,786.382 
  1113.4,780.195 1114.27,770.173 1115.14,740.781 1116.01,753.972 1116.88,766.004 1117.75,729.333 1118.62,719.307 1119.49,728.844 1120.36,763.18 1121.23,746.117 
  1122.1,739.577 1122.97,785.705 1123.84,769.616 1124.71,790.648 1125.58,826.985 1126.46,780.445 1127.33,807.051 1128.2,821.379 1129.07,801.622 1129.94,799.361 
  1130.81,841.364 1131.68,874.425 1132.55,888.136 1133.42,847.01 1134.29,792.775 1135.16,812.116 1136.03,851.321 1136.9,859.611 1137.77,871.995 1138.64,869.389 
  1139.51,914.354 1140.38,925.676 1141.25,917.46 1142.12,875.853 1142.99,888.134 1143.86,872.708 1144.73,818.824 1145.6,869.845 1146.47,862.079 1147.34,900.008 
  1148.21,906.925 1149.08,897.588 1149.95,910.778 1150.83,945.835 1151.7,983.064 1152.57,938.995 1153.44,935.123 1154.31,939.073 1155.18,916.104 1156.05,867.336 
  1156.92,879.404 1157.79,869.707 1158.66,908.058 1159.53,900.974 1160.4,869.346 1161.27,896.843 1162.14,883.487 1163.01,890.058 1163.88,904.903 1164.75,854.84 
  1165.62,866.895 1166.49,815.342 1167.36,796.093 1168.23,768.88 1169.1,791.895 1169.97,806.27 1170.84,814.316 1171.71,901.939 1172.58,947.328 1173.45,884.649 
  1174.32,795.91 1175.19,772.649 1176.07,778.374 1176.94,764.96 1177.81,783.907 1178.68,812.292 1179.55,807.308 1180.42,777.349 1181.29,809.252 1182.16,815.637 
  1183.03,815.561 1183.9,835.91 1184.77,806.899 1185.64,830.885 1186.51,801.173 1187.38,754.293 1188.25,733.431 1189.12,685.243 1189.99,670.713 1190.86,648.633 
  1191.73,586.465 1192.6,602.102 1193.47,642.314 1194.34,609.815 1195.21,547.294 1196.08,611.556 1196.95,549.909 1197.82,448.581 1198.69,472.969 1199.56,498.121 
  1200.44,562.238 1201.31,589.115 1202.18,564.874 1203.05,585.227 1203.92,650.613 1204.79,614.631 1205.66,576.811 1206.53,448.237 1207.4,400.043 1208.27,382.405 
  1209.14,421.768 1210.01,375.368 1210.88,398.373 1211.75,316.055 1212.62,340.893 1213.49,318.12 1214.36,335.387 1215.23,349.796 1216.1,357.93 1216.97,392.996 
  1217.84,349.257 1218.71,390.202 1219.58,384.384 1220.45,412.622 1221.32,490.791 1222.19,379.403 1223.06,272.599 1223.93,222.377 1224.81,205.062 1225.68,297.278 
  1226.55,364.685 1227.42,336.652 1228.29,292.294 1229.16,237.158 1230.03,158.385 1230.9,89.8529 1231.77,136.19 1232.64,145.726 1233.51,193.776 1234.38,276.928 
  1235.25,356.627 1236.12,386.464 1236.99,419.031 1237.86,506.883 1238.73,513.65 1239.6,590.193 1240.47,605.612 1241.34,610.333 1242.21,578.031 1243.08,562.311 
  1243.95,598.58 1244.82,575.65 1245.69,550.467 1246.56,587.77 1247.43,548.756 1248.3,593.474 1249.17,551.884 1250.05,613.55 1250.92,566.393 1251.79,579.35 
  1252.66,567.655 1253.53,574.832 1254.4,595.352 1255.27,639.177 1256.14,601.823 1257.01,546.701 1257.88,587.114 1258.75,554.585 1259.62,680.986 1260.49,696.145 
  1261.36,618.67 1262.23,628.46 1263.1,622.588 1263.97,651.98 1264.84,691.15 1265.71,679.733 1266.58,625.989 1267.45,603.591 1268.32,576.664 1269.19,559.471 
  1270.06,609.647 1270.93,609.109 1271.8,665.176 1272.67,722.715 1273.54,754.609 1274.42,769.109 1275.29,779.929 1276.16,794.264 1277.03,828.929 1277.9,808.31 
  1278.77,741.491 1279.64,710.392 1280.51,758.401 1281.38,731.52 1282.25,708.931 1283.12,674.068 1283.99,673.455 1284.86,656.105 1285.73,665.891 1286.6,650.953 
  1287.47,704.768 1288.34,711.77 1289.21,684.495 1290.08,607.369 1290.95,529.867 1291.82,499.367 1292.69,388.235 1293.56,488.683 1294.43,450.951 1295.3,464.826 
  1296.17,402.051 1297.04,327.717 1297.91,385.7 1298.79,426.601 1299.66,401.522 1300.53,352.672 1301.4,366.198 1302.27,283.475 1303.14,271.792 1304.01,242.946 
  1304.88,291.297 1305.75,358.974 1306.62,485.278 1307.49,454.613 1308.36,553.657 1309.23,614.322 1310.1,657.463 1310.97,628.749 1311.84,652.615 1312.71,716.743 
  1313.58,778.955 1314.45,759.482 1315.32,762.333 1316.19,746.411 1317.06,686.47 1317.93,620.153 1318.8,609.749 1319.67,613.282 1320.54,630.189 1321.41,620.391 
  1322.28,562.692 1323.15,529.515 1324.03,595.755 1324.9,600.651 1325.77,675.969 1326.64,675.451 1327.51,704.1 1328.38,719.309 1329.25,711.853 1330.12,758.784 
  1330.99,777.66 1331.86,745.819 1332.73,761.771 1333.6,693.818 1334.47,781.369 1335.34,760.165 1336.21,795.132 1337.08,787.134 1337.95,788.488 1338.82,844.597 
  1339.69,843.044 1340.56,823.866 1341.43,775.179 1342.3,712.033 1343.17,627.271 1344.04,597.043 1344.91,548.991 1345.78,530.853 1346.65,520.708 1347.52,475.099 
  1348.4,553.002 1349.27,595.085 1350.14,547.977 1351.01,518.02 1351.88,588.398 1352.75,556.674 1353.62,615.13 1354.49,606.947 1355.36,659.527 1356.23,655.953 
  1357.1,585.022 1357.97,509.866 1358.84,508.201 1359.71,548.166 1360.58,543.525 1361.45,475.209 1362.32,455.325 1363.19,465.025 1364.06,598.806 1364.93,531.903 
  1365.8,504.338 1366.67,492.012 1367.54,437.799 1368.41,455.933 1369.28,437.884 1370.15,323.909 1371.02,249.862 1371.89,359.75 1372.76,313.92 1373.64,374.394 
  1374.51,345.713 1375.38,370.893 1376.25,348.033 1377.12,276.704 1377.99,335.614 1378.86,295.911 1379.73,391.138 1380.6,359.808 1381.47,398.024 1382.34,453.819 
  1383.21,488.294 1384.08,502.738 1384.95,502.59 1385.82,482.852 1386.69,531.534 1387.56,581.526 1388.43,518.728 1389.3,649.244 1390.17,681.415 1391.04,702.979 
  1391.91,643.96 1392.78,616.364 1393.65,599.073 1394.52,604.007 1395.39,609.566 1396.26,566.601 1397.13,649.06 1398.01,696.834 1398.88,708.301 1399.75,754.959 
  1400.62,823.964 1401.49,808.025 1402.36,766.151 1403.23,741.862 1404.1,704.078 1404.97,735.102 1405.84,736.968 1406.71,756.715 1407.58,761.334 1408.45,791.377 
  1409.32,769.936 1410.19,829.26 1411.06,836.42 1411.93,865.757 1412.8,812.863 1413.67,786.718 1414.54,788.241 1415.41,786.045 1416.28,774.659 1417.15,780.901 
  1418.02,762.986 1418.89,794.657 1419.76,816.086 1420.63,876.093 1421.5,949.194 1422.38,1000.77 1423.25,987.077 1424.12,1008.45 1424.99,1034.95 1425.86,1011.08 
  1426.73,984.544 1427.6,971.744 1428.47,974.361 1429.34,984.519 1430.21,1017.44 1431.08,1001.49 1431.95,970.254 1432.82,986.524 1433.69,953.027 1434.56,912.886 
  1435.43,892.441 1436.3,924.483 1437.17,879.35 1438.04,865.773 1438.91,917.715 1439.78,889.097 1440.65,859.211 1441.52,826.548 1442.39,832.064 1443.26,840.766 
  1444.13,857.989 1445,849.963 1445.87,889.273 1446.74,895.202 1447.62,882.341 1448.49,886.674 1449.36,875.509 1450.23,850.089 1451.1,847.419 1451.97,840.699 
  1452.84,843.519 1453.71,936.078 1454.58,953.822 1455.45,939.924 1456.32,923.693 1457.19,940.911 1458.06,963.823 1458.93,967.258 1459.8,979.708 1460.67,1010.51 
  1461.54,1023.64 1462.41,1014.4 1463.28,1017.18 1464.15,1007.1 1465.02,1053 1465.89,1007.86 1466.76,992.771 1467.63,1006.26 1468.5,1011.02 1469.37,1053.92 
  1470.24,1079.5 1471.11,1070.83 1471.99,1087.98 1472.86,1128.55 1473.73,1102.46 1474.6,1135.99 1475.47,1180.95 1476.34,1203 1477.21,1207.27 1478.08,1182.92 
  1478.95,1184.6 1479.82,1177.61 1480.69,1152.56 1481.56,1153.49 1482.43,1134.15 1483.3,1152.63 1484.17,1139.95 1485.04,1136.28 1485.91,1163.01 1486.78,1154.92 
  1487.65,1162.05 1488.52,1185.82 1489.39,1168.38 1490.26,1182.54 1491.13,1162.54 1492,1125.16 1492.87,1102.96 1493.74,1127.78 1494.61,1145.8 1495.48,1095.76 
  1496.36,1126.21 1497.23,1119.79 1498.1,1123.42 1498.97,1142.64 1499.84,1160.27 1500.71,1145.18 1501.58,1146.88 1502.45,1163.08 1503.32,1165 1504.19,1168.16 
  1505.06,1189.2 1505.93,1184.71 1506.8,1197.26 1507.67,1173.45 1508.54,1181.1 1509.41,1188.48 1510.28,1191.57 1511.15,1204.01 1512.02,1215.11 1512.89,1208.81 
  1513.76,1211.53 1514.63,1185.7 1515.5,1193.88 1516.37,1187.35 1517.24,1203.25 1518.11,1190.84 1518.98,1149.58 1519.85,1138.52 1520.72,1152.69 1521.6,1147.1 
  1522.47,1169.57 1523.34,1196.7 1524.21,1180.66 1525.08,1199.94 1525.95,1216.3 1526.82,1226.6 1527.69,1199.93 1528.56,1231.02 1529.43,1220.76 1530.3,1220.81 
  1531.17,1186.12 1532.04,1177.49 1532.91,1188.66 1533.78,1188.57 1534.65,1173.79 1535.52,1145.72 1536.39,1140.07 1537.26,1145.04 1538.13,1151.23 1539,1158.99 
  1539.87,1151.58 1540.74,1142.72 1541.61,1168.4 1542.48,1165.05 1543.35,1163.35 1544.22,1171.12 1545.09,1177.3 1545.97,1179.86 1546.84,1208.74 1547.71,1205.68 
  1548.58,1198.29 1549.45,1195.96 1550.32,1172.65 1551.19,1178.35 1552.06,1190.85 1552.93,1202.65 1553.8,1195.38 1554.67,1197.9 1555.54,1210.86 1556.41,1216.28 
  1557.28,1213.35 1558.15,1200.58 1559.02,1186.36 1559.89,1204.26 1560.76,1208.22 1561.63,1244.09 1562.5,1245.51 1563.37,1240.66 1564.24,1241.98 1565.11,1213.39 
  1565.98,1226.44 1566.85,1220.89 1567.72,1191.12 1568.59,1183.68 1569.46,1160.92 1570.34,1185.12 1571.21,1167.56 1572.08,1191.53 1572.95,1186.07 1573.82,1179.47 
  1574.69,1212.56 1575.56,1194.67 1576.43,1158.03 1577.3,1170.94 1578.17,1165.98 1579.04,1170.26 1579.91,1160.58 1580.78,1174.79 1581.65,1199.74 1582.52,1205.05 
  1583.39,1207.02 1584.26,1221.94 1585.13,1218.45 1586,1237.93 1586.87,1247.67 1587.74,1242.92 1588.61,1230.18 1589.48,1225.27 1590.35,1217.31 1591.22,1246.03 
  1592.09,1238.31 1592.96,1238.78 1593.83,1240.28 1594.7,1255.91 1595.58,1260.64 1596.45,1302.34 1597.32,1315.37 1598.19,1300.95 1599.06,1302.56 1599.93,1321.47 
  1600.8,1343.73 1601.67,1356.31 1602.54,1350.99 1603.41,1349.54 1604.28,1337.84 1605.15,1336.79 1606.02,1325.95 1606.89,1341.99 1607.76,1354.31 1608.63,1367.95 
  1609.5,1387.34 1610.37,1392.34 1611.24,1396.73 1612.11,1400.21 1612.98,1404.99 1613.85,1400.6 1614.72,1399.41 1615.59,1400.96 1616.46,1404.25 1617.33,1414.95 
  1618.2,1415.47 1619.07,1420.26 1619.95,1417.5 1620.82,1426.91 1621.69,1430.31 1622.56,1422.95 1623.43,1418.85 1624.3,1425.5 1625.17,1411.7 1626.04,1412.98 
  1626.91,1414.09 1627.78,1403.92 1628.65,1397.47 1629.52,1404.22 1630.39,1398.17 1631.26,1402.9 1632.13,1400.49 1633,1399.95 1633.87,1407.49 1634.74,1413.42 
  1635.61,1404.89 1636.48,1406.29 1637.35,1408.36 1638.22,1401.3 1639.09,1409.05 1639.96,1401.23 1640.83,1396.71 1641.7,1400.62 1642.57,1416.5 1643.44,1407.14 
  1644.32,1404.77 1645.19,1399.28 1646.06,1400 1646.93,1408.16 1647.8,1413.97 1648.67,1423.03 1649.54,1405.58 1650.41,1405.96 1651.28,1399.01 1652.15,1400.47 
  1653.02,1402.59 1653.89,1403.86 1654.76,1391.61 1655.63,1387.4 1656.5,1398.07 1657.37,1398.75 1658.24,1396.36 1659.11,1400.18 1659.98,1395.57 1660.85,1397.54 
  1661.72,1388 1662.59,1371.66 1663.46,1358.61 1664.33,1359.93 1665.2,1356.38 1666.07,1352.71 1666.94,1357.11 1667.81,1364.22 1668.68,1364.08 1669.56,1362.6 
  1670.43,1365.16 1671.3,1357.66 1672.17,1366.07 1673.04,1360.53 1673.91,1354.92 1674.78,1347.36 1675.65,1337.54 1676.52,1309.93 1677.39,1303.68 1678.26,1309.74 
  1679.13,1301.31 1680,1304.16 1680.87,1298.02 1681.74,1306.95 1682.61,1292.22 1683.48,1289.17 1684.35,1315.87 1685.22,1332.71 1686.09,1322.79 1686.96,1328.19 
  1687.83,1318.35 1688.7,1310.73 1689.57,1327.49 1690.44,1340.09 1691.31,1349.23 1692.18,1358.47 1693.05,1364.04 1693.93,1362.38 1694.8,1360.85 1695.67,1361.94 
  1696.54,1366.75 1697.41,1354.92 1698.28,1358.15 1699.15,1361.92 1700.02,1367.21 1700.89,1377.77 1701.76,1381.23 1702.63,1379.99 1703.5,1365.9 1704.37,1368.88 
  1705.24,1381.7 1706.11,1385.39 1706.98,1385.35 1707.85,1372.09 1708.72,1385.31 1709.59,1390.9 1710.46,1396.43 1711.33,1405.11 1712.2,1411.43 1713.07,1421.41 
  1713.94,1414.26 1714.81,1408.62 1715.68,1414.01 1716.55,1411.56 1717.42,1408.41 1718.29,1407.07 1719.17,1406.09 1720.04,1410.43 1720.91,1405.15 1721.78,1398.05 
  1722.65,1391.4 1723.52,1387.25 1724.39,1388.42 1725.26,1379.36 1726.13,1372.77 1727,1369.91 1727.87,1377.21 1728.74,1373.22 1729.61,1377.33 1730.48,1372.28 
  1731.35,1364.84 1732.22,1365.24 1733.09,1365.23 1733.96,1373.41 1734.83,1375.31 1735.7,1384.94 1736.57,1394.88 1737.44,1398.78 1738.31,1412.17 1739.18,1419.01 
  1740.05,1414.93 1740.92,1416.75 1741.79,1410.74 1742.66,1404.85 1743.54,1417.54 1744.41,1418.12 1745.28,1424.07 1746.15,1432.91 1747.02,1436.45 1747.89,1447.5 
  1748.76,1440.33 1749.63,1451.29 1750.5,1445.23 1751.37,1448.91 1752.24,1452.29 1753.11,1449.76 1753.98,1447.75 1754.85,1454.14 1755.72,1456.02 1756.59,1454.15 
  1757.46,1448.31 1758.33,1443.14 1759.2,1441.86 1760.07,1446.41 1760.94,1444 1761.81,1449.11 1762.68,1448.26 1763.55,1445.38 1764.42,1445.75 1765.29,1443.5 
  1766.16,1442.16 1767.03,1437.68 1767.91,1443.41 1768.78,1444.2 1769.65,1445.62 1770.52,1445.1 1771.39,1437.6 1772.26,1436.35 1773.13,1447.32 1774,1449.95 
  1774.87,1446.56 1775.74,1447.1 1776.61,1439.43 1777.48,1447.01 1778.35,1445.42 1779.22,1440.86 1780.09,1444.46 1780.96,1451.12 1781.83,1443.73 1782.7,1440.18 
  1783.57,1444.41 1784.44,1444.54 1785.31,1447.69 1786.18,1451.14 1787.05,1457.7 1787.92,1447.34 1788.79,1447.8 1789.66,1445.36 1790.53,1442.99 1791.4,1445.69 
  1792.27,1449.4 1793.15,1447.09 1794.02,1446.98 1794.89,1453.13 1795.76,1456.68 1796.63,1447.92 1797.5,1452.7 1798.37,1452.11 1799.24,1452.43 1800.11,1444.9 
  1800.98,1446.02 1801.85,1452.31 1802.72,1449.86 1803.59,1446.88 1804.46,1449.47 1805.33,1447.25 1806.2,1445.49 1807.07,1443.75 1807.94,1445 1808.81,1447.81 
  1809.68,1436.98 1810.55,1432.27 1811.42,1430.67 1812.29,1435.48 1813.16,1432.08 1814.03,1422.55 1814.9,1422.59 1815.77,1426.97 1816.64,1432.88 1817.52,1438.93 
  1818.39,1444.92 1819.26,1444.63 1820.13,1451.68 1821,1455.32 1821.87,1459.86 1822.74,1457.2 1823.61,1461.9 1824.48,1459.74 1825.35,1455.64 1826.22,1444.58 
  1827.09,1439.96 1827.96,1441.18 1828.83,1435.8 1829.7,1426.66 1830.57,1425.58 1831.44,1415.17 1832.31,1409.83 1833.18,1404.95 1834.05,1404.44 1834.92,1394.65 
  1835.79,1389.49 1836.66,1379.82 1837.53,1387.91 1838.4,1383.63 1839.27,1377.96 1840.14,1383.33 1841.01,1376.44 1841.89,1387.27 1842.76,1374.21 1843.63,1370.87 
  1844.5,1369.18 1845.37,1369.89 1846.24,1362.93 1847.11,1357.73 1847.98,1357.36 1848.85,1363.93 1849.72,1365.37 1850.59,1371.91 1851.46,1365.31 1852.33,1356.97 
  1853.2,1371.54 1854.07,1368.2 1854.94,1371.6 1855.81,1382.95 1856.68,1371.07 1857.55,1363.36 1858.42,1363.13 1859.29,1365.96 1860.16,1352.42 1861.03,1347.16 
  1861.9,1331.92 1862.77,1328.89 1863.64,1328.06 1864.51,1326.09 1865.38,1327.82 1866.25,1324.3 1867.13,1319.83 1868,1304.1 1868.87,1298.36 1869.74,1292.34 
  1870.61,1286.51 1871.48,1283.76 1872.35,1279.77 1873.22,1270.32 1874.09,1290.35 1874.96,1299.75 1875.83,1318.36 1876.7,1330.48 1877.57,1320.87 1878.44,1338.07 
  1879.31,1341.58 1880.18,1330.42 1881.05,1309.48 1881.92,1321.86 1882.79,1307.73 1883.66,1318.77 1884.53,1309.86 1885.4,1315.09 1886.27,1322.57 1887.14,1319.47 
  1888.01,1341.71 1888.88,1337.93 1889.75,1340.29 1890.62,1342.15 1891.5,1337.53 1892.37,1345.76 1893.24,1341.04 1894.11,1345.85 1894.98,1352.56 1895.85,1336.64 
  1896.72,1329.69 1897.59,1316.24 1898.46,1309.89 1899.33,1308.04 1900.2,1333.28 1901.07,1334.52 1901.94,1336.42 1902.81,1344.59 1903.68,1315.49 1904.55,1292.23 
  1905.42,1281.29 1906.29,1262.51 1907.16,1265.1 1908.03,1272.34 1908.9,1264.6 1909.77,1239.94 1910.64,1231.91 1911.51,1241.99 1912.38,1234.72 1913.25,1252.67 
  1914.12,1259.7 1914.99,1255.07 1915.87,1251.33 1916.74,1274.05 1917.61,1250.35 1918.48,1253.26 1919.35,1227.2 1920.22,1232.23 1921.09,1260.42 1921.96,1294.48 
  1922.83,1305.64 1923.7,1294.57 1924.57,1297.47 1925.44,1273.75 1926.31,1283.05 1927.18,1280.43 1928.05,1290.08 1928.92,1275.25 1929.79,1274.65 1930.66,1273.89 
  1931.53,1280.88 1932.4,1265.77 1933.27,1236.09 1934.14,1247.4 1935.01,1243.73 1935.88,1224.98 1936.75,1227 1937.62,1221.13 1938.49,1215.62 1939.36,1202.55 
  1940.23,1176.46 1941.11,1179.78 1941.98,1157.36 1942.85,1176.36 1943.72,1184.65 1944.59,1187.83 1945.46,1213.94 1946.33,1224.22 1947.2,1238.33 1948.07,1228.79 
  1948.94,1239.91 1949.81,1249.45 1950.68,1247.08 1951.55,1257.62 1952.42,1277.9 1953.29,1266.27 1954.16,1274.03 1955.03,1292.45 1955.9,1289.61 1956.77,1293.41 
  1957.64,1288.22 1958.51,1292.64 1959.38,1294.39 1960.25,1290.82 1961.12,1298.99 1961.99,1316.75 1962.86,1322.21 1963.73,1318.28 1964.6,1329.87 1965.48,1337.19 
  1966.35,1329.9 1967.22,1325.56 1968.09,1324.79 1968.96,1321.23 1969.83,1331.63 1970.7,1319.3 1971.57,1321.8 1972.44,1332.32 1973.31,1322.94 1974.18,1325.1 
  1975.05,1324.46 1975.92,1327.99 1976.79,1330.88 1977.66,1319.8 1978.53,1314.14 1979.4,1305.87 1980.27,1305.91 1981.14,1288.53 1982.01,1285.58 1982.88,1282.4 
  1983.75,1286.76 1984.62,1288.77 1985.49,1275.75 1986.36,1261.55 1987.23,1263.09 1988.1,1262.73 1988.97,1266.97 1989.84,1260.15 1990.72,1243.16 1991.59,1235.77 
  1992.46,1221.76 1993.33,1229.88 1994.2,1252.29 1995.07,1274.92 1995.94,1255.15 1996.81,1233.61 1997.68,1237.75 1998.55,1230.76 1999.42,1229.51 2000.29,1254.47 
  2001.16,1243.22 2002.03,1245 2002.9,1239.67 2003.77,1249.52 2004.64,1249.04 2005.51,1261.83 2006.38,1271.84 2007.25,1261.47 2008.12,1262.43 2008.99,1262.81 
  2009.86,1245.85 2010.73,1268.72 2011.6,1260.69 2012.47,1244.94 2013.34,1219.71 2014.21,1226.57 2015.09,1225.05 2015.96,1202.09 2016.83,1224.74 2017.7,1215.48 
  2018.57,1220.83 2019.44,1228.48 2020.31,1263.54 2021.18,1259.69 2022.05,1252.74 2022.92,1251 2023.79,1233.67 2024.66,1226.69 2025.53,1229.99 2026.4,1233.05 
  2027.27,1238.98 2028.14,1247.46 2029.01,1232.8 2029.88,1236.72 2030.75,1232.27 2031.62,1228.4 2032.49,1221.53 2033.36,1204.11 2034.23,1186.14 2035.1,1168.38 
  2035.97,1168.84 2036.84,1193.73 2037.71,1185.65 2038.58,1175.65 2039.46,1178.18 2040.33,1200.63 2041.2,1190.54 2042.07,1189.72 2042.94,1188.39 2043.81,1212.22 
  2044.68,1196.83 2045.55,1191.93 2046.42,1185.94 2047.29,1186.8 2048.16,1172.87 2049.03,1138.33 2049.9,1129.6 2050.77,1099.32 2051.64,1100.88 2052.51,1091.64 
  2053.38,1043.93 2054.25,1004.57 2055.12,1039.77 2055.99,1068.78 2056.86,1050.23 2057.73,1039.45 2058.6,1034.56 2059.47,1036.14 2060.34,1032.1 2061.21,1024.07 
  2062.08,1007.81 2062.95,1013.15 2063.82,1035.97 2064.7,1034.28 2065.57,986.073 2066.44,1034.35 2067.31,1017.05 2068.18,1017.65 2069.05,1028.65 2069.92,1020.45 
  2070.79,1000.23 2071.66,1026.01 2072.53,1062.08 2073.4,1091.66 2074.27,1116.74 2075.14,1084.15 2076.01,1092.56 2076.88,1117.94 2077.75,1130.66 2078.62,1144.6 
  2079.49,1137.43 2080.36,1156.92 2081.23,1176.44 2082.1,1179.47 2082.97,1167.67 2083.84,1147.02 2084.71,1129.28 2085.58,1114.42 2086.45,1109.68 2087.32,1119 
  2088.19,1106.54 2089.07,1138.06 2089.94,1115.35 2090.81,1121.97 2091.68,1142.26 2092.55,1175.46 2093.42,1211.69 2094.29,1224.72 2095.16,1244.01 2096.03,1254.48 
  2096.9,1265.66 2097.77,1283.23 2098.64,1262.92 2099.51,1252.64 2100.38,1246.87 2101.25,1257.61 2102.12,1242.31 2102.99,1252 2103.86,1266.87 2104.73,1253.42 
  2105.6,1246.6 2106.47,1213.14 2107.34,1219.26 2108.21,1220.75 2109.08,1211.4 2109.95,1207 2110.82,1236.1 2111.69,1253.55 2112.56,1248.47 2113.44,1263 
  2114.31,1266.39 2115.18,1269.81 2116.05,1256.17 2116.92,1256.87 2117.79,1248.24 2118.66,1258.27 2119.53,1254.8 2120.4,1233.14 2121.27,1212.72 2122.14,1208.21 
  2123.01,1207.58 2123.88,1205.23 2124.75,1193.62 2125.62,1174.8 2126.49,1182.98 2127.36,1205.54 2128.23,1221.16 2129.1,1208.34 2129.97,1193.72 2130.84,1211.31 
  2131.71,1214.74 2132.58,1221.49 2133.45,1206.33 2134.32,1218.34 2135.19,1214.58 2136.06,1193.51 2136.93,1166.8 2137.8,1161.93 2138.68,1164.82 2139.55,1179.49 
  2140.42,1184.17 2141.29,1204.8 2142.16,1170.1 2143.03,1209.81 2143.9,1171.07 2144.77,1157.68 2145.64,1164.34 2146.51,1141.57 2147.38,1176.68 2148.25,1167.99 
  2149.12,1169.8 2149.99,1164.95 2150.86,1165.79 2151.73,1162.86 2152.6,1153.58 2153.47,1178.06 2154.34,1194.92 2155.21,1204.84 2156.08,1185.87 2156.95,1179.62 
  2157.82,1149.45 2158.69,1164.12 2159.56,1183.45 2160.43,1183.61 2161.3,1181.66 2162.17,1166.56 2163.05,1140.86 2163.92,1143.94 2164.79,1176.88 2165.66,1170.69 
  2166.53,1165.66 2167.4,1175.1 2168.27,1192.05 2169.14,1196.32 2170.01,1182.03 2170.88,1165.28 2171.75,1153.33 2172.62,1148.32 2173.49,1156.67 2174.36,1122.77 
  2175.23,1153.35 2176.1,1171.79 2176.97,1150.7 2177.84,1162.56 2178.71,1183.38 2179.58,1201.28 2180.45,1197.88 2181.32,1223.62 2182.19,1229.26 2183.06,1210.98 
  2183.93,1216.98 2184.8,1204.34 2185.67,1219.83 2186.54,1218.85 2187.42,1202.51 2188.29,1194.34 2189.16,1188.8 2190.03,1201.05 2190.9,1205.57 2191.77,1222.59 
  2192.64,1217.61 2193.51,1213.23 2194.38,1213.39 2195.25,1192 2196.12,1179.56 2196.99,1178.79 2197.86,1178.97 2198.73,1156.42 2199.6,1140.08 2200.47,1110.62 
  2201.34,1087.37 2202.21,1114.13 2203.08,1130.32 2203.95,1101.63 2204.82,1106.93 2205.69,1104.5 2206.56,1126.97 2207.43,1124.98 2208.3,1087.21 2209.17,1069.56 
  2210.04,1055.77 2210.91,1031.02 2211.78,1081.67 2212.66,1100.25 2213.53,1130.24 2214.4,1147.66 2215.27,1150.83 2216.14,1161.54 2217.01,1151.91 2217.88,1165.89 
  2218.75,1167.8 2219.62,1176.91 2220.49,1142.84 2221.36,1162.17 2222.23,1158.1 2223.1,1143.05 2223.97,1137.57 2224.84,1135.74 2225.71,1138.13 2226.58,1120.85 
  2227.45,1106.39 2228.32,1144.09 2229.19,1145.07 2230.06,1151.37 2230.93,1130.56 2231.8,1115.42 2232.67,1120.57 2233.54,1125.31 2234.41,1092.17 2235.28,1083.6 
  2236.15,1071.74 2237.03,1083.98 2237.9,1081.59 2238.77,1071.36 2239.64,1099.84 2240.51,1104.51 2241.38,1094.15 2242.25,1099.53 2243.12,1094.76 2243.99,1111.35 
  2244.86,1119.03 2245.73,1130.77 2246.6,1157.96 2247.47,1161.62 2248.34,1163.8 2249.21,1172.23 2250.08,1172.72 2250.95,1178.14 2251.82,1167.78 2252.69,1189.76 
  2253.56,1168.45 2254.43,1151.15 2255.3,1131.13 2256.17,1126.66 2257.04,1120.45 2257.91,1139.76 2258.78,1121.07 2259.65,1145.76 2260.52,1154.07 2261.39,1141.63 
  2262.27,1135.24 2263.14,1152.11 2264.01,1185.45 2264.88,1207.39 2265.75,1224.84 2266.62,1234.37 2267.49,1252.76 2268.36,1280.15 2269.23,1277.22 2270.1,1267.24 
  2270.97,1278.48 2271.84,1266.74 2272.71,1281.88 2273.58,1275.76 2274.45,1289.26 2275.32,1302.52 2276.19,1294.03 2277.06,1304.57 2277.93,1279.79 2278.8,1311.91 
  2279.67,1296.61 2280.54,1287.44 2281.41,1285.42 2282.28,1273.37 2283.15,1268.38 2284.02,1231 2284.89,1233.54 2285.76,1259.93 2286.64,1276.24 2287.51,1286.69 
  
  "/>
</svg>
