<svg width="2400.0000000000005" height="1600" xmlns="http://www.w3.org/2000/svg">
 <defs>
  <clipPath id="clip300">
   <rect id="svg_1" height="1600" width="2400" y="0" x="0"/>
  </clipPath>
 </defs>
 <g>
  <title>Layer 1</title>
  <polyline id="svg_2" fill="none" stroke-opacity="0.3" stroke-width="2" stroke-linejoin="round" stroke-linecap="round" stroke="#068de9" points="   202.466,1486.45 202.466,47.2441    " clip-path="url(#clip302)"/>
  <polyline id="svg_3" fill="none" stroke-opacity="0.3" stroke-width="2" stroke-linejoin="round" stroke-linecap="round" stroke="#068de9" points="   620.003,1486.45 620.003,47.2441    " clip-path="url(#clip302)"/>
  <polyline id="svg_4" fill="none" stroke-opacity="0.3" stroke-width="2" stroke-linejoin="round" stroke-linecap="round" stroke="#068de9" points="   1037.54,1486.45 1037.54,47.2441    " clip-path="url(#clip302)"/>
  <polyline id="svg_5" fill="none" stroke-opacity="0.3" stroke-width="2" stroke-linejoin="round" stroke-linecap="round" stroke="#068de9" points="   1455.08,1486.45 1455.08,47.2441    " clip-path="url(#clip302)"/>
  <polyline id="svg_6" fill="none" stroke-opacity="0.3" stroke-width="2" stroke-linejoin="round" stroke-linecap="round" stroke="#068de9" points="   1872.61,1486.45 1872.61,47.2441    " clip-path="url(#clip302)"/>
  <polyline id="svg_7" fill="none" stroke-opacity="0.3" stroke-width="2" stroke-linejoin="round" stroke-linecap="round" stroke="#068de9" points="   2290.15,1486.45 2290.15,47.2441    " clip-path="url(#clip302)"/>
  <polyline id="svg_8" fill="none" stroke-width="4" stroke-linejoin="round" stroke-linecap="round" stroke="#068de9" points="   140.696,1486.45 2352.76,1486.45    " clip-path="url(#clip300)"/>
  <polyline id="svg_9" fill="none" stroke-opacity="0.3" stroke-width="2" stroke-linejoin="round" stroke-linecap="round" stroke="#068de9" points="   140.696,1225.48 2352.76,1225.48    " clip-path="url(#clip302)"/>
  <polyline id="svg_10" fill="none" stroke-opacity="0.3" stroke-width="2" stroke-linejoin="round" stroke-linecap="round" stroke="#068de9" points="   140.696,974.411 2352.76,974.411    " clip-path="url(#clip302)"/>
  <polyline id="svg_11" fill="none" stroke-opacity="0.3" stroke-width="2" stroke-linejoin="round" stroke-linecap="round" stroke="#068de9" points="   140.696,723.345 2352.76,723.345    " clip-path="url(#clip302)"/>
  <polyline id="svg_12" fill="none" stroke-opacity="0.3" stroke-width="2" stroke-linejoin="round" stroke-linecap="round" stroke="#068de9" points="   140.696,472.279 2352.76,472.279    " clip-path="url(#clip302)"/>
  <polyline id="svg_13" fill="none" stroke-opacity="0.3" stroke-width="2" stroke-linejoin="round" stroke-linecap="round" stroke="#068de9" points="   140.696,221.213 2352.76,221.213    " clip-path="url(#clip302)"/>
  <polyline id="svg_14" fill="none" stroke-width="4" stroke-linejoin="round" stroke-linecap="round" stroke="#068de9" points="   140.696,1486.45 140.696,47.2441    " clip-path="url(#clip300)"/>
  <polyline id="svg_15" fill="none" stroke-width="4" stroke-linejoin="round" stroke-linecap="round" stroke="#068de9" points="   203.301,1425.51 204.136,1423.78 204.971,1427.38 205.806,1424.39 206.641,1422.4 207.476,1424.21 208.311,1421.15 209.147,1424.3 209.982,1424.82 210.817,1421.03    211.652,1422.06 212.487,1421.48 213.322,1424.28 214.157,1427.13 214.992,1428.94 215.827,1423.09 216.662,1421.41 217.497,1421.41 218.332,1424.19 219.167,1426.18    220.002,1428.37 220.838,1426.45 221.673,1423.95 222.508,1422.96 223.343,1420.87 224.178,1419.56 225.013,1417.91 225.848,1418.9 226.683,1422.78 227.518,1425.42    228.353,1422.79 229.188,1422.41 230.023,1423.76 230.858,1424.96 231.694,1427.71 232.529,1423.44 233.364,1424.22 234.199,1428.21 235.034,1427.21 235.869,1428.6    236.704,1429.09 237.539,1423.98 238.374,1423.49 239.209,1425.53 240.044,1426.91 240.879,1424.19 241.714,1423.1 242.549,1423.3 243.385,1423.71 244.22,1419.49    245.055,1413.8 245.89,1414.84 246.725,1417.39 247.56,1421.61 248.395,1418.16 249.23,1420.67 250.065,1418.81 250.9,1419.9 251.735,1421.47 252.57,1420.79    253.405,1415.59 254.241,1418.54 255.076,1416.71 255.911,1417.69 256.746,1420.23 257.581,1418.72 258.416,1417.54 259.251,1415.9 260.086,1414.4 260.921,1416.23    261.756,1415.91 262.591,1417.39 263.426,1417.04 264.261,1416.83 265.096,1417.95 265.932,1410.91 266.767,1412.06 267.602,1412.72 268.437,1412.86 269.272,1417.05    270.107,1411.25 270.942,1415.07 271.777,1411.79 272.612,1407.46 273.447,1405.01 274.282,1408.35 275.117,1411.75 275.952,1409.83 276.788,1408.1 277.623,1408.3    278.458,1407.77 279.293,1413.44 280.128,1410.59 280.963,1413.35 281.798,1415.83 282.633,1417.6 283.468,1420.14 284.303,1419.81 285.138,1420.25 285.973,1417.62    286.808,1419.53 287.643,1422.62 288.479,1419.78 289.314,1421.07 290.149,1419.49 290.984,1421.16 291.819,1423.59 292.654,1425.36 293.489,1425.28 294.324,1422.54    295.159,1425.13 295.994,1421.69 296.829,1421.47 297.664,1420.36 298.499,1419.04 299.335,1421.33 300.17,1419.89 301.005,1417.5 301.84,1416.86 302.675,1420.97    303.51,1416.26 304.345,1418.81 305.18,1426.65 306.015,1426.76 306.85,1426.61 307.685,1427.18 308.52,1427.52 309.355,1426.81 310.19,1428.79 311.026,1429.97    311.861,1431.16 312.696,1434.71 313.531,1435.49 314.366,1437.29 315.201,1436.18 316.036,1435.56 316.871,1435.14 317.706,1436.95 318.541,1434.88 319.376,1435.35    320.211,1434.09 321.046,1433.43 321.882,1434.72 322.717,1434.78 323.552,1435.34 324.387,1434.21 325.222,1434.65 326.057,1436.92 326.892,1440.9 327.727,1441.45    328.562,1442 329.397,1444.07 330.232,1443.63 331.067,1443.96 331.902,1443.73 332.737,1440.21 333.573,1440.96 334.408,1439.4 335.243,1438.64 336.078,1440.87    336.913,1438.43 337.748,1439.88 338.583,1436.27 339.418,1436.09 340.253,1434.99 341.088,1438.25 341.923,1440.32 342.758,1441.77 343.593,1444.23 344.428,1444.74    345.264,1445.28 346.099,1445.72 346.934,1444.82 347.769,1444.31 348.604,1444 349.439,1441.7 350.274,1442.55 351.109,1440.98 351.944,1440.96 352.779,1438.81    353.614,1439.38 354.449,1439.46 355.284,1441.19 356.12,1442.12 356.955,1440.09 357.79,1437.9 358.625,1435.74 359.46,1437.29 360.295,1434.99 361.13,1433.95    361.965,1433.43 362.8,1430.4 363.635,1426.02 364.47,1429.44 365.305,1428.92 366.14,1431.08 366.975,1434.75 367.811,1439.37 368.646,1441.16 369.481,1441.32    370.316,1439.98 371.151,1438.28 371.986,1437.32 372.821,1435.67 373.656,1434.23 374.491,1435.21 375.326,1433.01 376.161,1432.22 376.996,1434.53 377.831,1430.33    378.667,1433.16 379.502,1432.32 380.337,1434.2 381.172,1434.69 382.007,1433.99 382.842,1433.7 383.677,1430.06 384.512,1428.56 385.347,1422.4 386.182,1425.69    387.017,1427.85 387.852,1429.54 388.687,1424.84 389.522,1416.08 390.358,1413.81 391.193,1417.46 392.028,1419.38 392.863,1423.59 393.698,1423.37 394.533,1424.95    395.368,1420.61 396.203,1417.74 397.038,1419.79 397.873,1420.38 398.708,1417.58 399.543,1418.51 400.378,1421.26 401.214,1422.06 402.049,1422.98 402.884,1417.32    403.719,1414.23 404.554,1413.32 405.389,1412.45 406.224,1413.69 407.059,1410.42 407.894,1405.16 408.729,1404.85 409.564,1406.67 410.399,1413.32 411.234,1418.01    412.069,1418.81 412.905,1419.34 413.74,1415.96 414.575,1416.65 415.41,1419.39 416.245,1421.2 417.08,1422.81 417.915,1421.87 418.75,1425.85 419.585,1428.2    420.42,1425.01 421.255,1423.81 422.09,1419.83 422.925,1415.44 423.761,1416.35 424.596,1410.96 425.431,1414.85 426.266,1412.84 427.101,1409.95 427.936,1402.77    428.771,1405.95 429.606,1404.13 430.441,1405.64 431.276,1402.48 432.111,1402.89 432.946,1401.17 433.781,1397.35 434.616,1398.64 435.452,1397.91 436.287,1396.51    437.122,1397.53 437.957,1400.07 438.792,1404.93 439.627,1409.5 440.462,1411.94 441.297,1415.35 442.132,1415.68 442.967,1420.58 443.802,1422.23 444.637,1421.93    445.472,1423.93 446.307,1425.48 447.143,1427.8 447.978,1428.23 448.813,1425.22 449.648,1425.31 450.483,1426.92 451.318,1423.66 452.153,1422.12 452.988,1423.55    453.823,1425.72 454.658,1426.24 455.493,1424.34 456.328,1424.32 457.163,1426.89 457.999,1428.23 458.834,1423.71 459.669,1424.16 460.504,1433 461.339,1428.92    462.174,1425.18 463.009,1424.92 463.844,1422.79 464.679,1419.11 465.514,1422.67 466.349,1422.28 467.184,1418.6 468.019,1419.98 468.854,1415.59 469.69,1410.23    470.525,1410.3 471.36,1411.01 472.195,1411.3 473.03,1410.62 473.865,1408.34 474.7,1411.57 475.535,1407.01 476.37,1406.22 477.205,1402.51 478.04,1400.62    478.875,1401.6 479.71,1401.34 480.546,1396.88 481.381,1390.72 482.216,1397.79 483.051,1394.68 483.886,1391.3 484.721,1393.54 485.556,1391.95 486.391,1392.94    487.226,1389.79 488.061,1388.41 488.896,1385.83 489.731,1386.06 490.566,1391.4 491.401,1389.8 492.237,1397.91 493.072,1395.53 493.907,1395.41 494.742,1395.01    495.577,1387.2 496.412,1382.25 497.247,1386.49 498.082,1394.28 498.917,1391.41 499.752,1392.73 500.587,1392.84 501.422,1381.57 502.257,1381.45 503.093,1376.09    503.928,1375.8 504.763,1372.76 505.598,1360.1 506.433,1352.17 507.268,1353.28 508.103,1347.54 508.938,1349.85 509.773,1329.7 510.608,1336.4 511.443,1329.45    512.278,1317.04 513.113,1316.43 513.948,1309.05 514.784,1319.58 515.619,1329.2 516.454,1332.24 517.289,1326.66 518.124,1325.82 518.959,1326.69 519.794,1321.57    520.629,1305.06 521.464,1311.97 522.299,1319 523.134,1314.25 523.969,1310.19 524.804,1302.38 525.64,1299.85 526.475,1310.03 527.31,1313.2 528.145,1309    528.98,1311.43 529.815,1316.19 530.65,1320.84 531.485,1319.66 532.32,1302.97 533.155,1309.87 533.99,1310.25 534.825,1304.83 535.66,1301.01 536.495,1302.67    537.331,1300.21 538.166,1295.85 539.001,1293.66 539.836,1288.35 540.671,1287.76 541.506,1276.11 542.341,1279.73 543.176,1274.26 544.011,1281.99 544.846,1278.96    545.681,1292.32 546.516,1275.83 547.351,1265.17 548.186,1274.1 549.022,1269.01 549.857,1268.63 550.692,1255.24 551.527,1253.84 552.362,1260.03 553.197,1250    554.032,1251.34 554.867,1235.83 555.702,1226.19 556.537,1217.37 557.372,1215.88 558.207,1220.74 559.042,1201.02 559.878,1199.29 560.713,1199.27 561.548,1206.79    562.383,1186.5 563.218,1172.22 564.053,1173.34 564.888,1166.59 565.723,1180.08 566.558,1184.84 567.393,1181.27 568.228,1175.43 569.063,1202.31 569.898,1196.59    570.733,1200.23 571.569,1208.59 572.404,1225.9 573.239,1223.67 574.074,1223.91 574.909,1215.52 575.744,1225.29 576.579,1236.78 577.414,1247.65 578.249,1256.46    579.084,1270.96 579.919,1258.13 580.754,1273.79 581.589,1276.27 582.425,1284.69 583.26,1293.76 584.095,1303.19 584.93,1306.92 585.765,1293.35 586.6,1282.53    587.435,1285.99 588.27,1277.54 589.105,1270.58 589.94,1280.06 590.775,1265.42 591.61,1263.38 592.445,1270.24 593.28,1274.2 594.116,1277.75 594.951,1289.25    595.786,1299.75 596.621,1289.85 597.456,1284.45 598.291,1284.84 599.126,1284.15 599.961,1295.34 600.796,1276.97 601.631,1274.18 602.466,1269.84 603.301,1267.65    604.136,1273.35 604.972,1282.15 605.807,1292.71 606.642,1301.98 607.477,1292.99 608.312,1296.64 609.147,1291.79 609.982,1296.73 610.817,1302.03 611.652,1306.61    612.487,1309.99 613.322,1314.52 614.157,1314.87 614.992,1303.36 615.827,1286.55 616.663,1277.66 617.498,1273.23 618.333,1282.56 619.168,1280.85 620.003,1296.87    620.838,1303.05 621.673,1306.92 622.508,1289.65 623.343,1290.79 624.178,1308.7 625.013,1295.91 625.848,1298.56 626.683,1301.81 627.519,1291.69 628.354,1279.43    629.189,1283.7 630.024,1276.4 630.859,1289.68 631.694,1289.94 632.529,1298.35 633.364,1305.06 634.199,1291.53 635.034,1281.76 635.869,1269.49 636.704,1263.23    637.539,1250.97 638.374,1221.16 639.21,1215.06 640.045,1225.47 640.88,1215.36 641.715,1222.28 642.55,1224.41 643.385,1235.07 644.22,1247.94 645.055,1252.1    645.89,1270.45 646.725,1278.43 647.56,1289.25 648.395,1277.54 649.23,1282.92 650.066,1294.41 650.901,1301.85 651.736,1295.37 652.571,1298.6 653.406,1297.51    654.241,1307.48 655.076,1302.02 655.911,1307.88 656.746,1289.27 657.581,1274.58 658.416,1271.06 659.251,1275.68 660.086,1256.37 660.921,1271.87 661.757,1261.37    662.592,1282.98 663.427,1281.4 664.262,1287.98 665.097,1283.48 665.932,1294.84 666.767,1296.08 667.602,1289.25 668.437,1292.12 669.272,1270.66 670.107,1264.18    670.942,1265.84 671.777,1262.01 672.612,1258.18 673.448,1276.06 674.283,1270.26 675.118,1277.34 675.953,1280.37 676.788,1280.05 677.623,1262.99 678.458,1266    679.293,1269.29 680.128,1243.15 680.963,1239.24 681.798,1238.67 682.633,1246.68 683.468,1236.97 684.304,1230.2 685.139,1243.74 685.974,1253.46 686.809,1256.22    687.644,1272.03 688.479,1270.31 689.314,1278.01 690.149,1285.59 690.984,1283.7 691.819,1296.09 692.654,1290.83 693.489,1290.43 694.324,1291.09 695.159,1299.34    695.995,1291.58 696.83,1281.86 697.665,1269.8 698.5,1250.76 699.335,1236.32 700.17,1224.85 701.005,1220.94 701.84,1219.26 702.675,1221.7 703.51,1208.5    704.345,1213.91 705.18,1199.64 706.015,1198.33 706.851,1198.64 707.686,1210.31 708.521,1230.82 709.356,1220.64 710.191,1189.03 711.026,1184.58 711.861,1212.59    712.696,1239.31 713.531,1251.11 714.366,1252.23 715.201,1244.59 716.036,1260.13 716.871,1275.2 717.706,1280.16 718.542,1295.65 719.377,1293.81 720.212,1286.31    721.047,1286.02 721.882,1283.82 722.717,1279.24 723.552,1268.38 724.387,1273.15 725.222,1263.94 726.057,1262.3 726.892,1274.08 727.727,1276.01 728.562,1278.72    729.398,1276.51 730.233,1273.97 731.068,1287.18 731.903,1274.85 732.738,1287.94 733.573,1287.66 734.408,1296.72 735.243,1282.11 736.078,1255.13 736.913,1250.72    737.748,1251.29 738.583,1247.37 739.418,1268.33 740.253,1261.2 741.089,1252.47 741.924,1242.39 742.759,1245.69 743.594,1247.67 744.429,1249.06 745.264,1266.89    746.099,1285.74 746.934,1301.95 747.769,1290.61 748.604,1293.52 749.439,1290.26 750.274,1272.01 751.109,1285.3 751.945,1288.81 752.78,1287.31 753.615,1276    754.45,1296.8 755.285,1279.72 756.12,1284.21 756.955,1291.74 757.79,1293.52 758.625,1288.62 759.46,1292.62 760.295,1289.43 761.13,1293.54 761.965,1278.72    762.8,1275.83 763.636,1263.84 764.471,1268.37 765.306,1267.46 766.141,1247.48 766.976,1265.72 767.811,1239.47 768.646,1250.81 769.481,1239.65 770.316,1254.11    771.151,1262.92 771.986,1252.06 772.821,1249.24 773.656,1229.42 774.491,1229.09 775.327,1230.6 776.162,1235.53 776.997,1229.16 777.832,1218.77 778.667,1206.35    779.502,1216.5 780.337,1217.58 781.172,1214.84 782.007,1215.77 782.842,1221.39 783.677,1211.85 784.512,1233.8 785.347,1235.39 786.183,1228.57 787.018,1222.22    787.853,1212.37 788.688,1185.14 789.523,1196.9 790.358,1177.3 791.193,1165.73 792.028,1161.24 792.863,1174.13 793.698,1188.27 794.533,1189.53 795.368,1176.31    796.203,1172.37 797.038,1174.94 797.874,1168.24 798.709,1160.26 799.544,1138.7 800.379,1149.64 801.214,1131.58 802.049,1113.48 802.884,1099.42 803.719,1115.79    804.554,1102.89 805.389,1105.32 806.224,1142.8 807.059,1110.64 807.894,1101.86 808.73,1077.88 809.565,1045.22 810.4,1029.63 811.235,1006.06 812.07,1028.14    812.905,994.25 813.74,983.577 814.575,992.537 815.41,952.252 816.245,942.916 817.08,952.545 817.915,952.635 818.75,955.677 819.585,958.161 820.421,930.476    821.256,939.574 822.091,967.289 822.926,934.147 823.761,959.617 824.596,902.945 825.431,943.906 826.266,939.589 827.101,926.305 827.936,923.785 828.771,928.558    829.606,946.918 830.441,958.828 831.277,955.274 832.112,915.833 832.947,929.776 833.782,957.281 834.617,949.779 835.452,921.978 836.287,957.533 837.122,949.749    837.957,941.831 838.792,938.586 839.627,920.052 840.462,865.153 841.297,890.341 842.132,888.23 842.968,873.592 843.803,891.105 844.638,892.97 845.473,909.175    846.308,933.536 847.143,960.042 847.978,962.03 848.813,964.78 849.648,964.877 850.483,958.183 851.318,918.65 852.153,887.155 852.988,860.26 853.824,787.603    854.659,810.149 855.494,767.683 856.329,798.72 857.164,812.838 857.999,816.465 858.834,793.102 859.669,825.569 860.504,858.117 861.339,846.583 862.174,875.295    863.009,825.328 863.844,859.041 864.679,870.394 865.515,865.452 866.35,906.429 867.185,914.193 868.02,881.639 868.855,896.614 869.69,916.88 870.525,913.772    871.36,895.558 872.195,902.549 873.03,927.163 873.865,916.081 874.7,935.255 875.535,941.263 876.37,898.966 877.206,917 878.041,946.226 878.876,945.895    879.711,905.789 880.546,940.125 881.381,941.777 882.216,919.394 883.051,943.943 883.886,915.897 884.721,887.888 885.556,956.941 886.391,983.799 887.226,977.04    888.062,966.468 888.897,995.028 889.732,955.93 890.567,899.025 891.402,899.207 892.237,947.208 893.072,968.3 893.907,916.579 894.742,890.006 895.577,914.761    896.412,940.077 897.247,964.453 898.082,967.003 898.917,970.43 899.753,974.626 900.588,909.581 901.423,887.509 902.258,877.993 903.093,853.777 903.928,824.852    904.763,800.742 905.598,797.182 906.433,738.261 907.268,753.501 908.103,710.31 908.938,717.782 909.773,749.842 910.609,809.872 911.444,844.314 912.279,770.792    913.114,823.911 913.949,739.776 914.784,731.769 915.619,729.428 916.454,624.956 917.289,581.257 918.124,645.828 918.959,664.305 919.794,600.882 920.629,546.082    921.464,522.321 922.3,477.259 923.135,465.106 923.97,501.311 924.805,543.252 925.64,499.872 926.475,501.959 927.31,547.059 928.145,537.34 928.98,527.244    929.815,547.551 930.65,559.843 931.485,510.445 932.32,521.887 933.156,451.064 933.991,539.417 934.826,533.049 935.661,496.38 936.496,479.417 937.331,569.537    938.166,583.994 939.001,485.735 939.836,544.754 940.671,665.841 941.506,694.238 942.341,684.187 943.176,684.605 944.011,646.199 944.847,631.834 945.682,657.797    946.517,678.592 947.352,663.81 948.187,647.161 949.022,697.817 949.857,713.868 950.692,688.427 951.527,731.959 952.362,700.651 953.197,724.045 954.032,673.038    954.867,696.169 955.703,716.72 956.538,734.137 957.373,767.683 958.208,774.861 959.043,814.168 959.878,812.524 960.713,818.378 961.548,836.827 962.383,821.944    963.218,813.684 964.053,859.424 964.888,846.942 965.723,901.168 966.558,923.554 967.394,858.598 968.229,868.841 969.064,827.837 969.899,834.86 970.734,856.168    971.569,868.132 972.404,943.139 973.239,956.946 974.074,927.782 974.909,929.975 975.744,944.346 976.579,968.465 977.414,917.704 978.25,943.773 979.085,960.667    979.92,989.316 980.755,972.617 981.59,997.903 982.425,971.908 983.26,956.397 984.095,996.056 984.93,1019.53 985.765,1051.17 986.6,1034.84 987.435,1023.44    988.27,1027.81 989.105,1012.72 989.941,1023.82 990.776,1007.58 991.611,1021.44 992.446,1036.97 993.281,1016.24 994.116,1019.31 994.951,1011.13 995.786,1021.38    996.621,1016.74 997.456,1003.62 998.291,1012.73 999.126,1016.51 999.961,1012.11 1000.8,997.078 1001.63,999.183 1002.47,977.361 1003.3,985.637 1004.14,957.575    1004.97,945.307 1005.81,927.883 1006.64,922.552 1007.48,921.559 1008.31,941.23 1009.15,947.027 1009.98,966.42 1010.82,960.712 1011.65,984.119 1012.49,1029.41    1013.32,968.097 1014.16,967.187 1014.99,987.211 1015.83,990.925 1016.66,1004.23 1017.5,1000.1 1018.33,993.796 1019.17,908.193 1020,920.073 1020.84,939.76    1021.67,921.434 1022.51,980.619 1023.34,1002.32 1024.18,1000.8 1025.01,957.547 1025.85,957.533 1026.68,935.007 1027.52,985.994 1028.35,1024.94 1029.19,1053.88    1030.02,1044.57 1030.86,1065.63 1031.69,1076.28 1032.53,1073.08 1033.36,1094 1034.2,1059.54 1035.03,1031.17 1035.87,1069.39 1036.7,1044.48 1037.54,1065.9    1038.37,1081.93 1039.21,1070.56 1040.04,1083.24 1040.88,1104.29 1041.72,1101.43 1042.55,1110.13 1043.39,1093.2 1044.22,1083.14 1045.06,1088.34 1045.89,1104.69    1046.73,1096.88 1047.56,1054.15 1048.4,1058.26 1049.23,1048.72 1050.07,1043.93 1050.9,1045.46 1051.74,1078.94 1052.57,1074.46 1053.41,1113.98 1054.24,1103.8    1055.08,1105.09 1055.91,1090.97 1056.75,1077.48 1057.58,1074.34 1058.42,1035.92 1059.25,1036.25 1060.09,1053.92 1060.92,1098.01 1061.76,1070.6 1062.59,1050.73    1063.43,1027.58 1064.26,1032.39 1065.1,1018.04 1065.93,1040.24 1066.77,1032.08 1067.6,1039.61 1068.44,1007.38 1069.27,996.777 1070.11,1020.85 1070.94,1066.95    1071.78,1034.09 1072.61,1017.67 1073.45,1010.87 1074.28,1019.16 1075.12,1015.95 1075.95,995.377 1076.79,980.896 1077.62,1004.53 1078.46,1037.73 1079.29,1040.6    1080.13,1044.53 1080.96,1077.71 1081.8,1048.5 1082.63,1094.56 1083.47,1069.59 1084.3,1077.01 1085.14,1071.85 1085.97,1080.35 1086.81,1084.79 1087.64,1098.24    1088.48,1099.81 1089.31,1089.56 1090.15,1071.37 1090.98,1071.98 1091.82,1048.07 1092.65,1045.77 1093.49,1035 1094.32,1032.08 1095.16,1045.51 1095.99,1062.08    1096.83,1064.18 1097.67,1088.67 1098.5,1076.33 1099.34,1110.46 1100.17,1103.15 1101.01,1125.19 1101.84,1119.85 1102.68,1095.89 1103.51,1080.13 1104.35,1060.74    1105.18,1063.63 1106.02,1074.16 1106.85,1032.28 1107.69,1049.5 1108.52,1075.71 1109.36,1050.15 1110.19,1046.2 1111.03,1051.48 1111.86,1029.18 1112.7,1006.44    1113.53,1021.28 1114.37,1037.88 1115.2,1054.11 1116.04,1053.8 1116.87,982.19 1117.71,1001.01 1118.54,952.811 1119.38,942.686 1120.21,949.628 1121.05,937.927    1121.88,960.492 1122.72,961.099 1123.55,956.859 1124.39,959.074 1125.22,976.362 1126.06,958.777 1126.89,932.041 1127.73,932.875 1128.56,992.866 1129.4,1016.02    1130.23,1040.9 1131.07,1037.95 1131.9,1048.85 1132.74,1038.95 1133.57,1056.4 1134.41,1070.33 1135.24,1047.46 1136.08,1039.4 1136.91,1004.93 1137.75,993.708    1138.58,998.311 1139.42,999.486 1140.25,963.079 1141.09,979.059 1141.92,967.052 1142.76,995.311 1143.59,963.837 1144.43,967.294 1145.26,972.029 1146.1,978.64    1146.93,936.473 1147.77,962.813 1148.6,938.341 1149.44,962.769 1150.27,930.324 1151.11,966.193 1151.94,967.755 1152.78,954.696 1153.61,896.584 1154.45,919.102    1155.29,913.814 1156.12,914.904 1156.96,909.993 1157.79,914.326 1158.63,834.216 1159.46,869.771 1160.3,892.229 1161.13,836.004 1161.97,745.289 1162.8,753.828    1163.64,747.914 1164.47,738.332 1165.31,710.235 1166.14,722.845 1166.98,734.347 1167.81,699.291 1168.65,689.707 1169.48,698.824 1170.32,731.648 1171.15,715.336    1171.99,709.084 1172.82,753.18 1173.66,737.8 1174.49,757.906 1175.33,792.642 1176.16,748.152 1177,773.587 1177.83,787.284 1178.67,768.397 1179.5,766.235    1180.34,806.388 1181.17,837.993 1182.01,851.1 1182.84,811.786 1183.68,759.94 1184.51,778.428 1185.35,815.907 1186.18,823.832 1187.02,835.67 1187.85,833.179    1188.69,876.163 1189.52,886.987 1190.36,879.132 1191.19,839.358 1192.03,851.098 1192.86,836.351 1193.7,784.841 1194.53,833.614 1195.37,826.191 1196.2,862.449    1197.04,869.061 1197.87,860.136 1198.71,872.745 1199.54,906.258 1200.38,941.847 1201.21,899.719 1202.05,896.017 1202.88,899.794 1203.72,877.836 1204.55,831.217    1205.39,842.753 1206.22,833.483 1207.06,870.144 1207.89,863.372 1208.73,833.138 1209.56,859.423 1210.4,846.656 1211.24,852.938 1212.07,867.129 1212.91,819.271    1213.74,830.795 1214.58,781.512 1215.41,763.111 1216.25,737.097 1217.08,759.098 1217.92,772.839 1218.75,780.532 1219.59,864.296 1220.42,907.685 1221.26,847.766    1222.09,762.936 1222.93,740.699 1223.76,746.172 1224.6,733.35 1225.43,751.461 1226.27,778.597 1227.1,773.832 1227.94,745.193 1228.77,775.69 1229.61,781.795    1230.44,781.721 1231.28,801.175 1232.11,773.441 1232.95,796.371 1233.78,767.967 1234.62,723.152 1235.45,703.209 1236.29,657.144 1237.12,643.253 1237.96,622.146    1238.79,562.716 1239.63,577.664 1240.46,616.105 1241.3,585.038 1242.13,525.27 1242.97,586.701 1243.8,527.77 1244.64,430.905 1245.47,454.218 1246.31,478.263    1247.14,539.556 1247.98,565.249 1248.81,542.076 1249.65,561.533 1250.48,624.039 1251.32,589.641 1252.15,553.487 1252.99,430.576 1253.82,384.505 1254.66,367.643    1255.49,405.272 1256.33,360.917 1257.16,382.908 1258,304.216 1258.83,327.96 1259.67,306.19 1260.5,322.696 1261.34,336.471 1262.17,344.247 1263.01,377.768    1263.84,335.956 1264.68,375.097 1265.51,369.535 1266.35,396.53 1267.19,471.255 1268.02,364.774 1268.86,262.674 1269.69,214.663 1270.53,198.112 1271.36,286.266    1272.2,350.704 1273.03,323.905 1273.87,281.501 1274.7,228.794 1275.54,153.49 1276.37,87.9763 1277.21,132.272 1278.04,141.389 1278.88,187.322 1279.71,266.812    1280.55,343.001 1281.38,371.523 1282.22,402.656 1283.05,486.639 1283.89,493.107 1284.72,566.28 1285.56,581.019 1286.39,585.533 1287.23,554.653 1288.06,539.626    1288.9,574.297 1289.73,552.377 1290.57,528.303 1291.4,563.964 1292.24,526.667 1293.07,569.417 1293.91,529.658 1294.74,588.608 1295.58,543.528 1296.41,555.914    1297.25,544.734 1298.08,551.595 1298.92,571.211 1299.75,613.106 1300.59,577.398 1301.42,524.703 1302.26,563.336 1303.09,532.24 1303.93,653.074 1304.76,667.565    1305.6,593.502 1306.43,602.862 1307.27,597.247 1308.1,625.345 1308.94,662.79 1309.77,651.876 1310.61,600.499 1311.44,579.088 1312.28,553.347 1313.11,536.911    1313.95,584.877 1314.78,584.363 1315.62,637.96 1316.45,692.965 1317.29,723.454 1318.12,737.316 1318.96,747.659 1319.79,761.363 1320.63,794.501 1321.46,774.79    1322.3,710.914 1323.13,681.185 1323.97,727.079 1324.81,701.382 1325.64,679.788 1326.48,646.46 1327.31,645.874 1328.15,629.289 1328.98,638.644 1329.82,624.364    1330.65,675.808 1331.49,682.502 1332.32,656.428 1333.16,582.699 1333.99,508.61 1334.83,479.454 1335.66,373.216 1336.5,469.241 1337.33,433.17 1338.17,446.434    1339,386.424 1339.84,315.364 1340.67,370.794 1341.51,409.893 1342.34,385.919 1343.18,339.22 1344.01,352.15 1344.85,273.071 1345.68,261.902 1346.52,234.326    1347.35,280.548 1348.19,345.244 1349.02,465.985 1349.86,436.671 1350.69,531.353 1351.53,589.346 1352.36,630.587 1353.2,603.138 1354.03,625.952 1354.87,687.256    1355.7,746.728 1356.54,728.112 1357.37,730.838 1358.21,715.618 1359.04,658.316 1359.88,594.921 1360.71,584.975 1361.55,588.352 1362.38,604.514 1363.22,595.148    1364.05,539.99 1364.89,508.274 1365.72,571.596 1366.56,576.277 1367.39,648.278 1368.23,647.783 1369.06,675.17 1369.9,689.709 1370.73,682.582 1371.57,727.446    1372.4,745.49 1373.24,715.052 1374.07,730.301 1374.91,665.34 1375.74,749.036 1376.58,728.766 1377.41,762.193 1378.25,754.547 1379.08,755.841 1379.92,809.479    1380.76,807.994 1381.59,789.661 1382.43,743.118 1383.26,682.753 1384.1,601.725 1384.93,572.828 1385.77,526.892 1386.6,509.553 1387.44,499.855 1388.27,456.255    1389.11,530.727 1389.94,570.957 1390.78,525.923 1391.61,497.285 1392.45,564.563 1393.28,534.237 1394.12,590.118 1394.95,582.296 1395.79,632.56 1396.62,629.143    1397.46,561.337 1398.29,489.49 1399.13,487.899 1399.96,526.103 1400.8,521.667 1401.63,456.36 1402.47,437.352 1403.3,446.625 1404.14,574.513 1404.97,510.557    1405.81,484.206 1406.64,472.423 1407.48,420.597 1408.31,437.933 1409.15,420.679 1409.98,311.723 1410.82,240.938 1411.65,345.987 1412.49,302.175 1413.32,359.985    1414.16,332.567 1414.99,356.638 1415.83,334.785 1416.66,266.598 1417.5,322.913 1418.33,284.958 1419.17,375.992 1420,346.041 1420.84,382.575 1421.67,435.912    1422.51,468.868 1423.34,482.677 1424.18,482.535 1425.01,463.666 1425.85,510.204 1426.68,557.994 1427.52,497.962 1428.35,622.729 1429.19,653.484 1430.02,674.098    1430.86,617.678 1431.69,591.298 1432.53,574.768 1433.36,579.485 1434.2,584.8 1435.03,543.727 1435.87,622.554 1436.71,668.224 1437.54,679.186 1438.38,723.789    1439.21,789.754 1440.05,774.517 1440.88,734.487 1441.72,711.269 1442.55,675.149 1443.39,704.806 1444.22,706.59 1445.06,725.467 1445.89,729.883 1446.73,758.603    1447.56,738.107 1448.4,794.817 1449.23,801.662 1450.07,829.707 1450.9,779.142 1451.74,754.149 1452.57,755.605 1453.41,753.505 1454.24,742.621 1455.08,748.588    1455.91,731.462 1456.75,761.738 1457.58,782.223 1458.42,839.587 1459.25,909.469 1460.09,958.775 1460.92,945.683 1461.76,966.111 1462.59,991.447 1463.43,968.628    1464.26,943.262 1465.1,931.025 1465.93,933.528 1466.77,943.238 1467.6,974.708 1468.44,959.461 1469.27,929.601 1470.11,945.155 1470.94,913.133 1471.78,874.761    1472.61,855.215 1473.45,885.846 1474.28,842.701 1475.12,829.722 1475.95,879.376 1476.79,852.019 1477.62,823.45 1478.46,792.225 1479.29,797.497 1480.13,805.816    1480.96,822.281 1481.8,814.608 1482.63,852.187 1483.47,857.855 1484.3,845.56 1485.14,849.703 1485.97,839.03 1486.81,814.729 1487.64,812.176 1488.48,805.752    1489.31,808.448 1490.15,896.931 1490.98,913.893 1491.82,900.607 1492.65,885.092 1493.49,901.55 1494.33,923.454 1495.16,926.737 1496,938.639 1496.83,968.082    1497.67,980.637 1498.5,971.807 1499.34,974.463 1500.17,964.824 1501.01,1008.71 1501.84,965.556 1502.68,951.127 1503.51,964.02 1504.35,968.57 1505.18,1009.58    1506.02,1034.03 1506.85,1025.75 1507.69,1042.14 1508.52,1080.92 1509.36,1055.98 1510.19,1088.03 1511.03,1131.01 1511.86,1152.1 1512.7,1156.17 1513.53,1132.9    1514.37,1134.51 1515.2,1127.83 1516.04,1103.87 1516.87,1104.77 1517.71,1086.27 1518.54,1103.95 1519.38,1091.82 1520.21,1088.31 1521.05,1113.87 1521.88,1106.13    1522.72,1112.95 1523.55,1135.67 1524.39,1119 1525.22,1132.54 1526.06,1113.42 1526.89,1077.69 1527.73,1056.46 1528.56,1080.19 1529.4,1097.41 1530.23,1049.58    1531.07,1078.69 1531.9,1072.55 1532.74,1076.02 1533.57,1094.39 1534.41,1111.25 1535.24,1096.82 1536.08,1098.45 1536.91,1113.93 1537.75,1115.77 1538.58,1118.79    1539.42,1138.91 1540.25,1134.61 1541.09,1146.61 1541.92,1123.85 1542.76,1131.16 1543.59,1138.22 1544.43,1141.17 1545.26,1153.07 1546.1,1163.67 1546.93,1157.65    1547.77,1160.25 1548.6,1135.56 1549.44,1143.38 1550.28,1137.13 1551.11,1152.33 1551.95,1140.47 1552.78,1101.03 1553.62,1090.45 1554.45,1104 1555.29,1098.66    1556.12,1120.14 1556.96,1146.07 1557.79,1130.74 1558.63,1149.17 1559.46,1164.81 1560.3,1174.66 1561.13,1149.16 1561.97,1178.88 1562.8,1169.08 1563.64,1169.12    1564.47,1135.96 1565.31,1127.71 1566.14,1138.39 1566.98,1138.3 1567.81,1124.17 1568.65,1097.33 1569.48,1091.94 1570.32,1096.69 1571.15,1102.61 1571.99,1110.03    1572.82,1102.94 1573.66,1094.47 1574.49,1119.02 1575.33,1115.82 1576.16,1114.19 1577,1121.62 1577.83,1127.53 1578.67,1129.97 1579.5,1157.58 1580.34,1154.66    1581.17,1147.59 1582.01,1145.37 1582.84,1123.08 1583.68,1128.53 1584.51,1140.49 1585.35,1151.76 1586.18,1144.82 1587.02,1147.22 1587.85,1159.61 1588.69,1164.79    1589.52,1161.99 1590.36,1149.78 1591.19,1136.19 1592.03,1153.3 1592.86,1157.08 1593.7,1191.38 1594.53,1192.73 1595.37,1188.1 1596.2,1189.36 1597.04,1162.03    1597.87,1174.51 1598.71,1169.2 1599.54,1140.74 1600.38,1133.63 1601.21,1111.87 1602.05,1135 1602.88,1118.22 1603.72,1141.13 1604.55,1135.91 1605.39,1129.6    1606.22,1161.23 1607.06,1144.14 1607.9,1109.11 1608.73,1121.45 1609.57,1116.7 1610.4,1120.8 1611.24,1111.54 1612.07,1125.13 1612.91,1148.98 1613.74,1154.05    1614.58,1155.94 1615.41,1170.2 1616.25,1166.86 1617.08,1185.49 1617.92,1194.8 1618.75,1190.26 1619.59,1178.08 1620.42,1173.39 1621.26,1165.78 1622.09,1193.23    1622.93,1185.85 1623.76,1186.3 1624.6,1187.74 1625.43,1202.68 1626.27,1207.2 1627.1,1247.06 1627.94,1259.52 1628.77,1245.74 1629.61,1247.27 1630.44,1265.35    1631.28,1286.62 1632.11,1298.65 1632.95,1293.57 1633.78,1292.19 1634.62,1281 1635.45,1279.99 1636.29,1269.63 1637.12,1284.97 1637.96,1296.74 1638.79,1309.79    1639.63,1328.32 1640.46,1333.1 1641.3,1337.29 1642.13,1340.62 1642.97,1345.19 1643.8,1340.99 1644.64,1339.85 1645.47,1341.34 1646.31,1344.48 1647.14,1354.71    1647.98,1355.21 1648.81,1359.78 1649.65,1357.14 1650.48,1366.14 1651.32,1369.4 1652.15,1362.36 1652.99,1358.44 1653.82,1364.79 1654.66,1351.6 1655.49,1352.82    1656.33,1353.89 1657.16,1344.17 1658,1338 1658.83,1344.45 1659.67,1338.67 1660.5,1343.2 1661.34,1340.89 1662.17,1340.38 1663.01,1347.58 1663.85,1353.25    1664.68,1345.1 1665.52,1346.43 1666.35,1348.41 1667.19,1341.66 1668.02,1349.07 1668.86,1341.6 1669.69,1337.28 1670.53,1341.01 1671.36,1356.19 1672.2,1347.25    1673.03,1344.98 1673.87,1339.73 1674.7,1340.42 1675.54,1348.22 1676.37,1353.78 1677.21,1362.43 1678.04,1345.76 1678.88,1346.11 1679.71,1339.47 1680.55,1340.87    1681.38,1342.89 1682.22,1344.11 1683.05,1332.4 1683.89,1328.37 1684.72,1338.58 1685.56,1339.23 1686.39,1336.94 1687.23,1340.6 1688.06,1336.18 1688.9,1338.06    1689.73,1328.94 1690.57,1313.33 1691.4,1300.85 1692.24,1302.12 1693.07,1298.72 1693.91,1295.21 1694.74,1299.42 1695.58,1306.22 1696.41,1306.08 1697.25,1304.67    1698.08,1307.11 1698.92,1299.94 1699.75,1307.99 1700.59,1302.69 1701.42,1297.32 1702.26,1290.1 1703.09,1280.72 1703.93,1254.32 1704.76,1248.34 1705.6,1254.13    1706.43,1246.07 1707.27,1248.8 1708.1,1242.93 1708.94,1251.47 1709.77,1237.38 1710.61,1234.48 1711.44,1259.99 1712.28,1276.1 1713.11,1266.61 1713.95,1271.78    1714.78,1262.37 1715.62,1255.08 1716.45,1271.1 1717.29,1283.15 1718.12,1291.88 1718.96,1300.72 1719.8,1306.05 1720.63,1304.46 1721.47,1302.99 1722.3,1304.03    1723.14,1308.63 1723.97,1297.32 1724.81,1300.42 1725.64,1304.02 1726.48,1309.07 1727.31,1319.17 1728.15,1322.48 1728.98,1321.29 1729.82,1307.82 1730.65,1310.67    1731.49,1322.93 1732.32,1326.45 1733.16,1326.42 1733.99,1313.74 1734.83,1326.38 1735.66,1331.72 1736.5,1337.01 1737.33,1345.31 1738.17,1351.35 1739,1360.89    1739.84,1354.05 1740.67,1348.66 1741.51,1353.81 1742.34,1351.47 1743.18,1348.46 1744.01,1347.18 1744.85,1346.24 1745.68,1350.39 1746.52,1345.35 1747.35,1338.55    1748.19,1332.2 1749.02,1328.23 1749.86,1329.35 1750.69,1320.69 1751.53,1314.39 1752.36,1311.66 1753.2,1318.64 1754.03,1314.82 1754.87,1318.75 1755.7,1313.92    1756.54,1306.81 1757.37,1307.19 1758.21,1307.19 1759.04,1315.01 1759.88,1316.81 1760.71,1326.03 1761.55,1335.52 1762.38,1339.25 1763.22,1352.05 1764.05,1358.59    1764.89,1354.69 1765.72,1356.44 1766.56,1350.68 1767.39,1345.06 1768.23,1357.19 1769.06,1357.74 1769.9,1363.43 1770.73,1371.88 1771.57,1375.27 1772.4,1385.83    1773.24,1378.97 1774.07,1389.45 1774.91,1383.66 1775.74,1387.18 1776.58,1390.41 1777.42,1387.99 1778.25,1386.07 1779.09,1392.17 1779.92,1393.97 1780.76,1392.18    1781.59,1386.6 1782.43,1381.66 1783.26,1380.44 1784.1,1384.79 1784.93,1382.48 1785.77,1387.37 1786.6,1386.56 1787.44,1383.8 1788.27,1384.16 1789.11,1382    1789.94,1380.73 1790.78,1376.44 1791.61,1381.92 1792.45,1382.68 1793.28,1384.03 1794.12,1383.53 1794.95,1376.36 1795.79,1375.17 1796.62,1385.66 1797.46,1388.17    1798.29,1384.93 1799.13,1385.45 1799.96,1378.11 1800.8,1385.36 1801.63,1383.84 1802.47,1379.48 1803.3,1382.92 1804.14,1389.29 1804.97,1382.23 1805.81,1378.83    1806.64,1382.87 1807.48,1383 1808.31,1386.01 1809.15,1389.31 1809.98,1395.58 1810.82,1385.67 1811.65,1386.11 1812.49,1383.79 1813.32,1381.52 1814.16,1384.1    1814.99,1387.65 1815.83,1385.44 1816.66,1385.33 1817.5,1391.21 1818.33,1394.61 1819.17,1386.23 1820,1390.8 1820.84,1390.23 1821.67,1390.54 1822.51,1383.34    1823.34,1384.41 1824.18,1390.42 1825.01,1388.08 1825.85,1385.24 1826.68,1387.71 1827.52,1385.59 1828.35,1383.91 1829.19,1382.24 1830.02,1383.44 1830.86,1386.12    1831.69,1375.77 1832.53,1371.26 1833.37,1369.74 1834.2,1374.34 1835.04,1371.09 1835.87,1361.98 1836.71,1362.02 1837.54,1366.2 1838.38,1371.85 1839.21,1377.64    1840.05,1383.36 1840.88,1383.09 1841.72,1389.82 1842.55,1393.3 1843.39,1397.64 1844.22,1395.11 1845.06,1399.59 1845.89,1397.53 1846.73,1393.61 1847.56,1383.04    1848.4,1378.62 1849.23,1379.78 1850.07,1374.64 1850.9,1365.91 1851.74,1364.87 1852.57,1354.92 1853.41,1349.81 1854.24,1345.15 1855.08,1344.67 1855.91,1335.31    1856.75,1330.38 1857.58,1321.13 1858.42,1328.86 1859.25,1324.77 1860.09,1319.35 1860.92,1324.48 1861.76,1317.9 1862.59,1328.25 1863.43,1315.76 1864.26,1312.57    1865.1,1310.96 1865.93,1311.64 1866.77,1304.98 1867.6,1300.02 1868.44,1299.66 1869.27,1305.94 1870.11,1307.32 1870.94,1313.57 1871.78,1307.26 1872.61,1299.28    1873.45,1313.21 1874.28,1310.02 1875.12,1313.27 1875.95,1324.12 1876.79,1312.76 1877.62,1305.4 1878.46,1305.17 1879.29,1307.88 1880.13,1294.93 1880.96,1289.91    1881.8,1275.34 1882.63,1272.44 1883.47,1271.65 1884.3,1269.76 1885.14,1271.42 1885.97,1268.05 1886.81,1263.78 1887.64,1248.74 1888.48,1243.26 1889.32,1237.5    1890.15,1231.93 1890.99,1229.3 1891.82,1225.48 1892.66,1216.45 1893.49,1235.6 1894.33,1244.59 1895.16,1262.37 1896,1273.97 1896.83,1264.78 1897.67,1281.22    1898.5,1284.57 1899.34,1273.91 1900.17,1253.89 1901.01,1265.72 1901.84,1252.21 1902.68,1262.77 1903.51,1254.25 1904.35,1259.25 1905.18,1266.4 1906.02,1263.44    1906.85,1284.69 1907.69,1281.08 1908.52,1283.34 1909.36,1285.11 1910.19,1280.7 1911.03,1288.57 1911.86,1284.06 1912.7,1288.66 1913.53,1295.07 1914.37,1279.86    1915.2,1273.21 1916.04,1260.35 1916.87,1254.28 1917.71,1252.51 1918.54,1276.64 1919.38,1277.82 1920.21,1279.64 1921.05,1287.45 1921.88,1259.63 1922.72,1237.4    1923.55,1226.93 1924.39,1208.99 1925.22,1211.47 1926.06,1218.38 1926.89,1210.98 1927.73,1187.41 1928.56,1179.73 1929.4,1189.37 1930.23,1182.42 1931.07,1199.58    1931.9,1206.3 1932.74,1201.87 1933.57,1198.3 1934.41,1220.02 1935.24,1197.36 1936.08,1200.14 1936.91,1175.23 1937.75,1180.04 1938.58,1206.99 1939.42,1239.55    1940.25,1250.21 1941.09,1239.63 1941.92,1242.4 1942.76,1219.73 1943.59,1228.62 1944.43,1226.12 1945.26,1235.34 1946.1,1221.17 1946.94,1220.59 1947.77,1219.86    1948.61,1226.55 1949.44,1212.1 1950.28,1183.73 1951.11,1194.54 1951.95,1191.04 1952.78,1173.11 1953.62,1175.04 1954.45,1169.43 1955.29,1164.16 1956.12,1151.66    1956.96,1126.72 1957.79,1129.9 1958.63,1108.47 1959.46,1126.63 1960.3,1134.56 1961.13,1137.59 1961.97,1162.56 1962.8,1172.38 1963.64,1185.87 1964.47,1176.75    1965.31,1187.38 1966.14,1196.5 1966.98,1194.23 1967.81,1204.32 1968.65,1223.7 1969.48,1212.58 1970.32,1220 1971.15,1237.61 1971.99,1234.9 1972.82,1238.53    1973.66,1233.56 1974.49,1237.79 1975.33,1239.46 1976.16,1236.04 1977,1243.86 1977.83,1260.83 1978.67,1266.06 1979.5,1262.3 1980.34,1273.38 1981.17,1280.37    1982.01,1273.41 1982.84,1269.25 1983.68,1268.52 1984.51,1265.12 1985.35,1275.06 1986.18,1263.27 1987.02,1265.67 1987.85,1275.72 1988.69,1266.76 1989.52,1268.82    1990.36,1268.2 1991.19,1271.58 1992.03,1274.35 1992.86,1263.75 1993.7,1258.34 1994.53,1250.44 1995.37,1250.47 1996.2,1233.86 1997.04,1231.04 1997.87,1228    1998.71,1232.17 1999.54,1234.08 2000.38,1221.64 2001.21,1208.06 2002.05,1209.54 2002.89,1209.2 2003.72,1213.25 2004.56,1206.73 2005.39,1190.49 2006.23,1183.43    2007.06,1170.03 2007.9,1177.8 2008.73,1199.22 2009.57,1220.85 2010.4,1201.95 2011.24,1181.36 2012.07,1185.31 2012.91,1178.64 2013.74,1177.44 2014.58,1201.3    2015.41,1190.54 2016.25,1192.25 2017.08,1187.15 2017.92,1196.56 2018.75,1196.11 2019.59,1208.33 2020.42,1217.91 2021.26,1207.99 2022.09,1208.91 2022.93,1209.28    2023.76,1193.06 2024.6,1214.92 2025.43,1207.24 2026.27,1192.19 2027.1,1168.07 2027.94,1174.63 2028.77,1173.17 2029.61,1151.23 2030.44,1172.88 2031.28,1164.03    2032.11,1169.14 2032.95,1176.45 2033.78,1209.97 2034.62,1206.29 2035.45,1199.64 2036.29,1197.98 2037.12,1181.41 2037.96,1174.74 2038.79,1177.9 2039.63,1180.83    2040.46,1186.5 2041.3,1194.6 2042.13,1180.59 2042.97,1184.33 2043.8,1180.08 2044.64,1176.38 2045.47,1169.81 2046.31,1153.16 2047.14,1135.98 2047.98,1119    2048.81,1119.45 2049.65,1143.24 2050.48,1135.51 2051.32,1125.95 2052.15,1128.37 2052.99,1149.83 2053.82,1140.19 2054.66,1139.4 2055.49,1138.13 2056.33,1160.91    2057.16,1146.2 2058,1141.52 2058.83,1135.79 2059.67,1136.61 2060.51,1123.3 2061.34,1090.27 2062.18,1081.93 2063.01,1052.98 2063.85,1054.48 2064.68,1045.64    2065.52,1000.04 2066.35,962.407 2067.19,996.056 2068.02,1023.79 2068.86,1006.06 2069.69,995.747 2070.53,991.078 2071.36,992.589 2072.2,988.724 2073.03,981.048    2073.87,965.506 2074.7,970.612 2075.54,992.419 2076.37,990.809 2077.21,944.723 2078.04,990.874 2078.88,974.341 2079.71,974.912 2080.55,985.423 2081.38,977.583    2082.22,958.253 2083.05,982.901 2083.89,1017.38 2084.72,1045.66 2085.56,1069.64 2086.39,1038.48 2087.23,1046.52 2088.06,1070.78 2088.9,1082.94 2089.73,1096.27    2090.57,1089.41 2091.4,1108.05 2092.24,1126.71 2093.07,1129.61 2093.91,1118.32 2094.74,1098.58 2095.58,1081.63 2096.41,1067.42 2097.25,1062.88 2098.08,1071.8    2098.92,1059.89 2099.75,1090.01 2100.59,1068.3 2101.42,1074.64 2102.26,1094.03 2103.09,1125.77 2103.93,1160.41 2104.76,1172.86 2105.6,1191.3 2106.43,1201.31    2107.27,1211.99 2108.1,1228.79 2108.94,1209.38 2109.77,1199.55 2110.61,1194.03 2111.44,1204.3 2112.28,1189.68 2113.11,1198.94 2113.95,1213.15 2114.78,1200.3    2115.62,1193.78 2116.46,1161.79 2117.29,1167.64 2118.13,1169.06 2118.96,1160.12 2119.8,1155.92 2120.63,1183.73 2121.47,1200.42 2122.3,1195.57 2123.14,1209.45    2123.97,1212.69 2124.81,1215.96 2125.64,1202.92 2126.48,1203.6 2127.31,1195.34 2128.15,1204.93 2128.98,1201.61 2129.82,1180.91 2130.65,1161.38 2131.49,1157.07    2132.32,1156.48 2133.16,1154.23 2133.99,1143.13 2134.83,1125.14 2135.66,1132.96 2136.5,1154.53 2137.33,1169.45 2138.17,1157.2 2139,1143.23 2139.84,1160.04    2140.67,1163.32 2141.51,1169.77 2142.34,1155.28 2143.18,1166.77 2144.01,1163.17 2144.85,1143.02 2145.68,1117.49 2146.52,1112.83 2147.35,1115.6 2148.19,1129.62    2149.02,1134.1 2149.86,1153.82 2150.69,1120.64 2151.53,1158.6 2152.36,1121.57 2153.2,1108.77 2154.03,1115.14 2154.87,1093.37 2155.7,1126.93 2156.54,1118.63    2157.37,1120.36 2158.21,1115.72 2159.04,1116.52 2159.88,1113.72 2160.71,1104.85 2161.55,1128.25 2162.38,1144.37 2163.22,1153.86 2164.05,1135.72 2164.89,1129.74    2165.72,1100.91 2166.56,1114.92 2167.39,1133.41 2168.23,1133.56 2169.06,1131.7 2169.9,1117.26 2170.73,1092.69 2171.57,1095.64 2172.41,1127.13 2173.24,1121.21    2174.08,1116.41 2174.91,1125.43 2175.75,1141.63 2176.58,1145.71 2177.42,1132.05 2178.25,1116.04 2179.09,1104.62 2179.92,1099.82 2180.76,1107.81 2181.59,1075.4    2182.43,1104.64 2183.26,1122.26 2184.1,1102.1 2184.93,1113.44 2185.77,1133.34 2186.6,1150.45 2187.44,1147.2 2188.27,1171.81 2189.11,1177.2 2189.94,1159.73    2190.78,1165.46 2191.61,1153.38 2192.45,1168.19 2193.28,1167.25 2194.12,1151.63 2194.95,1143.82 2195.79,1138.52 2196.62,1150.23 2197.46,1154.55 2198.29,1170.82    2199.13,1166.06 2199.96,1161.88 2200.8,1162.03 2201.63,1141.58 2202.47,1129.69 2203.3,1128.95 2204.14,1129.13 2204.97,1107.57 2205.81,1091.95 2206.64,1063.79    2207.48,1041.56 2208.31,1067.14 2209.15,1082.62 2209.98,1055.19 2210.82,1060.25 2211.65,1057.94 2212.49,1079.42 2213.32,1077.51 2214.16,1041.4 2214.99,1024.54    2215.83,1011.36 2216.66,987.691 2217.5,1036.11 2218.33,1053.87 2219.17,1082.54 2220,1099.2 2220.84,1102.22 2221.67,1112.47 2222.51,1103.26 2223.34,1116.62    2224.18,1118.45 2225.01,1127.16 2225.85,1094.59 2226.68,1113.06 2227.52,1109.18 2228.35,1094.79 2229.19,1089.55 2230.03,1087.8 2230.86,1090.08 2231.7,1073.56    2232.53,1059.75 2233.37,1095.78 2234.2,1096.72 2235.04,1102.74 2235.87,1082.85 2236.71,1068.37 2237.54,1073.3 2238.38,1077.83 2239.21,1046.15 2240.05,1037.95    2240.88,1026.62 2241.72,1038.31 2242.55,1036.03 2243.39,1026.26 2244.22,1053.48 2245.06,1057.94 2245.89,1048.04 2246.73,1053.18 2247.56,1048.62 2248.4,1064.49    2249.23,1071.83 2250.07,1083.05 2250.9,1109.04 2251.74,1112.54 2252.57,1114.62 2253.41,1122.68 2254.24,1123.15 2255.08,1128.33 2255.91,1118.43 2256.75,1139.44    2257.58,1119.06 2258.42,1102.53 2259.25,1083.39 2260.09,1079.12 2260.92,1073.18 2261.76,1091.64 2262.59,1073.77 2263.43,1097.38 2264.26,1105.32 2265.1,1093.43    2265.93,1087.32 2266.77,1103.45 2267.6,1135.32 2268.44,1156.3 2269.27,1172.98 2270.11,1182.09 2270.94,1199.67 2271.78,1225.84 2272.61,1223.05 2273.45,1213.51    2274.28,1224.26 2275.12,1213.03 2275.95,1227.5 2276.79,1221.65 2277.62,1234.56 2278.46,1247.23 2279.29,1239.12 2280.13,1249.2 2280.96,1225.5 2281.8,1256.21    2282.63,1241.58 2283.47,1232.82 2284.3,1230.89 2285.14,1219.37 2285.98,1214.6 2286.81,1178.86 2287.65,1181.29 2288.48,1206.52 2289.32,1222.11 2290.15,1232.1       " clip-path="url(#clip302)"/>
  <line transform="rotate(-108 2342.86 1478.45)" stroke-width="4" stroke-linecap="round" stroke-linejoin="round" id="svg_16" y2="1485.45455" x2="2333.36365" y1="1471.45455" x1="2352.36365" stroke="#068de9" fill="none"/>
  <line stroke="#068de9" stroke-width="4" stroke-linecap="round" stroke-linejoin="round" id="svg_17" y2="1500.36365" x2="2334.45455" y1="1486.36365" x1="2353.45455" fill="none"/>
 </g>
</svg>