<?xml version="1.0" encoding="utf-8"?>
<svg xmlns="http://www.w3.org/2000/svg" xmlns:xlink="http://www.w3.org/1999/xlink" width="600" height="400" viewBox="0 0 2400 1600">
<defs>
  <clipPath id="clip540">
    <rect x="0" y="0" width="2400" height="1600"/>
  </clipPath>
</defs>

<polyline clip-path="url(#clip542)" style="stroke:#068de9; stroke-linecap:round; stroke-linejoin:round; stroke-width:2; stroke-opacity:0.3; fill:none" points="
  208.372,1486.45 208.372,47.2441 
  "/>
<polyline clip-path="url(#clip542)" style="stroke:#068de9; stroke-linecap:round; stroke-linejoin:round; stroke-width:2; stroke-opacity:0.3; fill:none" points="
  728.869,1486.45 728.869,47.2441 
  "/>
<polyline clip-path="url(#clip542)" style="stroke:#068de9; stroke-linecap:round; stroke-linejoin:round; stroke-width:2; stroke-opacity:0.3; fill:none" points="
  1249.37,1486.45 1249.37,47.2441 
  "/>
<polyline clip-path="url(#clip542)" style="stroke:#068de9; stroke-linecap:round; stroke-linejoin:round; stroke-width:2; stroke-opacity:0.3; fill:none" points="
  1769.86,1486.45 1769.86,47.2441 
  "/>
<polyline clip-path="url(#clip542)" style="stroke:#068de9; stroke-linecap:round; stroke-linejoin:round; stroke-width:2; stroke-opacity:0.3; fill:none" points="
  2290.36,1486.45 2290.36,47.2441 
  "/>


<polyline clip-path="url(#clip542)" style="stroke:#068de9; stroke-linecap:round; stroke-linejoin:round; stroke-width:2; stroke-opacity:0.3; fill:none" points="
  148.057,1303.84 2352.76,1303.84 
  "/>
<polyline clip-path="url(#clip542)" style="stroke:#068de9; stroke-linecap:round; stroke-linejoin:round; stroke-width:2; stroke-opacity:0.3; fill:none" points="
  148.057,1110.52 2352.76,1110.52 
  "/>
<polyline clip-path="url(#clip542)" style="stroke:#068de9; stroke-linecap:round; stroke-linejoin:round; stroke-width:2; stroke-opacity:0.3; fill:none" points="
  148.057,917.203 2352.76,917.203 
  "/>
<polyline clip-path="url(#clip542)" style="stroke:#068de9; stroke-linecap:round; stroke-linejoin:round; stroke-width:2; stroke-opacity:0.3; fill:none" points="
  148.057,723.883 2352.76,723.883 
  "/>
<polyline clip-path="url(#clip542)" style="stroke:#068de9; stroke-linecap:round; stroke-linejoin:round; stroke-width:2; stroke-opacity:0.3; fill:none" points="
  148.057,530.563 2352.76,530.563 
  "/>
<polyline clip-path="url(#clip542)" style="stroke:#068de9; stroke-linecap:round; stroke-linejoin:round; stroke-width:2; stroke-opacity:0.3; fill:none" points="
  148.057,337.243 2352.76,337.243 
  "/>
<polyline clip-path="url(#clip542)" style="stroke:#068de9; stroke-linecap:round; stroke-linejoin:round; stroke-width:2; stroke-opacity:0.3; fill:none" points="
  148.057,143.923 2352.76,143.923 
  "/>



<polyline clip-path="url(#clip542)" style="stroke:#068de9; stroke-linecap:round; stroke-linejoin:round; stroke-width:4; stroke-opacity:1; fill:none" points="
  210.454,672.833 212.536,731.941 214.618,813.466 216.7,711.67 218.782,789.868 220.864,726.213 222.946,731.832 225.028,768.568 227.11,800.245 229.192,735.195 
  231.274,590.341 233.356,778.849 235.438,743.214 237.52,743.987 239.602,889.503 241.684,689.031 243.766,776.38 245.848,704.98 247.93,620.067 250.012,619.18 
  252.094,744.34 254.175,495.711 256.257,1096.21 258.339,661.459 260.421,943.087 262.503,925.12 264.585,753.841 266.667,632.682 268.749,738.676 270.831,710.362 
  272.913,879.058 274.995,884.604 277.077,656.745 279.159,511.817 281.241,827.558 283.323,817.393 285.405,532.537 287.487,466.526 289.569,379.792 291.651,950.085 
  293.733,527.243 295.815,850.59 297.897,700.655 299.979,326.888 302.061,504.536 304.143,673.726 306.225,777.479 308.307,684.211 310.389,722.781 312.471,896.833 
  314.553,489.712 316.635,980.939 318.717,1000.19 320.799,639.765 322.881,771.935 324.963,482.193 327.045,1216.83 329.127,639.362 331.209,755.91 333.291,639.189 
  335.373,777.861 337.455,613.34 339.537,924.841 341.619,471.647 343.701,701.857 345.783,721.074 347.865,1085.18 349.947,826.5 352.029,400.63 354.111,621.579 
  356.193,848.817 358.275,385.429 360.357,663.43 362.439,797.207 364.521,401.635 366.603,729.493 368.685,725.222 370.767,924.89 372.849,1036.71 374.931,872.364 
  377.013,278.509 379.095,773.549 381.177,887.721 383.259,865.343 385.341,1093.75 387.423,792.38 389.505,847.208 391.587,1084.19 393.669,594.817 395.751,823.981 
  397.833,805.635 399.915,726.307 401.997,950.745 404.079,793.376 406.161,600.811 408.243,754.751 410.325,527.007 412.407,560.669 414.488,458.731 416.57,877.444 
  418.652,831.559 420.734,658.648 422.816,650.071 424.898,711.261 426.98,802.87 429.062,829.211 431.144,827.3 433.226,728.184 435.308,694.821 437.39,618.986 
  439.472,743.34 441.554,767.617 443.636,863.881 445.718,768.07 447.8,713.267 449.882,655.41 451.964,691.011 454.046,736.044 456.128,753.532 458.21,774.137 
  460.292,757.296 462.374,751.084 464.456,730.563 466.538,770.893 468.62,622.215 470.702,686.327 472.784,646.353 474.866,711.884 476.948,735.159 479.03,724.062 
  481.112,707.841 483.194,710.989 485.276,752.78 487.358,764.901 489.44,776.485 491.522,601.772 493.604,699.913 495.686,728.32 497.768,727.721 499.85,734.962 
  501.932,721.653 504.014,786.699 506.096,730.424 508.178,653.228 510.26,742.55 512.342,580.123 514.424,595.262 516.506,997.71 518.588,702.895 520.67,858.911 
  522.752,630.255 524.834,764.737 526.916,682.745 528.998,720.697 531.08,771.336 533.162,821.746 535.244,497.228 537.326,649.732 539.408,931.691 541.49,670.842 
  543.572,392.18 545.654,1030.56 547.736,582.021 549.818,1006.81 551.9,941.323 553.982,588.785 556.064,593.087 558.146,488.847 560.228,545.148 562.31,588.796 
  564.392,749.611 566.474,816.69 568.556,720.995 570.638,918.602 572.719,1236.94 574.801,530.238 576.883,821.917 578.965,786.172 581.047,887.259 583.129,612.955 
  585.211,752.383 587.293,278.138 589.375,1010.77 591.457,832.817 593.539,638.921 595.621,528.085 597.703,944.956 599.785,1094.76 601.867,553.604 603.949,682.967 
  606.031,569.787 608.113,543.302 610.195,586.899 612.277,525.497 614.359,1001.2 616.441,1315.68 618.523,511.33 620.605,1016.17 622.687,664.669 624.769,498.327 
  626.851,517.185 628.933,1132.26 631.015,257.053 633.097,453.613 635.179,1067.79 637.261,791.525 639.343,299.802 641.425,962.743 643.507,440.258 645.589,711 
  647.671,720.982 649.753,1009.03 651.835,627.294 653.917,911.123 655.999,880.64 658.081,833.156 660.163,758.492 662.245,600.614 664.327,556.937 666.409,743.184 
  668.491,782.679 670.573,468.211 672.655,980.724 674.737,573.234 676.819,766.786 678.901,712.123 680.983,588.542 683.065,791.54 685.147,787.918 687.229,536.09 
  689.311,654.218 691.393,814.344 693.475,673.171 695.557,607.645 697.639,819.345 699.721,788.958 701.803,845.949 703.885,703.789 705.967,862.717 708.049,770.522 
  710.131,792.26 712.213,715.495 714.295,789.375 716.377,688.258 718.459,771.611 720.541,737.943 722.623,776.203 724.705,671.155 726.787,729.634 728.869,737.3 
  730.951,787.229 733.032,750.55 735.114,797.123 737.196,739.248 739.278,592.979 741.36,643.395 743.442,680.424 745.524,741.317 747.606,800.659 749.688,754.881 
  751.77,689.409 753.852,678.318 755.934,693.763 758.016,750.19 760.098,787.466 762.18,812.738 764.262,684.464 766.344,680.619 768.426,657.159 770.508,707.96 
  772.59,850.457 774.672,804.206 776.754,787.99 778.836,581.52 780.918,778.741 783,510.693 785.082,794.294 787.164,928.714 789.246,701.791 791.328,781.854 
  793.41,786.874 795.492,1069.29 797.574,600.014 799.656,628.406 801.738,873.664 803.82,812.565 805.902,562.775 807.984,823.135 810.066,816.292 812.148,457.081 
  814.23,682.024 816.312,792.363 818.394,557.415 820.476,788.738 822.558,947.059 824.64,661.066 826.722,557.631 828.804,919.172 830.886,869.78 832.968,951.789 
  835.05,811.612 837.132,661.24 839.214,489.616 841.296,710.705 843.378,997.019 845.46,574.382 847.542,640.411 849.624,823.422 851.706,662.406 853.788,589.623 
  855.87,713.262 857.952,372.326 860.034,962.365 862.116,854.26 864.198,567.619 866.28,653.281 868.362,1003.73 870.444,680.371 872.526,545.275 874.608,420.252 
  876.69,759.076 878.772,742.905 880.854,623.263 882.936,682.76 885.018,204.306 887.1,850.294 889.182,286.442 891.264,102.344 893.345,771.359 895.427,565.038 
  897.509,186.684 899.591,979.78 901.673,545.313 903.755,595.259 905.837,417.923 907.919,892.94 910.001,837.879 912.083,766.918 914.165,925.781 916.247,598.271 
  918.329,889.187 920.411,665.183 922.493,329.357 924.575,640.933 926.657,549.672 928.739,828.093 930.821,746.85 932.903,680.405 934.985,649.184 937.067,704.221 
  939.149,627.932 941.231,826.594 943.313,531.269 945.395,818.686 947.477,728.968 949.559,707.169 951.641,622.168 953.723,498.596 955.805,641.945 957.887,696.655 
  959.969,619.546 962.051,677.693 964.133,544.136 966.215,748.861 968.297,771.4 970.379,655.421 972.461,776.744 974.543,785.233 976.625,644.859 978.707,731.831 
  980.789,768.332 982.871,747.884 984.953,654.651 987.035,744.658 989.117,710.625 991.199,851.68 993.281,718.996 995.363,716.407 997.445,820.708 999.527,714.382 
  1001.61,798.533 1003.69,719.463 1005.77,712.23 1007.85,725.906 1009.94,738.097 1012.02,664.926 1014.1,740.934 1016.18,714.55 1018.26,824.693 1020.35,689.384 
  1022.43,716.269 1024.51,575.425 1026.59,679.034 1028.67,797.463 1030.76,813.191 1032.84,588.126 1034.92,754.497 1037,852.739 1039.08,689.056 1041.17,603.523 
  1043.25,727.651 1045.33,533.38 1047.41,741.232 1049.49,605.982 1051.58,848.959 1053.66,917.683 1055.74,1002.95 1057.82,800.192 1059.9,701.013 1061.99,624.58 
  1064.07,836.878 1066.15,685.12 1068.23,951.443 1070.31,648.999 1072.4,863.738 1074.48,710.745 1076.56,420.479 1078.64,524.537 1080.72,1040.56 1082.81,959.461 
  1084.89,811.035 1086.97,737.596 1089.05,729.59 1091.13,565.707 1093.22,1054.1 1095.3,412.546 1097.38,850.64 1099.46,1078.28 1101.54,818.652 1103.63,655.451 
  1105.71,870.798 1107.79,879.715 1109.87,680.045 1111.95,649.083 1114.04,544.833 1116.12,918.113 1118.2,773.719 1120.28,211.835 1122.36,506.603 1124.45,473.084 
  1126.53,912.073 1128.61,391.763 1130.69,739.269 1132.77,693.368 1134.86,1153.19 1136.94,574.756 1139.02,685.436 1141.1,763.604 1143.18,701.447 1145.27,391.98 
  1147.35,613.224 1149.43,985.563 1151.51,495.266 1153.59,695.96 1155.68,965.774 1157.76,624.907 1159.84,873.439 1161.92,787.716 1164,845.166 1166.09,804.986 
  1168.17,508.54 1170.25,453.627 1172.33,504.651 1174.41,582.853 1176.5,765.27 1178.58,892.36 1180.66,782.663 1182.74,717.755 1184.82,374.826 1186.91,749.023 
  1188.99,542.391 1191.07,869.46 1193.15,704.986 1195.23,818.551 1197.32,796.732 1199.4,678.376 1201.48,677.37 1203.56,865.219 1205.64,758.878 1207.73,649.823 
  1209.81,709.845 1211.89,674.831 1213.97,755.946 1216.05,561.72 1218.14,777.507 1220.22,789.524 1222.3,858.827 1224.38,706.331 1226.46,789.106 1228.55,728.375 
  1230.63,640.544 1232.71,624.668 1234.79,792.969 1236.87,892.082 1238.96,604.564 1241.04,726.421 1243.12,799.569 1245.2,665.014 1247.28,747.897 1249.37,705.462 
  1251.45,691.254 1253.53,682.367 1255.61,737.262 1257.69,756.126 1259.78,616.023 1261.86,786.535 1263.94,738.532 1266.02,667.758 1268.1,817.248 1270.19,655.851 
  1272.27,798.824 1274.35,558.98 1276.43,678.083 1278.51,736.608 1280.6,722.18 1282.68,703.638 1284.76,727.659 1286.84,662.252 1288.92,801.508 1291.01,804.784 
  1293.09,597.026 1295.17,694.423 1297.25,686.016 1299.33,574.959 1301.41,747.865 1303.5,966.112 1305.58,585.37 1307.66,531.059 1309.74,889.342 1311.82,783.669 
  1313.91,841.502 1315.99,698.798 1318.07,858.396 1320.15,849.794 1322.23,778.718 1324.32,744.561 1326.4,697.822 1328.48,709.969 1330.56,677.635 1332.64,640.089 
  1334.73,756.087 1336.81,688.422 1338.89,783.295 1340.97,738.881 1343.05,944.136 1345.14,334.778 1347.22,604.586 1349.3,822.191 1351.38,458.109 1353.46,491.193 
  1355.55,359.741 1357.63,87.9763 1359.71,964.494 1361.79,804.255 1363.87,1130.44 1365.96,996.542 1368.04,639.168 1370.12,710.122 1372.2,806.577 1374.28,717.219 
  1376.37,566.069 1378.45,597.769 1380.53,331.358 1382.61,712.246 1384.69,1007.33 1386.78,619.331 1388.86,717.248 1390.94,933.106 1393.02,601.77 1395.1,573.825 
  1397.19,823.113 1399.27,662.029 1401.35,594.515 1403.43,905.837 1405.51,551.705 1407.6,1132 1409.68,668.929 1411.76,696.902 1413.84,478.223 1415.92,623.308 
  1418.01,677.701 1420.09,216.221 1422.17,662.261 1424.25,623.819 1426.33,564.582 1428.42,498.701 1430.5,605.562 1432.58,1114.66 1434.66,454.081 1436.74,593.345 
  1438.83,624.545 1440.91,935.629 1442.99,607.195 1445.07,561.718 1447.15,562.087 1449.24,636.701 1451.32,666.923 1453.4,455.285 1455.48,725.849 1457.56,733.633 
  1459.65,655.538 1461.73,846.882 1463.81,622.712 1465.89,423.253 1467.97,750.249 1470.06,750.642 1472.14,787.933 1474.22,645.227 1476.3,800.699 1478.38,587.803 
  1480.47,696.688 1482.55,831.458 1484.63,710.971 1486.71,682.266 1488.79,729.462 1490.88,637.47 1492.96,784.37 1495.04,622.035 1497.12,684.938 1499.2,670.075 
  1501.29,725.566 1503.37,754.113 1505.45,737.748 1507.53,688.889 1509.61,657.101 1511.7,662.204 1513.78,736.634 1515.86,721.387 1517.94,672.462 1520.02,795.422 
  1522.11,713.513 1524.19,732.722 1526.27,750.627 1528.35,813.577 1530.43,680.484 1532.52,721.988 1534.6,685.766 1536.68,754.05 1538.76,710.181 1540.84,673.907 
  1542.93,718.993 1545.01,586.101 1547.09,750.624 1549.17,676.096 1551.25,699.873 1553.34,715.106 1555.42,745.119 1557.5,510.253 1559.58,694.327 1561.66,906.528 
  1563.75,807.323 1565.83,736.226 1567.91,888.029 1569.99,705.015 1572.07,667.652 1574.16,789.692 1576.24,717.515 1578.32,701.51 1580.4,984.157 1582.48,678.634 
  1584.57,822.558 1586.65,791.286 1588.73,773.686 1590.81,818.94 1592.89,744.456 1594.98,592.254 1597.06,412.962 1599.14,1047.02 1601.22,945.095 1603.3,674.468 
  1605.39,929.204 1607.47,806.153 1609.55,1236.79 1611.63,828.884 1613.71,743.741 1615.79,870.471 1617.88,849.367 1619.96,844.519 1622.04,954.264 1624.12,596.045 
  1626.2,769.566 1628.29,840.408 1630.37,1219.23 1632.45,393.447 1634.53,553.263 1636.61,626.57 1638.7,824.651 1640.78,656.571 1642.86,782.239 1644.94,897.124 
  1647.02,1431.23 1649.11,775.298 1651.19,810.592 1653.27,390.329 1655.35,970.102 1657.43,1274.65 1659.52,469.668 1661.6,825.22 1663.68,622.172 1665.76,733.523 
  1667.84,685.896 1669.93,774.472 1672.01,899.928 1674.09,933.028 1676.17,591.579 1678.25,656.997 1680.34,489.428 1682.42,790.336 1684.5,329.671 1686.58,492.175 
  1688.66,796.464 1690.75,832.057 1692.83,1023.06 1694.91,921.591 1696.99,778.943 1699.07,957.346 1701.16,755.589 1703.24,820.396 1705.32,533.261 1707.4,1125.24 
  1709.48,807.141 1711.57,778.667 1713.65,788.675 1715.73,518.291 1717.81,752.748 1719.89,525.771 1721.98,939.682 1724.06,745.525 1726.14,834.64 1728.22,654.007 
  1730.3,684.394 1732.39,781.04 1734.47,726.931 1736.55,756.194 1738.63,720.698 1740.71,823.758 1742.8,701.701 1744.88,692.118 1746.96,811.976 1749.04,673.125 
  1751.12,786.433 1753.21,619.595 1755.29,723.517 1757.37,765.751 1759.45,663.859 1761.53,658.569 1763.62,684.065 1765.7,707.828 1767.78,696.767 1769.86,684.882 
  1771.94,759.565 1774.03,671.666 1776.11,735.051 1778.19,773.504 1780.27,719.309 1782.35,668.769 1784.44,631.408 1786.52,674.425 1788.6,711.091 1790.68,665.014 
  1792.76,676.913 1794.85,682.039 1796.93,753.462 1799.01,661.923 1801.09,646.025 1803.17,709.106 1805.26,737.326 1807.34,790.174 1809.42,679.919 1811.5,822.89 
  1813.58,754.341 1815.67,595.072 1817.75,695.852 1819.83,687.839 1821.91,703.811 1823.99,742.108 1826.08,592.369 1828.16,630.429 1830.24,919.102 1832.32,637.546 
  1834.4,499.721 1836.49,790.115 1838.57,585.849 1840.65,672.226 1842.73,892.535 1844.81,419.997 1846.9,704.521 1848.98,902.176 1851.06,742.732 1853.14,855.061 
  1855.22,287.753 1857.31,662.686 1859.39,769.601 1861.47,594.713 1863.55,556.369 1865.63,587.302 1867.72,644.049 1869.8,1015.44 1871.88,934.763 1873.96,1207.85 
  1876.04,1200.93 1878.13,802.468 1880.21,708.955 1882.29,598.838 1884.37,856.067 1886.45,857.723 1888.54,1108.26 1890.62,730.839 1892.7,861.691 1894.78,1228.4 
  1896.86,786.471 1898.95,997.786 1901.03,746.741 1903.11,873.279 1905.19,672.855 1907.27,1010.42 1909.36,584.829 1911.44,841.42 1913.52,655.368 1915.6,852.897 
  1917.68,988.081 1919.77,481.385 1921.85,826.504 1923.93,707.458 1926.01,926.283 1928.09,553.277 1930.18,765.614 1932.26,730.618 1934.34,880.151 1936.42,627.516 
  1938.5,314.6 1940.58,841.592 1942.67,444.077 1944.75,377.358 1946.83,741.923 1948.91,648.8 1950.99,733.231 1953.08,547.919 1955.16,695.44 1957.24,835.148 
  1959.32,666.304 1961.4,685.729 1963.49,670.183 1965.57,598.695 1967.65,887.871 1969.73,968.024 1971.81,756.342 1973.9,674.863 1975.98,523.062 1978.06,670.427 
  1980.14,608.774 1982.22,652.159 1984.31,611.111 1986.39,726.139 1988.47,710.437 1990.55,901.285 1992.63,801.747 1994.72,733.175 1996.8,607.649 1998.88,576.806 
  2000.96,827.498 2003.04,807.214 2005.13,779.495 2007.21,627.33 2009.29,790.366 2011.37,713.278 2013.45,594.084 2015.54,819.709 2017.62,671.759 2019.7,754.407 
  2021.78,753.203 2023.86,801.316 2025.95,737.066 2028.03,735.675 2030.11,613.457 2032.19,747.178 2034.27,713.091 2036.36,721.315 2038.44,755.802 2040.52,631.541 
  2042.6,734.174 2044.68,757.794 2046.77,777.121 2048.85,769.661 2050.93,736.723 2053.01,777.857 2055.09,723.401 2057.18,651.506 2059.26,754.351 2061.34,743.168 
  2063.42,709.355 2065.5,723.202 2067.59,676.502 2069.67,722.125 2071.75,534.983 2073.83,713.198 2075.91,647.812 2078,669.434 2080.08,779.334 2082.16,690.3 
  
  "/>
<polyline clip-path="url(#clip542)" style="stroke:#068de9; stroke-linecap:round; stroke-linejoin:round; stroke-width:4; stroke-opacity:0.3; fill:none" points="
  2082.16,690.3 2084.24,658.107 2086.32,753.624 2088.41,674.635 2090.49,701.744 2092.57,560.206 2094.65,630.206 2096.73,751.452 2098.82,782.34 2100.9,560.162 
  2102.98,686.661 2105.06,541.982 2107.14,974.308 2109.23,798.297 2111.31,696.89 2113.39,1004.51 2115.47,782.372 2117.55,668.14 2119.64,626.878 2121.72,618.663 
  2123.8,723.479 2125.88,658.936 2127.96,1122.83 2130.05,811.762 2132.13,741.556 2134.21,645.867 2136.29,679.489 2138.37,562.88 2140.46,1019.73 2142.54,772.283 
  2144.62,928.451 2146.7,550.49 2148.78,600.92 2150.87,1445.72 2152.95,765.365 2155.03,741.531 2157.11,907.265 2159.19,564.64 2161.28,566.639 2163.36,694.955 
  2165.44,773.799 2167.52,325.295 2169.6,845.883 2171.69,500.881 2173.77,521.031 2175.85,593.885 2177.93,420.526 2180.01,663.591 2182.1,430.192 2184.18,558.372 
  2186.26,596.995 2188.34,613.777 2190.42,868.938 2192.51,733.933 2194.59,953.996 2196.67,462.901 2198.75,391.193 2200.83,375.222 2202.92,510.808 2205,510.826 
  2207.08,1099.62 2209.16,598.438 2211.24,778.901 2213.33,942.86 2215.41,625.266 2217.49,689.349 2219.57,244.561 2221.65,860.007 2223.74,690.701 2225.82,689.322 
  2227.9,795.988 2229.98,735.138 2232.06,631.664 2234.15,525.809 2236.23,700.871 2238.31,733.137 2240.39,967.784 2242.47,738.136 2244.56,616.572 2246.64,728.61 
  2248.72,623.29 2250.8,726.854 2252.88,823.095 2254.96,716.471 2257.05,643.076 2259.13,796.037 2261.21,728.091 2263.29,592.019 2265.37,809.131 2267.46,729.51 
  2269.54,799.316 2271.62,742.086 2273.7,731.11 2275.78,790.042 2277.87,677.602 2279.95,767.158 2282.03,760.918 2284.11,788.262 2286.19,710.033 2288.28,736.107 
  2290.36,735.228 
  "/>
<polyline clip-path="url(#clip542)" style="stroke:#ffa500; stroke-linecap:round; stroke-linejoin:round; stroke-width:4; stroke-opacity:1; fill:none" points="
  2082.16,723.883 2084.24,723.883 2086.32,723.883 2088.41,723.883 2090.49,723.883 2092.57,723.883 2094.65,723.883 2096.73,723.883 2098.82,723.883 2100.9,723.883 
  2102.98,723.883 2105.06,723.883 2107.14,723.883 2109.23,723.883 2111.31,723.883 2113.39,723.883 2115.47,723.883 2117.55,723.883 2119.64,723.883 2121.72,723.883 
  2123.8,723.883 2125.88,723.883 2127.96,723.883 2130.05,723.883 2132.13,723.883 2134.21,723.883 2136.29,723.883 2138.37,723.883 2140.46,723.883 2142.54,723.883 
  2144.62,723.883 2146.7,723.883 2148.78,723.883 2150.87,723.883 2152.95,723.883 2155.03,723.883 2157.11,723.883 2159.19,723.883 2161.28,723.883 2163.36,723.883 
  2165.44,723.883 2167.52,723.883 2169.6,723.883 2171.69,723.883 2173.77,723.883 2175.85,723.883 2177.93,723.883 2180.01,723.883 2182.1,723.883 2184.18,723.883 
  2186.26,723.883 2188.34,723.883 2190.42,723.883 2192.51,723.883 2194.59,723.883 2196.67,723.883 2198.75,723.883 2200.83,723.883 2202.92,723.883 2205,723.883 
  2207.08,723.883 2209.16,723.883 2211.24,723.883 2213.33,723.883 2215.41,723.883 2217.49,723.883 2219.57,723.883 2221.65,723.883 2223.74,723.883 2225.82,723.883 
  2227.9,723.883 2229.98,723.883 2232.06,723.883 2234.15,723.883 2236.23,723.883 2238.31,723.883 2240.39,723.883 2242.47,723.883 2244.56,723.883 2246.64,723.883 
  2248.72,723.883 2250.8,723.883 2252.88,723.883 2254.96,723.883 2257.05,723.883 2259.13,723.883 2261.21,723.883 2263.29,723.883 2265.37,723.883 2267.46,723.883 
  2269.54,723.883 2271.62,723.883 2273.7,723.883 2275.78,723.883 2277.87,723.883 2279.95,723.883 2282.03,723.883 2284.11,723.883 2286.19,723.883 2288.28,723.883 
  2290.36,723.883 
  "/>
</svg>
